<?xml version="1.0" encoding="UTF-8"?>
<svg width="125px" height="127px" viewBox="0 0 125 127" version="1.1" xmlns="http://www.w3.org/2000/svg" xmlns:xlink="http://www.w3.org/1999/xlink">
    <!-- Generator: Sketch 52.2 (67145) - http://www.bohemiancoding.com/sketch -->
    <title>logo-ovation</title>
    <desc>Created with Sketch.</desc>
    <g id="Client-Logos" stroke="none" stroke-width="1" fill="none" fill-rule="evenodd">
        <g id="Artboard" transform="translate(-618.000000, -929.000000)" fill="#D7DBDF">
            <g id="logo-ovation" transform="translate(618.000000, 929.000000)">
                <path d="M63.1119497,104.913043 C46.9509434,104.913043 32.9937107,95.7101449 26.1069182,82.273913 L2.9672956,82.273913 C11.0477987,107.857971 34.9220126,126.447826 63.1119497,126.447826 C91.3018868,126.447826 115.176101,107.857971 123.256604,82.273913 L100.116981,82.273913 C93.2301887,95.7101449 79.1811321,104.913043 63.1119497,104.913043 Z" id="path4472"></path>
                <path d="M63.1119497,21.5347826 C78.9974843,21.5347826 92.8628931,30.4615942 99.8415094,43.6217391 L123.072956,43.6217391 C114.808805,18.3137681 91.118239,0 63.1119497,0 C35.1056604,0 11.3232704,18.3137681 3.1509434,43.6217391 L26.3823899,43.6217391 C33.3610063,30.4615942 47.1345912,21.5347826 63.1119497,21.5347826 Z" id="path4474"></path>
                <polygon id="path4492" points="31.53 71.2761905 28.29 71.2761905 21.27 53.5428571 25.86 53.5428571 30.09 64.852381 34.5 53.5428571 38.82 53.5428571"></polygon>
                <path d="M58.2727273,71.2761905 L53.6363636,71.2761905 L52.0909091,67.5666667 L45.4545455,67.5666667 L44,71.2761905 L39.4545455,71.2761905 L47.1818182,53.6333333 L50.5454545,53.6333333 L58.2727273,71.2761905 Z M46.8181818,64.1285714 L50.7272727,64.1285714 L48.7272727,59.152381 L46.8181818,64.1285714 Z" id="path4498" fill-rule="nonzero"></path>
                <polygon id="path4504" points="67.2588235 71.2761905 63.0235294 71.2761905 63.0235294 57.252381 57.8470588 57.252381 57.8470588 53.6333333 72.4352941 53.6333333 72.4352941 57.252381 67.2588235 57.252381"></polygon>
                <polygon id="path4510" points="80.6 71.2761905 76.1 71.2761905 76.1 53.6333333 80.6 53.6333333"></polygon>
                <polygon id="path4522" points="124.821053 71.2761905 119.631579 71.2761905 112.294737 59.0619048 112.294737 71.2761905 108.268421 71.2761905 108.268421 53.6333333 113.636842 53.6333333 120.794737 65.5761905 120.794737 53.6333333 124.821053 53.6333333"></polygon>
                <path d="M93.616061,53 C87.0790945,53 84,57.598 84,62.5 C84,67.9593333 87.8733054,72 93.3594698,72 C99.7375941,72 102.999968,67.3513333 102.999968,62.386 C103.012187,57.1546667 99.5176588,53 93.616061,53 Z M93.5671865,56.8126667 C96.8539977,56.8126667 98.7967597,59.536 98.7967597,62.4366667 C98.7967597,65.198 96.976184,68.1746667 93.4205629,68.1746667 C90.3659057,68.1746667 88.1909897,65.5273333 88.1909897,62.4873333 C88.1909897,59.764 89.9260351,56.8126667 93.5671865,56.8126667 Z" id="path3215" fill-rule="nonzero"></path>
                <path d="M9.61606095,53 C3.07909448,53 0,57.598 0,62.5 C0,67.9593333 3.87330536,72 9.35946974,72 C15.737594,72 18.999968,67.3513333 18.999968,62.386 C19.0121866,57.1546667 15.5298773,53 9.61606095,53 Z M9.56718644,56.8126667 C12.8539976,56.8126667 14.7967596,59.536 14.7967596,62.4366667 C14.7967596,65.198 12.9761839,68.1746667 9.42056289,68.1746667 C6.36590566,68.1746667 4.19098972,65.5273333 4.19098972,62.4873333 C4.19098972,59.764 5.92603502,56.8126667 9.56718644,56.8126667 Z" id="path3220" fill-rule="nonzero"></path>
            </g>
        </g>
    </g>
</svg>