<?xml version="1.0" encoding="UTF-8"?>
<svg width="160px" height="60px" viewBox="0 0 160 60" version="1.1" xmlns="http://www.w3.org/2000/svg" xmlns:xlink="http://www.w3.org/1999/xlink">
    <!-- Generator: Sketch 52.2 (67145) - http://www.bohemiancoding.com/sketch -->
    <title>logo-ford-light</title>
    <desc>Created with Sketch.</desc>
    <defs>
        <polygon id="path-1" points="0.0126315789 0.171458333 159.830526 0.171458333 159.830526 59.9875 0.0126315789 59.9875"></polygon>
    </defs>
    <g id="Client-Logos" stroke="none" stroke-width="1" fill="none" fill-rule="evenodd">
        <g id="Artboard" transform="translate(-795.000000, -1276.000000)">
            <g id="logo-ford-light" transform="translate(795.000000, 1276.000000)">
                <g id="Group-3">
                    <mask id="mask-2" fill="white">
                        <use xlink:href="#path-1"></use>
                    </mask>
                    <g id="Clip-2"></g>
                    <path d="M79.9410526,60 C124.060632,60 159.830526,46.636875 159.830526,30.11125 C159.830526,13.5858333 124.060632,0.171458333 79.9410526,0.171458333 C35.7698947,0.171458333 0,13.5858333 0,30.11125 C0,46.636875 35.7698947,60 79.9410526,60" id="Fill-1" fill="#122639" mask="url(#mask-2)"></path>
                </g>
                <path d="M79.9742565,57 C37.5093393,57 3,45.0112772 3,30.0511659 C3,15.1423251 37.5093393,3 79.9742565,3 C122.54257,3 157,15.1423251 157,30.0511659 C157,45.0112772 122.54257,57 79.9742565,57" id="Fill-4" fill="#FFFFFE"></path>
                <path d="M79.474176,55 C120.607952,55 154,44.0269313 154,30.4746979 C154,16.9730687 120.607952,6 79.474176,6 C38.2887523,6 5,16.9730687 5,30.4746979 C5,44.0269313 38.2887523,55 79.474176,55" id="Fill-5" fill="#122639"></path>
                <path d="M99.4456186,35.000034 C102.948511,31.7999387 104.9063,28.4499379 109.955557,28.4999745 C112.995255,28.5500111 113.768017,30.8998928 114.283402,31.9000119 L120.929743,21 L125,21 L113.974255,39.9499804 C113.768017,40.3500689 113.252843,41.1000051 113.304402,41.7000357 C113.408153,42.6501183 114.644108,42.3999353 114.180283,42.3999353 C116.39566,42.3000664 120.466128,38.1999251 121.444917,37.2000102 C121.650945,36.9500315 122.011651,36.5001106 122.217679,36.5001106 C122.423917,36.5001106 122.835972,36.7000528 122.835972,37.0000681 C122.835972,37.2000102 122.372357,37.9499464 122.011651,38.4000715 C119.950743,40.900063 116.550338,44.7500213 112.686109,44.8500945 C110.779879,44.8500945 110.058466,44.1001583 109.800879,42.6501183 C108.924998,43.4000545 105.936859,44.7001889 102.896951,44.7001889 C100.372428,44.6499481 99.3418681,43.2001123 98.8266936,42.0500876 C98.36371,41.1000051 98.1568405,39.7000017 98.5175468,38.2999983 C97.1264915,38.9998979 95.8383447,39.0999711 93.9836744,39.0501387 C91.8196468,38.9998979 90.480151,38.0500196 89.8109292,35.6000647 C87.3371235,40.000017 87.2342149,40.1499226 84.709481,44.7500213 L80.3302872,44.7500213 L85.9460681,35.4999915 C86.6674808,34.2500979 87.0279767,33.2499787 87.2857744,32.2000272 C87.4402426,31.5999966 86.9766276,31.0500026 86.3067745,30.999966 C85.5855723,30.999966 84.401176,31.6998655 83.2668661,32.7500213 C83.2668661,32.7500213 80.3816363,35.7499702 78.2693787,38.7999557 C76.2600297,41.7000357 72.8080659,45 69.0469552,45 C66.3161936,45 63.8432297,43.5501642 63.3278447,40.7499532 C63.3278447,40.7499532 63.0702574,41.4000204 60.6486426,42.7499872 C60.4426149,42.8500604 59.9274404,43.1500757 59.7736036,43.0500026 C59.3091468,42.6501183 59.0515595,42.1501608 59,41.8001089 C59.1546786,41.8501455 59.4638254,41.5999626 60.4426149,40.8500264 C62.3488448,39.450023 62.7611107,38.3500349 62.7611107,38.3500349 C63.2249361,37.3999523 64.0498887,35.90008 64.6159914,34.8499243 C66.1623568,31.8499753 68.8407171,28.7999898 73.2201213,28.64988 C73.941534,28.64988 74.1475617,28.9498953 74.3020299,29.1998741 C74.7142957,29.4998894 74.5596171,30.09992 74.5596171,30.09992 C71.4683596,30.5498409 69.3567334,32.2998962 68.0679553,34.0001191 C67.2958249,35.099903 66.4706618,36.8999949 66.3161936,38.1999251 C66.0070468,40.4501421 67.0889554,41.9500145 68.6862489,42.3000664 C71.6743873,42.7499872 74.1475617,40.6500842 76.1053511,37.3999523 C76.6205256,36.549943 76.9820737,34.3499668 76.9820737,33.1499055 C76.9820737,31.9498443 76.3115893,30.6999506 75.7970461,30.1999932 C75.7970461,29.3499838 76.3629384,28.7999898 77.0327915,28.7999898 C77.2388192,28.7999898 77.4448469,28.7999898 77.6510851,28.9999319 C78.6814341,30.0000511 79.2481682,31.9000119 79.2481682,33.3500519 C79.2481682,33.8500094 79.2481682,34.3499668 79.1452595,34.8499243 C81.3090766,32.2998962 84.0398383,28.9999319 86.1520959,28.3498647 C86.5652035,28.1499226 86.9766276,28.1499226 87.388683,28.1499226 C91.2529128,28.0500536 90.7377383,31.4500911 90.7377383,31.4500911 C92.7986468,29.1498375 94.2412617,28.3000323 96.1474915,28.3999013 C98.2084,28.4999745 98.9298127,29.8999779 98.9298127,30.999966 C98.8782532,32.2998962 97.8992532,33.7999728 96.1998929,33.8500094 C94.7048766,33.8500094 93.8289958,33.1499055 93.3653808,31.8499753 C92.3863809,32.2000272 91.9233973,32.8500945 91.7165278,34.1500247 C91.4075914,35.8000068 92.6955277,37.099937 94.3441703,37.099937 C97.1778406,37.099937 98.4152695,35.90008 99.4456186,35.000034" id="Fill-6" fill="#FFFFFE"></path>
                <path d="M102,12.8757542 C102,14.5488814 96.2514595,17.7385872 91.3754728,17.7385872 C83.7790973,17.7385872 75.8749589,14.0260558 72.2314912,13.1894922 C68.2785834,12.2482781 64.6862697,11.4640397 61.8627342,11.4640397 C51.9566698,11.4640397 47.5427467,15.8038336 47.7479918,19.7777778 C47.8505095,21.3985797 49.1337632,22.4444444 51.0329619,22.0783811 C53.0858324,21.7123178 55.9601027,19.7254525 56.6787751,18 C56.8326565,17.6339367 57.2439853,17.5816114 57.3972378,17.6862619 C57.7052103,17.9476747 57.6026926,18.3137381 57.6026926,18.3137381 C57.3460838,20.3529286 54.2663587,26 48.9285181,26 C45.9515205,26 43.9498041,23.1763575 44.0009581,20.4052539 C44.0525314,15.2286828 49.2364906,10 62.0168253,10 C64.429032,10 67.1494208,10.2093011 70.1270474,10.7319131 C73.56527,11.3593892 82.1367171,12.8234289 89.1171476,12.9280794 C91.6834453,12.9280794 94.9682058,13.03273 97.6372309,12.6143414 C100.460347,12.1438411 99.8444021,12.0391906 100.973565,12.0391906 C102,12.0391906 102,12.4573656 102,12.8757542" id="Fill-7" fill="#FFFFFE"></path>
                <path d="M110.029154,31.017453 C108.228955,30.8220872 105.966735,32.286334 104.115713,34.4337632 C103.190413,35.5074778 102.21345,37.5574234 102.059303,38.777463 C101.853494,39.9977019 102.21345,41.2179408 102.67631,41.5594323 C103.13896,41.9011231 105.195581,42.9259963 108.383312,39.8513769 C110.182671,38.1431221 111.930788,35.3611527 111.930788,35.3611527 L111.365443,35.2146284 C112.445101,33.3112071 112.239501,31.2614609 110.029154,31.017453" id="Fill-8" fill="#122639"></path>
                <path d="M72.0953684,24.4509106 C72.0953684,25.0129841 72.8598218,25.4731661 73.5222926,25.5243207 C73.3693187,26.086603 73.42031,26.3421668 73.1655616,26.2910123 C71.6368629,26.2910123 71.0253834,24.8085748 71.0253834,24.8085748 C68.9880204,25.1664477 67.0008162,25.4220116 62.9745839,25.8310391 C52.8345975,42.2906889 49.6756338,45 43.4590646,45 C39.0261506,45 35.1025253,42.0862795 35.0007508,36.8722754 C34.9497595,33.7031998 37.4974519,29.8181696 42.2363137,28.6424505 C42.7968019,28.6424505 43.000559,28.8468598 43.000559,29.1535782 C43.000559,29.3579876 42.7968019,29.6137603 42.3380882,29.8181696 C40.9623635,30.3292973 38.5674369,33.0386085 38.5674369,35.5433015 C38.5674369,37.4347665 39.7394045,39.530432 41.7266088,39.9904052 C42.2870969,40.1438688 42.7968019,40.0927143 43.3062987,40.0927143 C48.2489177,40.0927143 53.802808,34.5208372 59.8156202,26.0354484 C58.8474096,26.086603 54.7200273,26.5465762 53.7010335,27.7222953 C53.2423199,28.0801682 52.9365801,27.8757589 52.8345975,27.4667314 C52.8345975,27.3646311 52.9875715,27.0067582 53.1411698,26.80214 C54.7710186,24.9620384 59.6626462,24.5530109 60.8346139,24.3995473 C65.4205018,17.3454415 71.3311232,12.9494923 72.5540821,13.0004381 C72.7578392,13.0004381 73.2165529,13.3071565 73.0125876,13.8182842 C72.9618045,13.9205933 72.4520995,14.4828756 72.2491749,14.6363392 C71.229973,15.5562856 67.7644371,17.8054147 63.9937857,24.195138 C67.050975,24.0418832 70.6178692,23.4284464 70.6178692,23.4284464 C70.6178692,23.4284464 70.4139039,22.763855 70.4139039,22.2017815 C70.5668779,20.0035981 71.84062,18.6746242 73.4713013,18.9301881 C74.3891449,19.0834429 75,19.8501345 75,20.6681895 C75,21.5369814 74.3381536,22.8150095 73.6750584,23.4284464 C73.2165529,23.7863193 72.7068479,24.1441922 72.0953684,24.4509106" id="Fill-9" fill="#FFFFFE"></path>
                <path d="M72.14393,23.9994804 C72.14393,23.9994804 72.6168038,24.0463128 73.3258249,23.2507357 C73.6094719,22.9701237 74.0821526,22.1275231 73.9877323,21.566108 C73.9404256,21.2853048 73.7985056,20.9576693 73.4683242,21.0045016 C72.7585308,21.1448076 72.3331567,21.4724432 72.14393,22.1743555 C71.9075896,22.9231002 72.002203,23.4378741 72.14393,23.9994804" id="Fill-10" fill="#122639"></path>
            </g>
        </g>
    </g>
</svg>