<?xml version="1.0" encoding="UTF-8"?>
<svg width="115px" height="58px" viewBox="0 0 115 58" version="1.1" xmlns="http://www.w3.org/2000/svg" xmlns:xlink="http://www.w3.org/1999/xlink">
    <!-- Generator: Sketch 52.2 (67145) - http://www.bohemiancoding.com/sketch -->
    <title>logo-shangrila-light</title>
    <desc>Created with Sketch.</desc>
    <g id="Client-Logos" stroke="none" stroke-width="1" fill="none" fill-rule="evenodd">
        <g id="Artboard" transform="translate(-627.000000, -623.000000)" fill="#D7DBDF">
            <g id="logo-shangrila-light" transform="translate(627.000000, 623.000000)">
                <path d="M0.677333284,38.5611964 C1.0746667,39.6945255 2.14933339,40.5572027 3.31599984,40.5572027 C4.52933324,40.5572027 5.82799968,39.5998484 5.82799968,37.9531838 C5.82799968,35.1078799 0.909333155,36.2412091 0.909333155,32.5198485 C0.909333155,30.3998737 2.67199972,29.3638674 4.46933324,29.3638674 C5.18533298,29.3638674 6.31599977,29.6065131 6.87066637,30.1531839 C6.86266511,30.7932091 6.87599928,31.5878548 6.87599928,31.5878548 C6.4759993,30.5185131 5.64266602,29.8745194 4.76133274,29.8745194 C3.73066616,29.8745194 2.73733301,30.4852154 2.6586663,31.9958548 C2.52266756,34.7438736 7.60666593,33.8078736 7.60666593,37.3145193 C7.60666593,39.6678799 5.3653326,41.071861 3.33333275,41.071861 C2.59999934,41.071861 1.1813329,40.7226326 0.673333032,40.1105381 C0.673333032,39.4011964 0.677339331,38.5611964 0.677339331,38.5611964" id="path82"></path>
                <polygon id="path84" points="85.2773365 35.7345256 89.9426643 35.7345256 89.9426643 34.7131839 85.2773365 34.7131839"></polygon>
                <path d="M18.7639995,34.7518106 L18.7639995,40.3878043 C18.7186679,40.6436783 18.2839995,40.8624751 18.2839995,40.8624751 C19.0266661,40.8700342 20.7386662,40.8700342 21.2399994,40.8624751 C21.2399994,40.8624751 20.7879996,40.623609 20.7639996,40.3878043 L20.7639996,30.0864753 C20.7879996,29.8491209 21.2399994,29.6064753 21.2399994,29.6064753 C20.7386662,29.6026957 19.0266661,29.6026957 18.2839995,29.6064753 C18.2839995,29.6064753 18.7186664,29.8279556 18.7639995,30.0864753 L18.7639995,34.2051398 C17.9426663,34.1938012 14.7986663,34.1938012 13.9799995,34.2051398 L13.9799995,30.0864753 C14.0186678,29.8279556 14.4546662,29.6064753 14.4546662,29.6064753 C13.7146664,29.6026957 11.9999997,29.6026957 11.4999997,29.6064753 C11.4999997,29.6064753 11.9546664,29.8491209 11.9733331,30.0864753 L11.9733331,40.3878043 C11.954666,40.6236468 11.4999997,40.8624751 11.4999997,40.8624751 C11.9999997,40.8700342 13.7146664,40.8700342 14.4546662,40.8624751 C14.4546662,40.8624751 14.0186663,40.6436405 13.9799995,40.3878043 L13.9799995,34.7518106 C15.1439998,34.7366925 17.5973331,34.7366925 18.7639995,34.7518106" id="path88"></path>
                <path d="M80.2706644,34.478513 L80.2706644,30.0865131 C80.3120125,29.8279934 80.7479961,29.6065131 80.7479961,29.6065131 C80.0106632,29.6027335 78.2919986,29.6027335 77.7919974,29.6065131 C77.7919974,29.6065131 78.2439986,29.8491587 78.2653303,30.0865131 L78.2653303,40.3878421 C78.2441649,40.6236846 77.7919974,40.8625129 77.7919974,40.8625129 C78.2919986,40.870072 80.0106632,40.870072 80.7479961,40.8625129 C80.7479961,40.8625129 80.3119974,40.6436783 80.2706644,40.3878421" id="path92"></path>
                <path d="M94.5373301,40.8625129 C94.5373301,40.8625129 94.9946643,40.6240248 95.0133314,40.3878421 L95.0133314,30.0865131 C94.9948117,29.8491587 94.5373301,29.6065131 94.5373301,29.6065131 C95.034663,29.6027335 96.7493288,29.6027335 97.4906643,29.6065131 C97.4906643,29.6065131 97.0586643,29.8279934 97.0119984,30.0865131 L97.0119984,40.3438484 L97.0278724,40.3438484 C97.9398724,40.3816437 99.3692066,40.2436909 100.263874,40.2572972 C100.53188,40.2648563 101.009204,40.1718799 101.169207,39.9798799 C101.159758,40.2145885 101.087871,40.6118925 100.954529,40.8625507 C100.954529,40.8625507 95.0345307,40.8701098 94.5371978,40.8625507" id="path96"></path>
                <path d="M45.6506663,37.087861 C45.359998,36.743924 39.3439997,29.6011839 39.3439997,29.6011839 C39.3439997,29.6011839 37.7226667,29.5974044 37.2879998,29.6011839 C37.2879998,29.6011839 37.704,29.7039871 37.9839998,30.2852028 C37.9839998,30.2852028 37.9759872,39.8945381 37.9759872,40.3878421 C37.9359885,40.6437161 37.5013205,40.8625129 37.5013205,40.8625129 C38.2413203,40.870072 38.4573203,40.870072 38.9546536,40.8625129 C38.9546536,40.8625129 38.4986536,40.6240248 38.4773204,40.3878421 C38.4773204,39.7838736 38.4893015,31.7825382 38.4893015,31.7825382 C38.4893015,31.7825382 38.3986344,31.2012091 38.8493015,31.7825382 C39.3813014,32.4531776 46.8106347,41.2731964 46.8106347,41.2731964 C46.8106347,41.2731964 46.8226536,30.6998548 46.8226536,30.0998548 C46.8426473,29.8651461 47.2973199,29.6198548 47.2973199,29.6198548 C46.7986536,29.6160753 46.0346535,29.6160753 45.2986536,29.6198548 C45.2986536,29.6198548 45.7279868,29.8413351 45.7746534,30.0998548 C45.7746534,30.5918737 45.7773202,37.087861 45.7773202,37.087861" id="path100"></path>
                <path d="M27.1613326,36.7318295 L30.5173323,36.7318295 L28.830666,32.4411587 L27.1613326,36.7318295 Z M29.5213327,29.2491587 C29.5213327,29.2491587 33.7626656,39.9811649 33.9866657,40.3558295 C34.2186644,40.7224436 34.5853323,40.8704877 34.5853323,40.8704877 C34.1746658,40.8742673 32.0986659,40.8704877 31.6933323,40.8704877 C31.6799906,40.836472 32.0639981,40.6769759 31.9399994,40.3585129 C31.6466665,39.590513 31.0066662,38.0958232 30.7159994,37.2825067 L26.9626659,37.2825067 C26.693333,38.0318358 25.9973326,39.9998358 25.878666,40.370494 C25.7679977,40.746557 26.0439977,40.8011712 26.1733331,40.8704877 C25.8680002,40.8742673 24.6719997,40.8718106 24.3359997,40.8704877 C24.3359997,40.8704877 24.7719996,40.7132594 24.8266663,40.370494 C24.8853321,40.026557 29.1733331,29.2491587 29.1733331,29.2491587 L29.5213327,29.2491587 Z" id="path104" fill-rule="nonzero"></path>
                <path d="M106.428,36.7318295 L109.784001,36.7318295 L108.101332,32.4411587 L106.428,36.7318295 Z M108.788001,29.2491587 C108.788001,29.2491587 113.022667,39.9811649 113.258668,40.3558295 C113.486649,40.7224436 113.852001,40.8704877 113.852001,40.8704877 C113.438668,40.8742673 111.368001,40.8704877 110.958667,40.8704877 C110.946572,40.836472 111.325319,40.6769759 111.205319,40.3585129 C110.913312,39.590513 110.274652,38.0958232 109.97865,37.2825067 L106.227983,37.2825067 C105.957331,38.0318358 105.263984,39.9998358 105.146653,40.370494 C105.029336,40.746557 105.309324,40.8011712 105.437336,40.8704877 C105.133349,40.8742673 103.898672,40.8742673 103.608003,40.8704877 C103.608003,40.8704877 104.038669,40.7132594 104.093336,40.370494 C104.154678,40.026557 108.434672,29.2491587 108.434672,29.2491587 L108.788001,29.2491587 Z" id="path108" fill-rule="nonzero"></path>
                <path d="M59.6653305,39.9251901 C58.9026634,40.3705318 57.9386647,40.4852027 57.0359964,40.4852027 C55.0306622,40.4852027 52.8986647,38.4598673 52.8986647,35.198513 C52.8986647,31.8718485 54.6999989,30.0252091 56.8706647,30.0252091 C58.3293318,30.0252091 60.0506647,30.8758674 60.8159963,32.3411902 C60.8159963,32.3411902 60.8159963,31.0851776 60.8054136,30.5305319 C59.9867453,30.1865949 58.9027466,29.5172028 56.932082,29.5172028 C53.6107466,29.5172028 50.9187479,31.4251839 50.9187479,35.2798484 C50.9187479,38.6198547 53.2627466,40.9931712 56.6174137,40.9931712 C58.180082,40.9931712 59.5707478,40.8370767 60.8294136,40.3505381 C60.8294136,40.3505381 60.832082,37.3305067 60.832082,36.7305067 C60.8532473,36.4946642 61.3067453,36.2558736 61.3067453,36.2558736 C60.8067478,36.2483146 59.9267453,36.2483146 59.1867478,36.2558736 C59.1867478,36.2558736 59.6214124,36.4747083 59.6654136,36.7305067" id="path112"></path>
                <path d="M67.956,35.1731902 C68.2946835,35.1996469 68.9480013,35.2691902 69.576,35.0904185 C70.7586671,34.7570642 71.2093341,33.851754 71.2093341,32.5637288 C71.2093341,31.4250705 70.6173316,30.3223934 69.5013316,30.1050705 C68.6626658,29.941039 68.5213342,29.9705194 67.956,30.0899524 L67.956,35.1731902 Z M67.9586684,40.3878421 C67.9813455,40.6251964 68.436,40.8638736 68.436,40.8638736 C67.9346684,40.8676531 67.0239988,40.852535 66.7839988,40.8676531 C66.5453216,40.852535 65.9600013,40.8676531 65.465333,40.8638736 C65.465333,40.8638736 65.9173342,40.6253854 65.9360013,40.3878421 L65.9360013,30.0878737 C65.9174816,29.8505194 65.465333,29.6065131 65.465333,29.6065131 C66.0800013,29.6027335 68.6000013,29.6065131 68.6000013,29.6065131 C70.908,29.6065131 72.66,30.7025382 72.66,32.3678737 C72.66,34.2811839 70.8519987,35.1531965 70.3906658,35.3545319 C70.8693316,35.6425319 71.4386683,36.3411776 71.6600012,36.6505319 C72.2773341,37.526513 72.7533316,38.4345067 73.0400012,38.9171901 C74.0426683,40.5731901 74.5933341,40.7225192 74.5933341,40.7225192 C73.9226683,40.9413539 73.2733341,41.0025822 72.8746658,40.9050704 C71.5266671,40.5906137 70.2466658,36.1250642 69.2866658,35.7997602 C68.9933367,35.6996028 67.956,35.7132091 67.956,35.7132091 L67.9586684,40.3878421 Z" id="path116" fill-rule="nonzero"></path>
                <polyline id="path120" points="15.4693325 54.7038608 15.4693325 56.9211962 15.9173324 56.9211962 15.9173324 57.0704876 14.3239992 57.0704876 14.3239992 56.9211962 14.7346657 56.9211962 14.7346657 52.5158545 14.3239992 52.5158545 14.3239992 52.3665632 15.9173324 52.3665632 15.9173324 52.5158545 15.4693325 52.5158545 15.4693325 54.5545317 17.2693325 54.5545317 17.2693325 52.5158545 16.8226656 52.5158545 16.8226656 52.3665632 18.4133323 52.3665632 18.4133323 52.5158545 18.0039989 52.5158545 18.0039989 56.9211962 18.4133323 56.9211962 18.4133323 57.0704876 16.8226656 57.0704876 16.8226656 56.9211962 17.2693325 56.9211962 17.2693325 54.7038608"></polyline>
                <path d="M26.8479984,56.9211962 L27.3586651,56.9211962 L27.3586651,52.5158545 L26.9159986,52.5158545 C26.6093315,52.5158545 26.5333316,52.5850199 26.2559986,53.8612152 L26.1026631,53.8612152 L26.1026631,52.3665254 L29.3426631,52.3665254 L29.3426631,53.8612152 L29.1946663,53.8612152 C28.9146675,52.5852089 28.8399992,52.5158545 28.5346663,52.5158545 L28.0919986,52.5158545 L28.0919986,56.9211962 L28.5999984,56.9211962 L28.5999984,57.0704876 L26.8479984,57.0704876" id="path124"></path>
                <path d="M31.4013313,57.0705254 L31.4013313,56.921234 L31.8093313,56.921234 L31.8093313,52.5158923 L31.4013313,52.5158923 L31.4013313,52.366601 L34.8586647,52.366601 L34.8586647,53.8745947 L34.7066634,53.8745947 C34.3399963,52.6039175 34.2306633,52.5159301 33.8919969,52.5159301 L32.5439978,52.5159301 L32.5439978,54.5532844 L33.0746646,54.5532844 C33.4173317,54.5532844 33.579998,54.3427648 33.7173313,53.6159238 L33.8626655,53.6159238 L33.8626655,55.6412592 L33.7173313,55.6412592 C33.5799984,54.9159301 33.4173313,54.7039364 33.0746646,54.7039364 L32.5439978,54.7039364 L32.5439978,56.9212718 L33.7439977,56.9212718 C34.2266646,56.9212718 34.3679977,56.7345632 34.7666646,55.3279364 L34.9213304,55.3279364 L34.9213304,57.0706009" id="path128"></path>
                <path d="M38.417331,56.9211962 L39.425331,56.9211962 C39.8719974,56.9211962 40.001331,56.8384246 40.4106644,55.182538 L40.5599973,55.182538 L40.5599973,57.0705254 L37.2746645,57.0705254 L37.2746645,56.921234 L37.6826642,56.921234 L37.6826642,52.5158923 L37.2746645,52.5158923 L37.2746645,52.366601 L39.0999976,52.366601 L39.0999976,52.5158923 L38.417331,52.5158923" id="path132"></path>
                <path d="M42.7173297,55.3065065 C43.0039955,56.5651647 43.262663,57.0278545 43.9213295,57.0278545 C44.5399962,57.0278545 45.0319962,56.623823 45.0319962,56.0358419 C45.0319962,54.6878356 42.5026631,55.2158356 42.5026631,53.6038293 C42.5026631,52.7998482 43.1279965,52.255823 44.0519961,52.255823 C44.5653297,52.255823 44.9826628,52.3729884 45.3333296,52.5290829 L45.3333296,53.8891081 L45.1813284,53.8891081 C45.1813284,53.8891081 45.1106626,53.6358797 44.9359955,53.1024372 C44.7666613,52.5610955 44.4346623,52.4051144 43.9906623,52.4051144 C43.3946622,52.4051144 42.9639956,52.8064246 42.9639956,53.3037726 C42.9639956,53.8117789 43.3226614,53.9477663 44.2453288,54.2971081 C45.2493289,54.6743049 45.6066621,54.9357726 45.6066621,55.6797726 C45.6066621,56.5397663 44.8826622,57.177108 43.8359954,57.177108 C43.4399957,57.177108 42.8666622,57.0009821 42.5733289,56.7999112 L42.5733289,55.3065821" id="path136"></path>
                <path d="M53.5106647,54.3651396 L54.2586635,54.3651396 L54.1826572,54.7291081 L54.1958855,54.7291081 C54.3718981,54.4996907 54.6652197,54.2784372 55.0412184,54.2784372 C55.4585501,54.2784372 55.7145526,54.4825317 55.5918842,55.0611018 L55.187883,56.9530954 L55.4745601,56.9530954 L55.451883,57.0702608 L54.3545501,57.0702608 L54.3798729,56.9530954 L54.6865438,56.9530954 L55.1038754,54.9971144 C55.1852109,54.6064246 55.0959384,54.4730829 54.8425589,54.4730829 C54.5505526,54.4730829 54.225226,54.7289569 54.1078906,55.2824309 L53.750574,56.9530954 L54.062574,56.9530954 L54.0330937,57.0702608 L52.937095,57.0702608 L52.9639296,56.9530954 L53.2492462,56.9530954 L53.7772461,54.4824183 L53.490569,54.4824183" id="path140"></path>
                <path d="M57.6879989,57.0411962 C58.046676,57.0411962 58.3293318,56.6278671 58.5120001,55.7718797 C58.7199875,54.8145254 58.5799938,54.4305254 58.2320127,54.4305254 C57.9146836,54.4305254 57.6466811,54.6879112 57.4186811,55.7718797 C57.2066874,56.7385317 57.3466811,57.0411962 57.6880102,57.0411962 M58.2360115,57.0714324 L58.3066886,56.7460151 L58.2945941,56.7460151 C58.1479107,56.9875269 57.9265815,57.1566986 57.5585954,57.1566986 C57.0559258,57.1566986 56.6772587,56.6486923 56.8745954,55.7207049 C57.0692789,54.7993695 57.63326,54.2793443 58.1772587,54.2793443 C58.4439422,54.2793443 58.635927,54.4312813 58.6972612,54.6887049 L58.7104896,54.6887049 L58.9611478,53.5046923 L58.7078061,53.5046923 L58.7289714,53.387527 L59.488974,53.387527 L58.7276411,56.9555143 L58.9849891,56.9555143 L58.9581544,57.0715458" id="path144" fill-rule="nonzero"></path>
                <path d="M51.2173344,55.5678608 C50.554666,55.8505695 50.1026686,55.6491206 49.9360027,56.4145128 C49.8520216,56.8185443 49.9692626,56.9638671 50.252009,56.9638671 C50.6533419,56.956308 51.0040103,56.5598734 51.1293432,55.9785443 L51.2173344,55.5678608 Z M49.9560002,55.3357978 L50.1386648,54.4744435 C50.4386837,54.3599238 50.7093319,54.278286 50.9959977,54.278286 C51.6599964,54.278286 51.8826635,54.6369632 51.8093293,54.9623049 L51.3879989,56.9543049 L51.6426635,56.9543049 L51.6173407,57.0714702 L50.8946761,57.0714702 L50.9960052,56.604812 L50.9854226,56.604812 C50.7880934,56.9302293 50.434753,57.1554891 50.0547555,57.1554891 C49.5787542,57.1554891 49.3094213,56.8780718 49.4080897,56.4141348 C49.6054188,55.4835018 50.64542,55.7567994 51.24542,55.4301348 L51.3627744,54.8728057 C51.43742,54.5394514 51.2841224,54.4021411 50.9987681,54.4021411 C50.6307555,54.4021411 50.4881048,54.587338 50.0747681,55.3354955 L49.9560002,55.3357978 Z" id="path148" fill-rule="nonzero"></path>
                <path d="M22.4013325,57.0278545 C23.1533327,57.0278545 23.5173325,56.4998545 23.5173325,54.7211711 C23.5173325,52.9371963 23.1533338,52.40519 22.4013325,52.40519 C21.646666,52.40519 21.2893324,52.9371963 21.2893324,54.7211711 C21.2893324,56.4998545 21.6466679,57.0278545 22.4013325,57.0278545 M22.4013325,52.2558608 C23.4266658,52.2558608 24.3586659,53.2225128 24.3586659,54.7211711 C24.3586659,56.214538 23.4266658,57.1771836 22.4013325,57.1771836 C21.3746658,57.1771836 20.4426661,56.214538 20.4426661,54.7211711 C20.4426661,53.2225128 21.3746658,52.2558608 22.4013325,52.2558608" id="path152" fill-rule="nonzero"></path>
                <path d="M64.5879988,54.5704813 L64.9866671,54.5704813 C65.7973304,54.5704813 66.1893317,54.1731396 66.1893317,53.4984939 C66.1893317,53.023823 65.9493317,52.5158167 65.2066659,52.5158167 L64.5879988,52.5158167 L64.5879988,54.5704813 Z M63.4386671,57.0705254 L63.4386671,56.9211962 L63.8533304,56.9211962 L63.8533304,52.5158545 L63.4386671,52.5158545 L63.4386671,52.3665632 L65.424,52.3665632 C66.5666646,52.3665632 66.9653329,52.9132341 66.9653329,53.4985695 C66.9653329,54.1598734 66.4493329,54.6158734 65.4693317,54.6745695 L67.0893317,56.921234 L67.4213254,56.921234 L67.4213254,57.0705254 L66.3399912,57.0705254 L64.6146596,54.6745317 L64.5878249,54.6745317 L64.5878249,56.9211962 L65.1038249,56.9211962 L65.1038249,57.0704876 L63.4386671,57.0705254 Z" id="path156" fill-rule="nonzero"></path>
                <path d="M75.270667,55.3065065 C75.5533379,56.5651647 75.8133354,57.0278545 76.4733353,57.0278545 C77.0919986,57.0278545 77.5773353,56.623823 77.5773353,56.0358419 C77.5773353,54.6878356 75.054667,55.2158356 75.054667,53.6038293 C75.054667,52.7998482 75.6759987,52.255823 76.6040012,52.255823 C77.1146683,52.255823 77.5319999,52.3729884 77.8799999,52.5290829 L77.8799999,53.8891081 L77.7319936,53.8891081 L77.4853416,53.1024372 C77.3160188,52.5610955 76.9826758,52.4051144 76.5413404,52.4051144 C75.9466733,52.4051144 75.5186758,52.8064246 75.5186758,53.3037726 C75.5186758,53.8117789 75.8759924,53.9477663 76.7946746,54.2971081 C77.8013404,54.6743049 78.1546733,54.9357726 78.1546733,55.6797726 C78.1546733,56.5397663 77.4346733,57.177108 76.3826758,57.177108 C75.9920087,57.177108 75.4200075,57.0009821 75.1213417,56.7999112 L75.1213417,55.3065821" id="path160"></path>
                <path d="M82.1079986,57.0411962 C82.8653328,57.0411962 83.2239986,56.5131962 83.2239986,54.7358734 C83.2239986,52.950538 82.8653214,52.422538 82.1079986,52.422538 C81.3533328,52.422538 80.9906644,52.950538 80.9906644,54.7358734 C80.9906644,56.5131962 81.3533479,57.0411962 82.1079986,57.0411962 M82.1079986,52.2732089 C83.1306669,52.2732089 84.0666669,53.238538 84.0666669,54.7358734 C84.0666669,56.2318482 83.1306669,57.1945317 82.1079986,57.1945317 C81.0799973,57.1945317 80.1479999,56.2318482 80.1479999,54.7358734 C80.1479999,53.238538 81.0799973,52.2732089 82.1079986,52.2732089" id="path164" fill-rule="nonzero"></path>
                <path d="M87.1186656,54.5704813 L87.5186644,54.5704813 C88.3293314,54.5704813 88.7266656,54.1731396 88.7266656,53.4984939 C88.7266656,53.023823 88.4853428,52.5158167 87.7373327,52.5158167 L87.1186656,52.5158167 L87.1186656,54.5704813 Z M85.9759973,57.0705254 L85.9759973,56.9211962 L86.3839973,56.9211962 L86.3839973,52.5158545 L85.9759973,52.5158545 L85.9759973,52.3665632 L87.9586656,52.3665632 C89.0973314,52.3665632 89.5039973,52.9132341 89.5039973,53.4985695 C89.5039973,54.1598734 88.9826643,54.6158734 88.0039973,54.6745695 L89.6213327,56.921234 L89.9560098,56.921234 L89.9560098,57.0705254 L88.8746757,57.0705254 L87.1466757,54.6745317 L87.1187072,54.6745317 L87.1187072,56.9211962 L87.6400401,56.9211962 L87.6400401,57.0704876 L85.9759973,57.0705254 Z" id="path168" fill-rule="nonzero"></path>
                <path d="M92.2839985,56.9211962 L92.7919972,56.9211962 L92.7919972,52.5158545 L92.3519997,52.5158545 C92.0453289,52.5158545 91.9719985,52.5850199 91.6919997,53.8612152 L91.5439935,53.8612152 L91.5439935,52.3665254 L94.7799947,52.3665254 L94.7799947,53.8612152 L94.6306655,53.8612152 C94.3506781,52.5852089 94.2786781,52.5158545 93.9693314,52.5158545 L93.5306643,52.5158545 L93.5306643,56.9211962 L94.0386668,56.9211962 L94.0386668,57.0704876 L92.2839985,57.0704876" id="path172"></path>
                <path d="M97.0786655,55.3065065 C97.3666655,56.5651647 97.6253326,57.0278545 98.2839984,57.0278545 C98.9066642,57.0278545 99.3919971,56.623823 99.3919971,56.0358419 C99.3919971,54.6878356 96.8693326,55.2158356 96.8693326,53.6038293 C96.8693326,52.7998482 97.4906643,52.255823 98.4186668,52.255823 C98.9266655,52.255823 99.3506642,52.3729884 99.6959997,52.5290829 L99.6959997,53.8891081 L99.5413414,53.8891081 L99.2986579,53.1024372 C99.1306579,52.5610955 98.7959921,52.4051144 98.3559909,52.4051144 C97.757325,52.4051144 97.3279896,52.8064246 97.3279896,53.3037726 C97.3279896,53.8117789 97.6866668,53.9477663 98.6053263,54.2971081 C99.6159908,54.6743049 99.965325,54.9357726 99.965325,55.6797726 C99.965325,56.5397663 99.2479896,57.177108 98.1999909,57.177108 C97.8026567,57.177108 97.229325,57.0009821 96.934658,56.7999112 L96.934658,55.3065821" id="path176"></path>
                <path d="M69.12,57.0705254 L69.12,56.921234 L69.528,56.921234 L69.528,52.5158923 L69.12,52.5158923 L69.12,52.366601 L72.5773341,52.366601 L72.5773341,53.8745947 L72.421353,53.8745947 C72.0600302,52.6039175 71.9520189,52.5159301 71.6066872,52.5159301 L70.2640176,52.5159301 L70.2640176,54.5532844 L70.7933518,54.5532844 C71.1320353,54.5532844 71.2946872,54.3427648 71.430686,53.6159238 L71.5826986,53.6159238 L71.5826986,55.6412592 L71.430686,55.6412592 C71.2946986,54.9159301 71.1320277,54.7039364 70.7933518,54.7039364 L70.2640176,54.7039364 L70.2640176,56.9212718 L71.4626872,56.9212718 C71.9400189,56.9212718 72.0866872,56.7345632 72.4866859,55.3279364 L72.6373379,55.3279364 L72.6373379,57.0706009" id="path180"></path>
                <polygon id="path182" points="0.499999743 46.8425192 114.252 46.8425192 114.252 46.4358798 0.499999743 46.4358798"></polygon>
                <path d="M63.5853317,12.699855 C61.7239976,13.395855 59.1240001,14.5825132 57.6013305,16.6118549 C57.4253179,16.8412723 57.161333,16.8624376 56.9439989,16.5891778 C56.513333,16.0705132 54.3093318,13.7825384 51.1999977,13.7825384 C50.4293331,13.7825384 49.2666673,13.9771841 48.4986673,14.2171841 L48.4986673,21.8478612 C48.9786673,21.497121 50.0413306,21.1251777 51.0693318,21.1251777 C52.6453306,21.1251777 55.6813305,22.4838423 56.789333,23.4958486 C57.1986634,23.8677541 57.5173305,23.8450769 57.8746659,23.4958486 C59.5080001,21.9051966 62.4146646,20.5078675 66.1186659,20.5145195 L66.1186659,11.2038424 L51.0373306,11.2038424 C52.8973306,10.5131715 55.5000001,9.31853848 57.0213318,7.2905196 C57.1986672,7.06110228 57.454666,7.04371646 57.6799976,7.30941724 C58.1119976,7.82944243 60.3120001,10.1187778 63.4186659,10.1187778 C64.1919988,10.1187778 65.3546646,9.92413217 66.1226646,9.68541722 L66.1226646,2.42010706 C65.6439988,2.77198107 64.5799975,3.13874642 63.5493317,3.13874642 C61.9719988,3.13874642 58.9386634,1.78276533 57.8319989,0.772081881 C57.4213305,0.394885035 57.0973305,0.423987397 56.7480001,0.772081881 C55.1119976,2.361411 52.2026647,3.75477161 48.5026661,3.74944248 L48.5026661,12.6987589" id="path186"></path>
            </g>
        </g>
    </g>
</svg>