<?xml version="1.0" encoding="UTF-8"?>
<svg width="160px" height="45px" viewBox="0 0 160 45" version="1.1" xmlns="http://www.w3.org/2000/svg" xmlns:xlink="http://www.w3.org/1999/xlink">
    <!-- Generator: Sketch 52.2 (67145) - http://www.bohemiancoding.com/sketch -->
    <title>logo-directv-light</title>
    <desc>Created with Sketch.</desc>
    <g id="Client-Logos" stroke="none" stroke-width="1" fill="none" fill-rule="evenodd">
        <g id="Artboard" transform="translate(-611.000000, -715.000000)" fill="#D7DBDF">
            <g id="logo-directv-light" transform="translate(611.000000, 715.000000)">
                <path d="M8.70252904,40.271007 C12.5173231,43.225039 17.3051935,45 22.4999196,45 C28.1848021,45 33.3671456,42.8886442 37.322329,39.4227002 C37.3704119,39.3802285 37.3466117,39.3522358 37.2993328,39.3802285 C35.5246061,40.5660563 30.4659274,43.1545746 22.5000804,43.1545746 C15.5774241,43.1545746 11.2025201,41.6093466 8.73195773,40.2298224 C8.68467886,40.2063343 8.66698948,40.2418882 8.70252904,40.271007 M24.0271559,41.42112 C29.5640909,41.42112 35.6485925,39.9111241 39.2874577,36.9221818 C40.2832087,36.1076592 41.2318416,35.0238277 42.081414,33.5672432 C42.5704448,32.7290716 43.048862,31.733401 43.4383498,30.7546225 C43.4555568,30.7068419 43.4261281,30.6836756 43.3901061,30.7374087 C40.0062896,35.719301 30.2068585,38.8266492 20.0888578,38.8266492 C12.9367221,38.8266492 5.24136169,36.538489 2.22853957,32.1698616 C2.19862845,32.1294813 2.16919976,32.1466952 2.18721076,32.1931888 C4.99371044,38.1609382 13.5085713,41.42112 24.0271559,41.42112 M17.9775506,31.5208819 C6.46192853,31.5208819 1.03193379,26.1552968 0.0469572489,22.4937258 C0.0348963117,22.4406362 0,22.4523803 0,22.5 C0,23.7326431 0.123343185,25.3233994 0.33561568,26.3792382 C0.43676674,26.8930808 0.85487923,27.6997204 1.46789647,28.3425868 C4.25638515,31.250286 11.2083094,35.3246686 23.2481801,35.3246686 C39.6520196,35.3246686 43.4026495,29.8582133 44.1685994,28.0605686 C44.7161659,26.7749968 45,24.4516045 45,22.5 C45,22.0276638 44.9882607,21.650567 44.9702497,21.2800662 C44.9702497,21.219898 44.9353534,21.2150717 44.9234533,21.2736311 C44.103792,25.6725035 30.0886613,31.5208819 17.9775506,31.5208819 M2.16919976,12.8475132 C1.50922528,14.1575384 0.777850044,16.3676729 0.560431549,17.5116726 C0.464908927,18.0017053 0.505594488,18.237069 0.677663859,18.6029044 C2.0577567,21.5324829 9.03927041,26.2199695 25.3244303,26.2199695 C35.2594263,26.2199695 42.9773004,23.7781714 44.2277784,19.3223484 C44.4580619,18.5020342 44.4702836,17.6360308 44.1745495,16.4690257 C43.8440798,15.164953 43.2251125,13.6443393 42.7013462,12.5764347 C42.6841392,12.5416851 42.6535849,12.5468332 42.6596957,12.5880178 C42.8542789,18.4323743 26.5628473,22.1989983 18.3427558,22.1989983 C9.43905028,22.1989983 2.01079945,18.6500415 2.01079945,14.1689607 C2.01079945,13.7384526 2.09988958,13.3076227 2.21101101,12.859579 C2.22210707,12.8183944 2.18704995,12.8114766 2.16919976,12.8475132 M37.3586726,5.67189578 C37.4533912,5.82006392 37.5005092,5.97820647 37.5005092,6.19120823 C37.5005092,8.69124398 29.8522669,13.1137654 17.6774745,13.1137654 C8.73179692,13.1137654 7.05693477,9.7938981 7.05693477,7.68254229 C7.05693477,6.92786612 7.34623645,6.15565431 7.98353637,5.37137668 C8.01843269,5.32472222 7.98884319,5.30686482 7.94864006,5.34145347 C6.78644815,6.32666705 5.71865318,7.43527363 4.7820812,8.63204107 C4.33454002,9.19800798 4.05665603,9.69930215 4.05665603,9.99982125 C4.05665603,14.3750447 15.0231034,17.5475482 25.2771514,17.5475482 C36.2029132,17.5475482 41.0793913,13.979447 41.0793913,10.8436235 C41.0793913,9.72295114 40.6432679,9.06882338 39.5278724,7.80030459 C38.8037337,6.97532497 38.1188333,6.30333982 37.3937297,5.64213345 C37.3586726,5.61301463 37.3343899,5.63650274 37.3586726,5.67189578 M34.0091091,3.17234266 C30.6370319,1.15043473 26.7215692,0 22.5000804,0 C18.2491629,0 14.215503,1.19049321 10.8313649,3.26597334 C9.81615558,3.89098228 9.24494959,4.39179382 9.24494959,5.03562542 C9.24494959,6.93349683 13.6785501,8.97390568 21.5442109,8.97390568 C29.328179,8.97390568 35.3655625,6.7388351 35.3655625,4.58725994 C35.3657234,4.07406083 34.9172173,3.71482146 34.0091091,3.17234266" id="path7" fill-rule="nonzero"></path>
                <path d="M57.7629094,15.4791951 L60.6049794,15.4791951 C61.9034953,15.4791951 62.7689131,15.9018361 63.420584,16.7162602 C64.1230062,17.6184114 64.2310472,18.8805183 64.2310472,21.9146155 C64.2310472,24.9461278 64.1230062,26.3790037 63.420584,27.2785699 C62.7689131,28.0921861 61.9034953,28.5154734 60.6049794,28.5154734 L57.7629094,28.5154734 L57.7629094,15.4791951 Z M54,12 L54,32 L60.9574359,32 C62.9582183,32 64.7721863,31.4082056 66.0454823,30.085029 C68.2087932,27.8409603 67.9941123,24.9199551 67.9941123,21.9146155 C67.9941123,18.91073 68.2087932,16.1546776 66.0454823,13.9091548 C64.7721863,12.5885632 62.9582183,12 60.9574359,12 L54,12 Z" id="path9" fill-rule="nonzero"></path>
                <rect id="rect11" x="72" y="12" width="4" height="20"></rect>
                <path d="M83.8668909,15.4817114 L87.5122537,15.4817114 C89.2107961,15.4817114 90.3254845,16.5787066 90.3254845,18.1218058 C90.3254845,19.6658747 89.2109563,20.7635165 87.5122537,20.7635165 L83.8668909,20.7635165 L83.8668909,15.4817114 Z M80,12 L80,32 L83.8670511,32 L83.8670511,24.0200747 L86.6519302,24.0200747 L90.519622,32 L95,32 L90.5755246,23.3746788 C92.4954349,22.6736815 94.1925356,20.9329066 94.1925356,18.1219674 C94.1925356,14.7800676 91.800897,12.0001616 87.7672593,12.0001616 L80,12 Z" id="path13" fill-rule="nonzero"></path>
                <polygon id="polygon15" points="97 12 97 32 110 32 110 28.5139246 100.851976 28.5139246 100.851976 23.6557565 108.643679 23.6557565 108.643679 20.1742068 100.851976 20.1742068 100.851976 15.4817114 110 15.4817114 110 12"></polygon>
                <path d="M114.003613,14.1578696 C113.114564,15.0103339 112.571943,15.9788553 112.342968,17.1104928 C112.114158,18.2141494 112,19.8426073 112,21.9995231 C112,24.1558029 112.114158,25.7841017 112.342968,26.8901431 C112.571943,27.9937997 113.114564,28.9887122 114.003613,29.8462639 C115.491127,31.2826709 117.323256,32 119.497859,32 C123.39208,32 126.312252,29.7903021 127,25.7841017 L122.960157,25.7841017 C122.53087,27.4693164 121.446946,28.5737679 119.527675,28.5737679 C118.440456,28.5737679 117.580235,28.2410175 116.979464,27.5532591 C116.152353,26.6958665 115.979222,25.8138315 115.979222,21.9995231 C115.979222,18.1863275 116.152518,17.3041335 116.979464,16.4467409 C117.58007,15.754213 118.440456,15.4246423 119.527675,15.4246423 C121.446946,15.4246423 122.530706,16.5298887 122.960157,18.2141494 L126.999835,18.2141494 C126.312087,14.2096979 123.419919,12 119.497694,12 C117.323256,12.000159 115.491127,12.7166932 114.003613,14.1578696" id="path17"></path>
                <polygon id="polygon19" points="128 12 128 15.4817114 133.096886 15.4817114 133.096886 32 136.90406 32 136.90406 15.4817114 142 15.4817114 142 12"></polygon>
                <polygon id="polygon21" points="155.966767 12 151.985105 25.0307585 148.003443 12 144 12 150.538087 32 153.433725 32 160 12"></polygon>
            </g>
        </g>
    </g>
</svg>