<?xml version="1.0" encoding="UTF-8"?>
<svg width="111px" height="84px" viewBox="0 0 111 84" version="1.1" xmlns="http://www.w3.org/2000/svg" xmlns:xlink="http://www.w3.org/1999/xlink">
    <!-- Generator: Sketch 52.2 (67145) - http://www.bohemiancoding.com/sketch -->
    <title>logo-nashville-light</title>
    <desc>Created with Sketch.</desc>
    <g id="Client-Logos" stroke="none" stroke-width="1" fill="none" fill-rule="evenodd">
        <g id="Artboard" transform="translate(-805.000000, -1129.000000)" fill="#122639">
            <path d="M825,1210 L891.729768,1198.37978 C894.870141,1197.82958 897.930424,1195.60538 898.558499,1193.39392 L913,1143 C885.752521,1176.21427 835.137715,1204.52342 825,1210 Z M808.763372,1204.24988 L805.116757,1209.87257 C804.479812,1212.07875 806.512974,1213.42709 809.653407,1212.87714 L815.466057,1211.86854 C824.166048,1207.63241 839.269235,1198.70787 839.269235,1198.70787 L842.979122,1190.87475 C880.76556,1168.4031 909.723351,1141.44476 914.631201,1136.77122 L916,1132 C883.115085,1167.92534 814.890275,1201.29626 808.763372,1204.24988 Z M851.067237,1172.64657 C895.142715,1146.82523 911.292557,1131.89812 914,1129.25639 C913.214104,1128.98152 912.183801,1128.91437 910.993369,1129.12 L910.970193,1129.1221 C888.674351,1150.12161 829.746917,1180.57385 820.252959,1185.41666 L812,1198 C832.33637,1188.1591 848.441966,1178.35807 848.441966,1178.35807 L851.067237,1172.64657 Z M859.010419,1156.80806 C883.644958,1144.83349 899.089552,1134.4605 904,1131 L849.636886,1146.00117 C846.496901,1146.54779 843.434992,1148.77893 842.799821,1150.9888 L824,1180 C835.931102,1174.45724 855.777584,1163.44192 855.777584,1163.44192 L859.010419,1156.80806 Z" id="logo-nashville-light"></path>
        </g>
    </g>
</svg>