<?xml version="1.0" encoding="UTF-8"?>
<svg width="111px" height="84px" viewBox="0 0 111 84" version="1.1" xmlns="http://www.w3.org/2000/svg" xmlns:xlink="http://www.w3.org/1999/xlink">
    <!-- Generator: Sketch 52.2 (67145) - http://www.bohemiancoding.com/sketch -->
    <title>logo-nashville</title>
    <desc>Created with Sketch.</desc>
    <g id="Client-Logos" stroke="none" stroke-width="1" fill="none" fill-rule="evenodd">
        <g id="Artboard" transform="translate(-625.000000, -1129.000000)" fill="#D7DBDF">
            <path d="M645,1210 L711.729768,1198.37978 C714.870141,1197.82958 717.930424,1195.60538 718.558499,1193.39392 L733,1143 C705.752521,1176.21427 655.137715,1204.52342 645,1210 Z M628.763372,1204.24988 L625.116757,1209.87257 C624.479812,1212.07875 626.512974,1213.42709 629.653407,1212.87714 L635.466057,1211.86854 C644.166048,1207.63241 659.269235,1198.70787 659.269235,1198.70787 L662.979122,1190.87475 C700.76556,1168.4031 729.723351,1141.44476 734.631201,1136.77122 L736,1132 C703.115085,1167.92534 634.890275,1201.29626 628.763372,1204.24988 Z M671.067237,1172.64657 C715.142715,1146.82523 731.292557,1131.89812 734,1129.25639 C733.214104,1128.98152 732.183801,1128.91437 730.993369,1129.12 L730.970193,1129.1221 C708.674351,1150.12161 649.746917,1180.57385 640.252959,1185.41666 L632,1198 C652.33637,1188.1591 668.441966,1178.35807 668.441966,1178.35807 L671.067237,1172.64657 Z M679.010419,1156.80806 C703.644958,1144.83349 719.089552,1134.4605 724,1131 L669.636886,1146.00117 C666.496901,1146.54779 663.434992,1148.77893 662.799821,1150.9888 L644,1180 C655.931102,1174.45724 675.777584,1163.44192 675.777584,1163.44192 L679.010419,1156.80806 Z" id="logo-nashville"></path>
        </g>
    </g>
</svg>