<?xml version="1.0" encoding="UTF-8"?>
<svg width="652px" height="652px" viewBox="0 0 652 652" version="1.1" xmlns="http://www.w3.org/2000/svg" xmlns:xlink="http://www.w3.org/1999/xlink">
    <!-- Generator: Sketch 52.2 (67145) - http://www.bohemiancoding.com/sketch -->
    <title>circle</title>
    <desc>Created with Sketch.</desc>
    <defs>
        <circle id="path-1" cx="326" cy="326" r="326"></circle>
        <path d="M476.573437,0 L438.039844,77.0832465 L437.932031,77.137164 L357.822656,117.200198 L317.716406,197.431757 L317.608594,197.488018 L237.499219,237.551052 L197.390625,317.782611 L197.282812,317.838873 L117.173437,357.899562 L77.0648437,438.133465 L76.9570312,438.187383 L0,476.675089 L0,475.866326 L76.528125,437.596635 L116.636719,357.362732 L116.744531,357.30647 L196.853906,317.24578 L236.960156,237.011877 L237.067969,236.95796 L317.177344,196.894926 L357.283594,116.661023 L357.391406,116.607106 L437.500781,76.5464159 L475.767187,0 L476.573437,0 Z M130.640625,0 L127.2,6.88033965 L127.094531,6.93425714 L46.9851562,46.9949469 L6.8765625,127.22885 L0,130.667847 L0,129.861429 L6.33984375,126.692019 L46.4460937,46.4581163 L46.5539062,46.4041988 L126.663281,6.34116483 L129.832031,0 L130.640625,0 Z M145.680469,0 L137.228906,16.9089915 L137.121094,16.9629089 L57.0117188,57.0235987 L16.903125,137.257502 L16.7953125,137.311419 L0,145.713169 L0,144.904407 L16.3640625,136.720671 L56.475,56.4867681 L56.5828125,56.4328506 L136.689844,16.3721609 L144.871875,0 L145.680469,0 Z M321.445313,0 L267.578906,26.9376433 L227.470313,107.171546 L227.3625,107.225464 L147.255469,147.288498 L107.146875,227.520056 L107.039063,227.573974 L26.9296875,267.639352 L0,321.50995 L0,319.89477 L26.3929688,267.100177 L26.5007813,267.04626 L106.607813,226.983226 L146.71875,146.749323 L146.824219,146.695405 L226.933594,106.632371 L267.042188,26.4008127 L267.15,26.3445509 L319.830469,0 L321.445313,0 Z M291.363281,0 L257.552344,16.9089915 L217.44375,97.1428944 L217.335937,97.1968118 L137.228906,137.257502 L97.1179687,217.491404 L97.0125,217.545322 L16.903125,257.608356 L0,291.423995 L0,289.808814 L16.3640625,257.069181 L16.471875,257.015264 L96.58125,216.954574 L136.689844,136.720671 L136.797656,136.666753 L216.907031,96.6037195 L257.015625,16.3721609 L257.123437,16.3182434 L289.748437,0 L291.363281,0 Z M351.525,0 L277.607812,36.9686393 L237.499219,117.200198 L237.391406,117.254115 L157.282031,157.317149 L117.173437,237.551052 L117.065625,237.60497 L36.9585937,277.668004 L0,351.59825 L0,349.983069 L36.4195312,277.128829 L36.5273437,277.074911 L116.636719,237.011877 L156.742969,156.780319 L156.850781,156.724057 L236.960156,116.661023 L277.06875,36.4294645 L277.176562,36.375547 L349.910156,0 L351.525,0 Z M160.722656,0 L147.255469,26.9376433 L147.147656,26.9915607 L67.0382813,67.0545947 L26.9296875,147.288498 L26.821875,147.342415 L0,160.756147 L0,159.947385 L26.3929688,146.749323 L66.5015625,66.5154199 L66.609375,66.4615024 L146.71875,26.4008127 L159.914063,0 L160.722656,0 Z M261.28125,0 L247.525781,6.88033965 L207.417187,87.1118983 L207.311719,87.1658158 L127.2,127.22885 L87.0914062,207.462753 L86.9859375,207.51667 L6.8765625,247.579704 L0,261.335695 L0,259.720515 L6.33984375,247.042874 L6.4453125,246.986612 L86.5546875,206.923578 L126.663281,126.692019 L126.771094,126.638102 L206.880469,86.5750677 L246.986719,6.34116483 L247.094531,6.28724734 L259.66875,0 L261.28125,0 Z M80.7960937,0 L26.9296875,26.9376433 L0,80.8105855 L0,79.1954053 L26.3929687,26.4008127 L26.5007812,26.3445509 L79.1789062,0 L80.7960937,0 Z M110.878125,0 L36.9585937,36.9686393 L0,110.898885 L0,109.283705 L36.4195312,36.4294645 L36.5273437,36.375547 L109.260937,0 L110.878125,0 Z M50.7140625,0 L16.903125,16.9089915 L0,50.7222859 L0,49.1071056 L16.3640625,16.3721609 L49.0992187,0 L50.7140625,0 Z M235.924219,0 L197.390625,77.0832465 L197.282812,77.137164 L117.173437,117.200198 L77.0648437,197.431757 L76.9570312,197.488018 L0,235.97338 L0,235.166962 L76.528125,196.894926 L116.636719,116.661023 L116.744531,116.607106 L196.853906,76.5464159 L235.117969,0 L235.924219,0 Z M190.802344,0 L167.308594,46.9949469 L167.200781,47.0512086 L87.0914062,87.1118983 L46.9851562,167.345801 L46.8773437,167.399719 L0,190.842103 L0,190.035685 L46.4460937,166.808971 L86.5546875,86.5750677 L86.6625,86.5211502 L166.771875,46.4581163 L189.99375,0 L190.802344,0 Z M220.884375,0 L187.364062,67.0545947 L187.25625,67.1085122 L107.146875,107.171546 L67.0382812,187.403105 L66.9328125,187.459367 L0,220.930402 L0,220.123984 L66.5015625,186.866274 L106.607812,106.632371 L106.715625,106.578454 L186.825,66.5154199 L220.075781,0 L220.884375,0 Z M205.844531,0 L177.3375,57.0235987 L177.229687,57.0798604 L97.1179687,97.1428944 L57.0117187,177.374453 L56.9039062,177.430715 L0,205.887424 L0,205.081006 L56.475,176.837622 L96.58125,96.6037195 L96.6890625,96.549802 L176.798437,56.4867681 L205.035937,0 L205.844531,0 Z M175.7625,0 L157.282031,36.9686393 L157.174219,37.0225568 L77.0648437,77.0832465 L36.9585937,157.317149 L36.8507812,157.371067 L0,175.799125 L0,174.992707 L36.4195312,156.780319 L76.528125,76.5464159 L76.6335937,76.4924984 L156.742969,36.4294645 L174.953906,0 L175.7625,0 Z M386.329687,0 L377.878125,16.9089915 L377.770312,16.9629089 L297.660937,57.0235987 L257.552344,137.257502 L257.444531,137.311419 L177.3375,177.374453 L137.228906,257.608356 L137.121094,257.662273 L57.0117187,297.725307 L16.903125,377.95921 L16.7953125,378.013128 L0,386.412534 L0,385.603772 L16.3640625,377.420035 L56.475,297.188477 L56.5828125,297.132215 L136.689844,257.069181 L176.798437,176.837622 L176.90625,176.783705 L257.015625,136.720671 L297.121875,56.4867681 L297.229687,56.4328506 L377.339062,16.3721609 L385.523437,0 L386.329687,0 Z M657.060937,0 L638.580469,36.9686393 L638.472656,37.0225568 L558.363281,77.0855907 L518.257031,157.317149 L518.149219,157.371067 L438.039844,197.431757 L397.93125,277.668004 L397.823437,277.719577 L317.716406,317.782611 L277.607812,398.016514 L197.390625,438.133465 L157.282031,518.365024 L157.174219,518.421286 L77.0648437,558.48432 L36.9585937,638.715878 L36.8507812,638.769796 L0,657.197854 L0,656.391436 L36.4195312,638.179048 L76.528125,557.945145 L76.6335937,557.891227 L156.742969,517.828193 L196.853906,437.596635 L196.961719,437.540373 L277.06875,397.477339 L317.177344,317.24578 L317.285156,317.191863 L397.394531,277.128829 L437.500781,196.894926 L437.608594,196.841009 L517.717969,156.777975 L557.826562,76.5464159 L638.041406,36.4294645 L656.252344,0 L657.060937,0 Z M461.533594,0 L428.013281,67.0545947 L427.905469,67.1085122 L347.796094,107.171546 L307.6875,187.403105 L307.579687,187.459367 L227.470312,227.520056 L187.364062,307.753959 L187.25625,307.807877 L107.146875,347.870911 L67.0382812,428.104814 L66.9328125,428.158731 L0,461.629767 L0,460.823349 L66.5015625,427.565639 L106.607812,347.331736 L106.715625,347.277818 L186.825,307.217129 L226.933594,226.983226 L227.041406,226.926964 L307.150781,186.866274 L347.259375,106.632371 L347.364844,106.578454 L427.474219,66.5154199 L460.725,0 L461.533594,0 Z M592.176562,0 L518.257031,36.9686393 L478.148437,117.200198 L478.040625,117.254115 L397.93125,157.317149 L357.822656,237.551052 L357.714844,237.60497 L277.607812,277.668004 L237.499219,357.899562 L237.391406,357.95348 L157.282031,398.016514 L117.173437,478.248073 L117.065625,478.30199 L36.9585937,518.367368 L0,592.297614 L0,590.682434 L36.4195312,517.828193 L36.5273437,517.774276 L116.636719,477.711242 L156.742969,397.477339 L156.850781,397.423422 L236.960156,357.362732 L277.06875,277.128829 L277.176562,277.074911 L357.283594,237.011877 L397.394531,156.780319 L397.502344,156.724057 L477.611719,116.661023 L517.717969,36.4294645 L517.825781,36.375547 L590.559375,0 L592.176562,0 Z M672.103125,0 L648.607031,46.9949469 L648.499219,47.0512086 L568.392187,87.1118983 L528.283594,167.345801 L528.175781,167.399719 L448.066406,207.462753 L407.960156,287.696656 L407.852344,287.750573 L327.742969,327.811263 L287.634375,408.045166 L287.526562,408.099083 L207.417187,448.162117 L167.308594,528.39602 L167.200781,528.449937 L87.0914062,568.512971 L46.9851562,648.74453 L46.8773437,648.798448 L0,672.243176 L0,671.434413 L46.4460937,648.2077 L86.5546875,567.973797 L86.6625,567.919879 L166.771875,527.856845 L206.880469,447.625287 L206.985937,447.571369 L287.095312,407.508335 L327.203906,327.274432 L327.311719,327.220515 L407.421094,287.157481 L447.529687,206.923578 L527.744531,166.808971 L567.853125,86.5750677 L567.960937,86.5211502 L648.070312,46.4581163 L671.294531,0 L672.103125,0 Z M562.094531,0 L508.228125,26.9376433 L468.121875,107.171546 L468.014062,107.225464 L387.904687,147.288498 L347.796094,227.520056 L347.690625,227.573974 L267.578906,267.637008 L227.470312,347.870911 L227.3625,347.924828 L147.255469,387.987862 L107.146875,468.219421 L107.039062,468.275682 L26.9296875,508.338716 L0,562.209314 L0,560.594134 L26.3929687,507.799542 L26.5007812,507.745624 L106.607812,467.68259 L146.71875,387.448687 L146.824219,387.39477 L226.933594,347.331736 L267.042187,267.100177 L267.15,267.04626 L347.259375,226.983226 L387.365625,146.749323 L387.473437,146.695405 L467.582812,106.632371 L507.691406,26.4008127 L507.799219,26.3445509 L560.479687,0 L562.094531,0 Z M611.939062,0 L608.500781,6.88033965 L608.392969,6.93425714 L528.283594,46.9949469 L488.175,127.22885 L488.069531,127.285111 L407.960156,167.345801 L367.849219,247.579704 L367.741406,247.633622 L287.634375,287.696656 L247.525781,367.928214 L247.417969,367.982132 L167.308594,408.045166 L127.2,488.279069 L127.094531,488.332986 L46.9851562,528.39602 L6.8765625,608.627579 L0,612.066576 L0,611.260158 L6.3375,608.090748 L46.4460937,527.856845 L46.5539062,527.802928 L126.663281,487.739894 L166.771875,407.508335 L166.879687,407.454418 L246.986719,367.389039 L287.095312,287.157481 L367.310156,247.042874 L407.421094,166.808971 L407.526562,166.752709 L487.638281,126.692019 L527.744531,46.4581163 L527.852344,46.4041988 L607.961719,6.34116483 L611.132812,0 L611.939062,0 Z M626.98125,0 L618.527344,16.9089915 L618.419531,16.9629089 L538.310156,57.0235987 L498.201562,137.257502 L498.09375,137.311419 L417.984375,177.374453 L377.878125,257.608356 L377.770312,257.662273 L297.660937,297.725307 L257.552344,377.95921 L177.3375,418.076162 L137.228906,498.30772 L137.121094,498.361638 L57.0117187,538.424672 L16.903125,618.658575 L16.7953125,618.710148 L0,627.111898 L0,626.30548 L16.3640625,618.1194 L56.475,537.885497 L56.5828125,537.831579 L136.689844,497.77089 L176.798437,417.536987 L176.90625,417.483069 L257.015625,377.420035 L297.121875,297.188477 L297.229687,297.132215 L377.339062,257.069181 L417.447656,176.837622 L417.555469,176.783705 L497.6625,136.718327 L537.773437,56.4867681 L537.88125,56.4328506 L617.990625,16.3721609 L626.172656,0 L626.98125,0 Z M642.021094,0 L628.553906,26.9376433 L628.448438,26.9915607 L548.339063,67.0545947 L508.228125,147.288498 L428.013281,187.403105 L387.904688,267.637008 L387.796875,267.693269 L307.6875,307.753959 L267.578906,387.987862 L267.473438,388.04178 L187.364063,428.104814 L147.255469,508.336372 L147.147656,508.39029 L67.040625,548.453324 L26.9296875,628.687227 L26.821875,628.741144 L0,642.154876 L0,641.348458 L26.3929688,628.148052 L66.5015625,547.916493 L66.609375,547.862576 L146.71875,507.799542 L186.825,427.565639 L186.932813,427.511721 L267.042188,387.448687 L307.150781,307.217129 L307.258594,307.163211 L387.365625,267.100177 L427.474219,186.866274 L427.582031,186.812357 L507.691406,146.749323 L547.8,66.5154199 L547.905469,66.4615024 L628.017188,26.4008127 L641.2125,0 L642.021094,0 Z M416.411719,0 L397.93125,36.9686393 L397.823437,37.0225568 L317.716406,77.0832465 L277.607812,157.317149 L277.5,157.371067 L197.390625,197.431757 L157.282031,277.668004 L157.174219,277.719577 L77.0648437,317.782611 L36.9585937,398.016514 L36.8507812,398.070431 L0,416.500834 L0,415.692071 L36.4195312,397.477339 L76.528125,317.24578 L76.6335937,317.191863 L156.742969,277.128829 L196.853906,196.894926 L196.961719,196.841009 L277.06875,156.780319 L317.177344,76.5464159 L317.285156,76.4924984 L397.394531,36.4294645 L415.603125,0 L416.411719,0 Z M431.451562,0 L407.960156,46.9949469 L407.852344,47.0512086 L327.742969,87.1118983 L287.634375,167.345801 L287.526562,167.399719 L207.417187,207.462753 L167.308594,287.696656 L167.200781,287.750573 L87.0914062,327.811263 L46.9851562,408.045166 L46.8773437,408.099083 L0,431.543811 L0,430.735049 L46.4460937,407.508335 L86.5546875,327.274432 L86.6625,327.220515 L166.771875,287.157481 L206.880469,206.923578 L206.985937,206.86966 L287.095312,166.808971 L327.203906,86.5750677 L327.311719,86.5211502 L407.421094,46.4581163 L430.645312,0 L431.451562,0 Z M446.491406,0 L417.984375,57.0235987 L417.878906,57.0798604 L337.771875,97.1428944 L297.660937,177.374453 L297.553125,177.430715 L217.44375,217.491404 L177.3375,297.725307 L177.229687,297.779225 L97.1179687,337.839915 L57.0117187,418.076162 L56.9039062,418.130079 L0,446.586789 L0,445.778027 L56.475,417.536987 L96.58125,337.303084 L96.6890625,337.249166 L176.798437,297.188477 L216.907031,216.954574 L217.0125,216.900656 L297.121875,176.837622 L337.232812,96.6037195 L337.340625,96.549802 L417.447656,56.4867681 L445.685156,0 L446.491406,0 Z M20.634375,0 L6.8765625,6.88033965 L0,20.6339862 L0,19.0211502 L6.33984375,6.34116483 L6.4453125,6.28724734 L19.0171875,0 L20.634375,0 Z M501.932812,0 L488.175,6.88033965 L448.066406,87.1118983 L447.958594,87.1658158 L367.849219,127.22885 L327.742969,207.462753 L327.635156,207.51667 L247.525781,247.579704 L207.417187,327.811263 L207.311719,327.867524 L127.2,367.928214 L87.0914062,448.162117 L86.9859375,448.216035 L6.8765625,488.279069 L0,502.035059 L0,500.419879 L6.33984375,487.739894 L6.4453125,487.685976 L86.5546875,447.625287 L126.663281,367.391384 L126.771094,367.337466 L206.880469,327.272088 L246.986719,247.042874 L247.094531,246.986612 L327.203906,206.923578 L367.3125,126.692019 L367.420312,126.638102 L447.527344,86.5750677 L487.638281,6.34116483 L487.74375,6.28724734 L500.315625,0 L501.932812,0 Z M532.0125,0 L498.201562,16.9089915 L458.095312,97.1428944 L457.9875,97.1968118 L377.878125,137.257502 L337.769531,217.491404 L337.661719,217.545322 L257.552344,257.608356 L217.44375,337.839915 L217.335937,337.893832 L137.228906,377.95921 L97.1179687,458.190769 L97.0125,458.244686 L16.903125,498.30772 L0,532.121015 L0,530.505835 L16.3640625,497.77089 L16.471875,497.714628 L96.58125,457.651594 L136.689844,377.420035 L136.797656,377.366118 L216.907031,337.30074 L257.015625,257.069181 L337.232812,216.954574 L377.339062,136.720671 L377.446875,136.666753 L457.55625,96.6037195 L497.6625,16.3721609 L497.770312,16.3182434 L530.397656,0 L532.0125,0 Z M401.371875,0 L387.904687,26.9376433 L387.796875,26.9915607 L307.6875,67.0545947 L267.578906,147.288498 L267.473437,147.342415 L187.364062,187.403105 L147.255469,267.637008 L147.147656,267.693269 L67.0382812,307.753959 L26.9296875,387.987862 L26.821875,388.04178 L0,401.455512 L0,400.646749 L26.3929687,387.448687 L66.5015625,307.217129 L66.609375,307.163211 L146.71875,267.100177 L186.825,186.866274 L186.932812,186.812357 L267.042187,146.749323 L307.150781,66.5154199 L387.365625,26.4008127 L400.563281,0 L401.371875,0 Z M371.289844,0 L367.849219,6.88033965 L367.741406,6.93425714 L287.634375,46.9949469 L247.525781,127.22885 L247.417969,127.285111 L167.308594,167.345801 L127.2,247.579704 L127.094531,247.633622 L46.9851562,287.696656 L6.8765625,367.928214 L0,371.369556 L0,370.560794 L6.33984375,367.391384 L46.4460937,287.157481 L46.5539062,287.103563 L126.663281,247.042874 L166.771875,166.808971 L166.879687,166.752709 L246.986719,126.692019 L287.095312,46.4581163 L287.203125,46.4041988 L367.3125,6.34116483 L370.48125,0 L371.289844,0 Z M574.514062,675 L607.961719,608.090748 L608.069531,608.036831 L675,574.563451 L675,575.372213 L608.500781,608.627579 L575.320315,675 L574.514062,675 Z M444.089071,675 L517.717969,638.179048 L557.826562,557.945145 L557.934375,557.891227 L638.041406,517.828193 L675,443.900292 L675,445.515472 L638.580469,518.365024 L638.472656,518.421286 L558.363281,558.48432 L518.257031,638.715878 L518.149219,638.769796 L445.703906,675 L444.089071,675 Z M474.168762,675 L527.744531,648.2077 L567.853125,567.973797 L567.960938,567.919879 L648.070313,527.856845 L675,473.986247 L675,475.603772 L648.607031,528.39602 L568.392188,568.512971 L528.283594,648.74453 L528.175781,648.798448 L475.785925,675 L474.168762,675 Z M318.822654,675 L357.283594,598.059752 L357.391406,598.005835 L437.500781,557.945145 L477.611719,477.711242 L477.717188,477.657324 L557.826563,437.596635 L597.935156,357.362732 L598.042969,357.30647 L675,318.821109 L675,319.627527 L598.474219,357.899562 L558.363281,438.133465 L558.257813,438.187383 L478.148438,478.248073 L438.039844,558.48432 L437.932031,558.538237 L357.822656,598.598927 L319.631248,675 L318.822654,675 Z M348.904687,675 L377.339062,618.1194 L377.446875,618.065482 L457.55625,578.004793 L497.6625,497.77089 L497.770313,497.714628 L577.882031,457.651594 L617.990625,377.420035 L618.096094,377.366118 L675,348.909408 L675,349.715826 L618.527344,377.95921 L578.41875,458.190769 L578.310938,458.244686 L498.201563,498.30772 L458.095312,578.541623 L457.9875,578.595541 L377.878125,618.658575 L349.713281,675 L348.904687,675 Z M363.944531,675 L387.365625,628.148052 L387.473437,628.094134 L467.582812,588.033444 L507.691406,507.799542 L507.799219,507.745624 L587.908594,467.68259 L628.017188,387.448687 L675,363.952386 L675,364.758804 L628.553906,387.987862 L588.445313,468.219421 L588.3375,468.275682 L508.228125,508.336372 L468.121875,588.570275 L468.014062,588.624193 L387.904687,628.687227 L364.753125,675 L363.944531,675 Z M333.864844,675 L367.3125,608.090748 L367.420312,608.036831 L447.529687,567.973797 L487.638281,487.739894 L487.74375,487.685976 L567.853125,447.625287 L607.961719,367.391384 L608.069531,367.337466 L675,333.866431 L675,334.672849 L608.500781,367.928214 L568.392188,448.162117 L568.284375,448.216035 L488.175,488.279069 L448.066406,568.512971 L367.849219,608.627579 L334.671091,675 L333.864844,675 Z M504.250801,675 L537.773438,658.236351 L577.882031,578.004793 L577.9875,577.948531 L658.096875,537.885497 L675,504.074547 L675,505.689727 L658.635938,538.424672 L658.528125,538.478589 L578.41875,578.541623 L538.310156,658.773182 L538.202344,658.829444 L505.865645,675 L504.250801,675 Z M634.675787,675 L648.070313,648.2077 L648.178125,648.153782 L675,634.74005 L675,635.548812 L648.607031,648.74453 L635.484363,675 L634.675787,675 Z M378.986723,675 L397.394531,638.179048 L397.502344,638.122786 L477.611719,598.059752 L517.717969,517.828193 L517.825781,517.774276 L597.935156,477.711242 L638.041406,397.477339 L638.149219,397.423422 L675,378.995364 L675,379.804126 L638.580469,398.016514 L598.474219,478.248073 L598.366406,478.30199 L518.257031,518.365024 L478.148437,598.598927 L478.040625,598.652844 L397.93125,638.715878 L379.795303,675 L378.986723,675 Z M649.715635,675 L658.096875,658.236351 L675,649.783028 L675,650.59179 L658.635937,658.773182 L650.524219,675 L649.715635,675 Z M664.757789,675 L668.123437,668.265003 L668.23125,668.211086 L675,664.826005 L675,665.634768 L668.6625,668.804178 L665.564089,675 L664.757789,675 Z M534.332812,675 L547.8,668.265003 L587.908594,588.033444 L588.016406,587.979527 L668.123438,547.916493 L675,534.162846 L675,535.775682 L668.6625,548.453324 L668.554688,548.507241 L588.445312,588.570275 L548.339062,668.804178 L548.23125,668.858095 L535.947709,675 L534.332812,675 Z M619.635933,675 L638.041406,638.179048 L638.149219,638.122786 L675,619.694728 L675,620.50349 L638.580469,638.715878 L620.442187,675 L619.635933,675 Z M559.474217,675 L597.935156,598.059752 L598.042969,598.005835 L675,559.520473 L675,560.329235 L598.474219,598.598927 L560.280471,675 L559.474217,675 Z M604.596094,675 L628.017187,628.148052 L675,604.65175 L675,605.460513 L628.553906,628.687227 L605.402344,675 L604.596094,675 Z M589.553912,675 L617.990625,618.1194 L618.096094,618.065482 L675,589.606428 L675,590.415191 L618.527344,618.658575 L590.3625,675 L589.553912,675 Z M138.337496,675 L156.742969,638.179048 L156.850781,638.122786 L236.960156,598.059752 L277.06875,517.828193 L277.176562,517.774276 L357.283594,477.711242 L397.394531,397.477339 L397.502344,397.423422 L477.611719,357.360388 L517.717969,277.128829 L517.825781,277.074911 L597.935156,237.011877 L638.041406,156.780319 L638.149219,156.724057 L675,138.295999 L675,139.104761 L638.580469,157.317149 L598.474219,237.551052 L598.366406,237.60497 L518.257031,277.668004 L478.148437,357.899562 L478.040625,357.95348 L397.933594,398.016514 L357.822656,478.248073 L357.714844,478.30199 L277.607812,518.365024 L237.499219,598.598927 L157.282031,638.715878 L139.14375,675 L138.337496,675 Z M22.9523633,675 L56.475,658.236351 L96.58125,578.004793 L96.6890625,577.948531 L176.798438,537.885497 L216.907031,457.651594 L217.0125,457.597677 L297.121875,417.536987 L337.232813,337.303084 L337.340625,337.249166 L417.447656,297.188477 L457.55625,216.954574 L457.664063,216.900656 L537.773438,176.837622 L577.882031,96.6037195 L577.9875,96.549802 L658.096875,56.4867681 L675,22.6758179 L675,24.2909981 L658.635938,57.0235987 L658.528125,57.0798604 L578.41875,97.1428944 L538.310156,177.374453 L538.202344,177.430715 L458.095313,217.491404 L417.984375,297.725307 L417.878906,297.779225 L337.769531,337.839915 L297.660938,418.076162 L297.553125,418.130079 L217.44375,458.190769 L177.3375,538.424672 L177.229688,538.478589 L97.1179688,578.541623 L57.0117187,658.773182 L56.9039062,658.829444 L24.5672077,675 L22.9523633,675 Z M394.026569,675 L407.421094,648.2077 L407.526562,648.153782 L487.638281,608.090748 L527.744531,527.856845 L607.961719,487.739894 L648.070313,407.508335 L648.178125,407.454418 L675,394.040686 L675,394.847104 L648.607031,408.045166 L608.500781,488.279069 L608.392969,488.332986 L528.283594,528.39602 L488.175,608.627579 L488.069531,608.681496 L407.960156,648.74453 L394.835156,675 L394.026569,675 Z M123.297656,675 L146.71875,628.148052 L146.824219,628.094134 L226.933594,588.033444 L267.042188,507.799542 L347.259375,467.68259 L387.365625,387.448687 L387.473438,387.39477 L467.582813,347.331736 L507.691406,267.100177 L507.799219,267.04626 L587.908594,226.983226 L628.017188,146.749323 L628.125,146.695405 L675,123.253021 L675,124.061784 L628.553906,147.288498 L588.445313,227.520056 L508.228125,267.637008 L468.121875,347.870911 L468.014063,347.924828 L387.904688,387.987862 L347.796094,468.219421 L347.690625,468.275682 L267.578906,508.336372 L227.470313,588.570275 L227.3625,588.624193 L147.255469,628.687227 L124.103906,675 L123.297656,675 Z M53.034375,675 L66.5015625,668.265003 L106.607812,588.033444 L106.715625,587.979527 L186.825,547.916493 L226.933594,467.68259 L227.041406,467.628673 L307.150781,427.565639 L347.259375,347.331736 L347.364844,347.277818 L427.474219,307.217129 L467.582812,226.983226 L467.690625,226.926964 L547.8,186.866274 L587.908594,106.632371 L588.016406,106.578454 L668.123437,66.5154199 L675,52.7617733 L675,54.3769535 L668.6625,67.0545947 L668.554687,67.1085122 L588.445312,107.171546 L548.339062,187.403105 L548.23125,187.459367 L468.121875,227.520056 L428.013281,307.753959 L347.796094,347.870911 L307.6875,428.104814 L307.579687,428.158731 L227.470312,468.219421 L187.364062,548.453324 L187.25625,548.507241 L107.146875,588.570275 L67.0382812,668.804178 L66.9328125,668.858095 L54.6492712,675 L53.034375,675 Z M108.255469,675 L136.689844,618.1194 L136.797656,618.065482 L216.907031,578.004793 L257.015625,497.77089 L257.123437,497.714628 L337.232812,457.651594 L377.339062,377.420035 L377.446875,377.366118 L457.55625,337.303084 L497.6625,257.069181 L577.879687,216.954574 L617.990625,136.720671 L618.096094,136.666753 L675,108.2077 L675,109.016462 L618.527344,137.257502 L578.41875,217.491404 L578.310937,217.545322 L498.201562,257.608356 L458.095312,337.839915 L457.9875,337.893832 L377.878125,377.95921 L337.769531,458.190769 L337.661719,458.244686 L257.552344,498.310065 L217.44375,578.541623 L217.335937,578.595541 L137.228906,618.658575 L109.064062,675 L108.255469,675 Z M168.417197,675 L176.798438,658.236351 L176.90625,658.182434 L257.015625,618.1194 L297.121875,537.885497 L377.339062,497.77089 L417.447656,417.536987 L417.555469,417.483069 L497.6625,377.420035 L537.773437,297.188477 L537.88125,297.132215 L617.988281,257.069181 L658.096875,176.837622 L658.204687,176.783705 L675,168.384299 L675,169.190717 L658.635937,177.374453 L618.527344,257.608356 L618.419531,257.662273 L538.310156,297.727652 L498.201562,377.95921 L498.09375,378.013128 L417.984375,418.076162 L377.878125,498.30772 L377.770312,498.361638 L297.660937,538.424672 L257.552344,618.658575 L257.444531,618.710148 L177.3375,658.775526 L169.225791,675 L168.417197,675 Z M183.459351,675 L186.825,668.265003 L186.932813,668.211086 L267.042188,628.148052 L307.150781,547.916493 L307.258594,547.862576 L387.365625,507.799542 L427.474219,427.565639 L507.691406,387.448687 L547.8,307.217129 L547.905469,307.163211 L628.017188,267.100177 L668.123438,186.866274 L668.23125,186.812357 L675,183.427277 L675,184.236039 L668.6625,187.403105 L628.553906,267.637008 L628.448438,267.693269 L548.339063,307.753959 L508.228125,387.987862 L428.013281,428.104814 L387.904688,508.336372 L387.796875,508.39029 L307.6875,548.453324 L267.578906,628.687227 L267.473438,628.741144 L187.364063,668.804178 L184.265651,675 L183.459351,675 Z M153.37735,675 L166.771875,648.2077 L166.879687,648.153782 L246.986719,608.090748 L287.095312,527.856845 L367.3125,487.739894 L407.421094,407.508335 L407.526563,407.454418 L487.638281,367.391384 L527.744531,287.157481 L607.961719,247.042874 L648.070313,166.808971 L648.178125,166.752709 L675,153.338977 L675,154.147739 L648.609375,167.345801 L608.500781,247.579704 L608.392969,247.633622 L528.283594,287.696656 L488.175,367.928214 L488.069531,367.982132 L407.960156,408.04751 L367.849219,488.279069 L367.741406,488.332986 L287.634375,528.39602 L247.525781,608.627579 L247.417969,608.681496 L167.308594,648.74453 L154.183594,675 L153.37735,675 Z M263.601524,675 L297.121875,658.234007 L337.232813,578.004793 L337.340625,577.948531 L417.447656,537.885497 L457.55625,457.651594 L457.664063,457.597677 L537.773438,417.536987 L577.882031,337.303084 L577.9875,337.249166 L658.096875,297.188477 L675,263.375182 L675,264.990363 L658.635938,297.725307 L658.528125,297.779225 L578.41875,337.839915 L538.310156,418.076162 L538.202344,418.130079 L458.095313,458.190769 L417.984375,538.424672 L417.878906,538.478589 L337.769531,578.541623 L297.660938,658.773182 L297.553125,658.829444 L265.216426,675 L263.601524,675 Z M293.683594,675 L307.150781,668.265003 L347.259375,588.033444 L347.364844,587.979527 L427.474219,547.916493 L467.582813,467.68259 L467.690625,467.628673 L547.8,427.565639 L587.908594,347.331736 L588.016406,347.277818 L668.123438,307.217129 L675,293.461138 L675,295.076318 L668.6625,307.753959 L588.445313,347.870911 L548.339063,428.104814 L548.23125,428.158731 L468.121875,468.219421 L428.013281,548.453324 L427.905469,548.507241 L347.796094,588.570275 L307.6875,668.804178 L307.579687,668.858095 L295.298437,675 L293.683594,675 Z M424.10857,675 L427.474219,668.265003 L427.582031,668.211086 L507.691406,628.148052 L547.8,547.916493 L547.905469,547.862576 L628.017188,507.799542 L668.123438,427.565639 L675,424.126641 L675,424.935403 L668.6625,428.104814 L628.553906,508.336372 L628.448438,508.39029 L548.339063,548.453324 L508.228125,628.687227 L508.120312,628.741144 L428.013281,668.804178 L424.917161,675 L424.10857,675 Z M409.066416,675 L417.447656,658.236351 L497.6625,618.1194 L537.773438,537.885497 L617.990625,497.77089 L658.096875,417.536987 L658.204688,417.483069 L675,409.083663 L675,409.892426 L658.635938,418.076162 L618.527344,498.30772 L538.310156,538.424672 L498.201562,618.658575 L498.09375,618.710148 L417.984375,658.773182 L409.87498,675 L409.066416,675 Z M93.215625,675 L126.663281,608.090748 L126.771094,608.036831 L206.880469,567.973797 L246.986719,487.739894 L247.094531,487.685976 L327.203906,447.625287 L367.3125,367.391384 L367.420312,367.337466 L447.529687,327.274432 L487.638281,247.042874 L487.74375,246.986612 L567.853125,206.923578 L607.961719,126.692019 L608.069531,126.638102 L675,93.1647218 L675,93.9734841 L608.500781,127.22885 L568.392187,207.462753 L568.284375,207.51667 L488.177344,247.579704 L448.066406,327.811263 L447.958594,327.867524 L367.849219,367.928214 L327.742969,448.162117 L247.525781,488.279069 L207.417187,568.512971 L207.311719,568.566889 L127.2,608.627579 L94.0218725,675 L93.215625,675 Z M78.1757791,675 L116.636719,598.059752 L116.744531,598.005835 L196.853906,557.945145 L236.960156,477.711242 L317.177344,437.596635 L357.283594,357.362732 L357.391406,357.30647 L437.500781,317.243436 L477.611719,237.011877 L477.717187,236.95796 L557.826562,196.894926 L597.935156,116.661023 L675,78.1217441 L675,78.9305064 L598.474219,117.200198 L558.363281,197.431757 L558.257812,197.488018 L478.148437,237.551052 L438.039844,317.782611 L437.932031,317.838873 L357.822656,357.899562 L317.716406,438.133465 L317.608594,438.187383 L237.499219,478.248073 L197.390625,558.48432 L197.282812,558.538237 L117.173437,598.598927 L78.9820291,675 L78.1757791,675 Z M203.439853,675 L277.06875,638.179048 L317.177344,557.945145 L317.285156,557.891227 L397.394531,517.828193 L437.500781,437.596635 L437.608594,437.540373 L517.717969,397.477339 L557.826563,317.24578 L557.934375,317.191863 L638.041406,277.128829 L675,203.198583 L675,204.813763 L638.580469,277.668004 L638.472656,277.719577 L558.363281,317.782611 L518.257031,398.016514 L438.039844,438.133465 L397.93125,518.365024 L397.823438,518.421286 L317.716406,558.48432 L277.607812,638.715878 L277.5,638.769796 L205.057022,675 L203.439853,675 Z M675,233.286883 L675,234.902063 L648.607031,287.696656 L568.392187,327.811263 L528.283594,408.045166 L528.175781,408.099083 L448.06875,448.162117 L407.960156,528.39602 L407.852344,528.449937 L327.742969,568.512971 L287.634375,648.74453 L235.136706,675 L233.519543,675 L287.095312,648.2077 L327.203906,567.973797 L327.311719,567.919879 L407.421094,527.856845 L447.529687,447.625287 L527.744531,407.508335 L567.853125,327.274432 L567.960937,327.220515 L648.070312,287.157481 L675,233.286883 Z" id="path-3"></path>
        <linearGradient x1="32.3605903%" y1="32.3673682%" x2="69.1425347%" y2="69.1569771%" id="linearGradient-5">
            <stop stop-color="#16A997" offset="0%"></stop>
            <stop stop-color="#C16EA0" offset="100%"></stop>
        </linearGradient>
    </defs>
    <g id="Ideation" stroke="none" stroke-width="1" fill="none" fill-rule="evenodd">
        <g id="Index-Ink" transform="translate(-596.000000, -155.000000)">
            <g id="circle" transform="translate(487.000000, 155.000000)">
                <g id="pattern" transform="translate(109.000000, 0.000000)">
                    <mask id="mask-2" fill="white">
                        <use xlink:href="#path-1"></use>
                    </mask>
                    <g id="Mask" fill-rule="nonzero"></g>
                    <g mask="url(#mask-2)">
                        <g transform="translate(-12.000000, -10.000000)">
                            <mask id="mask-4" fill="white">
                                <use xlink:href="#path-3"></use>
                            </mask>
                            <g id="Clip-4" stroke="none" fill="none"></g>
                            <polygon id="Fill-3" stroke="none" fill="url(#linearGradient-5)" fill-rule="evenodd" mask="url(#mask-4)" points="0 675 675 675 675 0 0 0"></polygon>
                        </g>
                    </g>
                </g>
            </g>
        </g>
    </g>
</svg>