<?xml version="1.0" encoding="UTF-8"?>
<svg width="29px" height="29px" viewBox="0 0 29 29" version="1.1" xmlns="http://www.w3.org/2000/svg" xmlns:xlink="http://www.w3.org/1999/xlink">
    <!-- Generator: Sketch 52.2 (67145) - http://www.bohemiancoding.com/sketch -->
    <title>np_arrow_2268775_FFFFFF</title>
    <desc>Created with Sketch.</desc>
    <g id="Layouts" stroke="none" stroke-width="1" fill="none" fill-rule="evenodd">
        <g id="index" transform="translate(-1320.000000, -592.000000)" fill="#FFFFFF" fill-rule="nonzero">
            <g id="case-study" transform="translate(49.000000, 560.000000)">
                <g id="nav" transform="translate(1143.000000, 32.000000)">
                    <g id="np_arrow_2268775_FFFFFF" transform="translate(142.500000, 14.500000) rotate(270.000000) translate(-142.500000, -14.500000) translate(128.000000, 0.000000)">
                        <path d="M14.4215369,28.5138352 C22.1635369,28.5138352 28.4215369,22.2558352 28.4215369,14.5138352 C28.4215369,6.77183516 22.1635369,0.513835157 14.4215369,0.513835157 C6.67953693,0.513835157 0.421536928,6.77183516 0.421536928,14.5138352 C0.421536928,22.2558352 6.67953693,28.5138352 14.4215369,28.5138352 Z M7.77440056,13.6302442 L11.8051278,13.6302442 L11.8051278,8.00860788 C11.8051278,7.47788061 12.228946,7.05406243 12.7596733,7.05406243 L16.1180824,7.05406243 C16.6488097,7.05406243 17.0726278,7.47788061 17.0726278,8.00860788 L17.0726278,13.6302442 L21.1033551,13.6302442 C21.8105778,13.6302442 22.234396,14.0901124 21.8814051,14.4791533 L15.1995869,21.6194715 C14.7757687,22.0793397 14.068546,22.0793397 13.6434869,21.6194715 L6.99762329,14.4791533 C6.64339147,14.0901124 7.06846965,13.6302442 7.77443238,13.6302442 L7.77440056,13.6302442 Z" id="Shape"></path>
                    </g>
                </g>
            </g>
        </g>
    </g>
</svg>