<?xml version="1.0" encoding="UTF-8"?>
<svg fill="#FFFFFF" width="100pt" height="100pt" version="1.1" viewBox="0 0 100 100" xmlns="http://www.w3.org/2000/svg">
 <path d="m54.168 53.477v4.8789h-8.3359v-5.4922c0-3.3359 2.1602-6.2227 5.3633-7.1797 1.75-0.53125 2.9727-2.1719 2.9727-3.9961 0-2.2227-1.9531-4.168-4.168-4.168-2.3008 0-4.168 1.8711-4.168 4.168h-8.332c0-6.8906 5.6094-12.5 12.5-12.5 6.7734 0 12.5 5.7266 12.5 12.5 0 5.2734-3.3945 10.039-8.332 11.789m-4.168 17.379c-2.3008 0-4.168-1.8672-4.168-4.168s1.8672-4.168 4.168-4.168 4.168 1.8672 4.168 4.168-1.8672 4.168-4.168 4.168m0-62.5c-23.012 0-41.668 18.648-41.668 41.664s18.656 41.668 41.668 41.668 41.668-18.652 41.668-41.668-18.656-41.664-41.668-41.664" fill-rule="evenodd"/>
</svg>
