<?xml version="1.0" encoding="UTF-8"?>
<svg width="101px" height="100px" viewBox="0 0 101 100" version="1.1" xmlns="http://www.w3.org/2000/svg" xmlns:xlink="http://www.w3.org/1999/xlink">
    <!-- Generator: Sketch 52.2 (67145) - http://www.bohemiancoding.com/sketch -->
    <title>icon-browser-light</title>
    <desc>Created with Sketch.</desc>
    <defs>
        <linearGradient x1="15.2144849%" y1="3.15886922%" x2="85.9823324%" y2="100%" id="linearGradient-1">
            <stop stop-color="#F9F9F9" offset="0%"></stop>
            <stop stop-color="#F1F1F1" offset="100%"></stop>
        </linearGradient>
        <path d="M50.97,0 C78.584,0 100.97,22.386 100.97,50 C100.97,77.614 78.584,100 50.97,100 C23.356,100 0.97,77.613 0.97,50 C0.97,22.385 23.355,0 50.97,0 Z" id="path-2"></path>
        <filter x="-2.5%" y="-2.5%" width="105.0%" height="105.0%" filterUnits="objectBoundingBox" id="filter-3">
            <feGaussianBlur stdDeviation="1.5" in="SourceAlpha" result="shadowBlurInner1"></feGaussianBlur>
            <feOffset dx="0" dy="2" in="shadowBlurInner1" result="shadowOffsetInner1"></feOffset>
            <feComposite in="shadowOffsetInner1" in2="SourceAlpha" operator="arithmetic" k2="-1" k3="1" result="shadowInnerInner1"></feComposite>
            <feColorMatrix values="0 0 0 0 0   0 0 0 0 0   0 0 0 0 0  0 0 0 0.0367130888 0" type="matrix" in="shadowInnerInner1"></feColorMatrix>
        </filter>
    </defs>
    <g id="icon-browser-light" stroke="none" stroke-width="1" fill="none" fill-rule="evenodd">
        <g>
            <g id="Path" fill-rule="nonzero">
                <use fill="url(#linearGradient-1)" xlink:href="#path-2"></use>
                <use fill="black" fill-opacity="1" filter="url(#filter-3)" xlink:href="#path-2"></use>
            </g>
            <path d="M25.97,20 C23.209,20 20.97,22.239 20.97,25 L20.97,90 C29.326,96.277 39.713,100 50.97,100 C78.584,100 100.97,77.613 100.97,50 C100.97,38.743 97.248,28.357 90.971,20 L25.97,20 Z" id="Path" fill="#F7F7F7"></path>
            <path d="M26.97,49 L26.97,69 C26.97,70.104 27.866,71 28.97,71 L96.346,71 C99.306,64.613 100.97,57.502 100.97,50 C100.97,48.992 100.931,47.993 100.872,47 L28.97,47 C27.865,47 26.97,47.895 26.97,49 Z" id="Path" fill="#324D5B"></path>
            <path d="M90.368,48.001 C90.075,50.634 88.608,52.097 85.97,52.39 C88.609,52.683 90.075,54.148 90.368,56.781 C90.661,54.148 92.128,52.683 94.766,52.39 C92.128,52.098 90.661,50.635 90.368,48.001 Z M58.22,58.172 C57.992,60.219 56.853,61.358 54.8,61.586 C56.853,61.815 57.992,62.953 58.22,65 C58.449,62.953 59.589,61.814 61.642,61.586 C59.589,61.357 58.448,60.219 58.22,58.172 Z" id="Shape" fill="#EFC75E" fill-rule="nonzero"></path>
            <path d="M39.526,50.025 C39.364,51.488 38.549,52.301 37.083,52.465 C38.55,52.627 39.364,53.44 39.526,54.903 C39.69,53.44 40.505,52.628 41.969,52.465 C40.505,52.301 39.69,51.488 39.526,50.025 Z M85.322,63.049 C85.192,64.219 84.54,64.871 83.368,65 C84.54,65.131 85.192,65.781 85.322,66.951 C85.452,65.781 86.104,65.131 87.276,65 C86.104,64.871 85.452,64.219 85.322,63.049 Z M73.005,54.707 C72.841,56.17 72.026,56.984 70.562,57.146 C72.027,57.308 72.841,58.123 73.005,59.585 C73.167,58.122 73.982,57.308 75.448,57.146 C73.981,56.984 73.167,56.17 73.005,54.707 Z" id="Shape" fill="#556C77" fill-rule="nonzero"></path>
            <path d="M41.97,59 C46.941,59 50.97,63.029 50.97,68 C50.97,72.971 46.941,77 41.97,77 C36.999,77 32.97,72.971 32.97,68 C32.97,63.029 36.999,59 41.97,59 Z" id="Path" fill="#DCDDDD"></path>
            <path d="M30.47,26 C28.537,26 26.97,27.567 26.97,29.5 C26.97,31.434 28.537,33 30.47,33 C32.404,33 33.97,31.434 33.97,29.5 C33.97,27.567 32.403,26 30.47,26 Z M30.47,31 C29.642,31 28.97,30.328 28.97,29.5 C28.97,28.672 29.642,28 30.47,28 C31.298,28 31.97,28.672 31.97,29.5 C31.97,30.328 31.298,31 30.47,31 Z" id="Shape" fill="#E2574C" fill-rule="nonzero"></path>
            <path d="M40.47,26 C38.536,26 36.97,27.567 36.97,29.5 C36.97,31.434 38.536,33 40.47,33 C42.404,33 43.97,31.434 43.97,29.5 C43.97,27.567 42.403,26 40.47,26 Z M40.47,31 C39.642,31 38.97,30.328 38.97,29.5 C38.97,28.672 39.642,28 40.47,28 C41.298,28 41.97,28.672 41.97,29.5 C41.97,30.328 41.298,31 40.47,31 Z" id="Shape" fill="#EFC75E" fill-rule="nonzero"></path>
            <path d="M50.47,26 C48.536,26 46.97,27.567 46.97,29.5 C46.97,31.434 48.536,33 50.47,33 C52.404,33 53.97,31.434 53.97,29.5 C53.97,27.567 52.403,26 50.47,26 Z M50.47,31 C49.642,31 48.97,30.328 48.97,29.5 C48.97,28.672 49.642,28 50.47,28 C51.298,28 51.97,28.672 51.97,29.5 C51.97,30.328 51.298,31 50.47,31 Z" id="Shape" fill="#3DB39E" fill-rule="nonzero"></path>
            <g id="Group" transform="translate(26.000000, 26.000000)" fill="#E4E7E7" fill-rule="nonzero">
                <path d="M0.97,56 C0.97,56.553 1.418,57 1.97,57 L27.97,57 C28.523,57 28.97,56.553 28.97,56 C28.97,55.447 28.523,55 27.97,55 L1.97,55 C1.417,55 0.97,55.447 0.97,56 Z M32.97,60 C32.97,60.553 33.417,61 33.97,61 L58.601,61 C59.31,60.355 59.994,59.684 60.664,59 L33.97,59 C33.417,59 32.97,59.447 32.97,60 Z M28.97,64 C28.97,63.447 28.523,63 27.97,63 L1.97,63 C1.418,63 0.97,63.447 0.97,64 C0.97,64.553 1.418,65 1.97,65 L27.97,65 C28.522,65 28.97,64.553 28.97,64 Z M32.97,56 C32.97,56.553 33.417,57 33.97,57 L62.517,57 C63.09,56.348 63.646,55.682 64.185,55 L33.97,55 C33.417,55 32.97,55.447 32.97,56 Z M68.839,0 L34.97,0 C33.866,0 32.97,0.896 32.97,2 L32.97,5 C32.97,6.104 33.866,7 34.97,7 L72.001,7 C71.123,4.574 70.064,2.235 68.839,0 Z M27.97,59 L1.97,59 C1.418,59 0.97,59.447 0.97,60 C0.97,60.553 1.418,61 1.97,61 L27.97,61 C28.523,61 28.97,60.553 28.97,60 C28.97,59.447 28.522,59 27.97,59 Z M33.97,63 C33.417,63 32.97,63.447 32.97,64 C32.97,64.553 33.417,65 33.97,65 L53.574,65 C54.486,64.361 55.377,63.695 56.244,63 L33.97,63 Z" id="Shape"></path>
            </g>
            <path d="M99.741,39 L20.97,39 L20.97,41 L100.147,41 C100.024,40.328 99.89,39.662 99.741,39 Z" id="Path" fill="#E4E7E7"></path>
            <path d="M44.97,67.5 C44.97,65.014 43.626,63 41.97,63 C40.314,63 38.97,65.014 38.97,67.5 C38.97,68.979 39.452,70.279 40.186,71.1 C37.878,71.358 35.89,72.106 34.588,73.141 C36.214,75.471 38.911,77 41.97,77 C45.029,77 47.726,75.471 49.352,73.141 C48.05,72.106 46.062,71.358 43.754,71.1 C44.487,70.279 44.97,68.979 44.97,67.5 Z" id="Path" fill="#31A7A2"></path>
        </g>
    </g>
</svg>