<?xml version="1.0" encoding="UTF-8"?>
<svg width="100px" height="100px" viewBox="0 0 100 100" version="1.1" xmlns="http://www.w3.org/2000/svg" xmlns:xlink="http://www.w3.org/1999/xlink">
    <!-- Generator: Sketch 52.2 (67145) - http://www.bohemiancoding.com/sketch -->
    <title>icon-wifi</title>
    <desc>Created with Sketch.</desc>
    <defs>
        <linearGradient x1="12.9061023%" y1="0%" x2="85.9823324%" y2="100%" id="linearGradient-1">
            <stop stop-color="#0FA49F" offset="0%"></stop>
            <stop stop-color="#8C2E74" offset="100%"></stop>
        </linearGradient>
    </defs>
    <g id="icon-wifi" stroke="none" stroke-width="1" fill="none" fill-rule="evenodd">
        <g>
            <path d="M50,0 C77.614,0 100,22.386 100,50 C100,77.614 77.614,100 50,100 C22.386,100 0,77.614 0,50 C0,22.386 22.386,0 50,0 Z" id="Path" fill="url(#linearGradient-1)" fill-rule="nonzero" opacity="0.243419829"></path>
            <path d="M68.839,96.316 L14,67 L14,70 C14,70 13.775,71.871 16.014,73.062 C23.74,77.135 51.641,91.847 63.55,98.126 C65.356,97.619 67.121,97.016 68.839,96.316 Z" id="Path" fill="#D6D9D9"></path>
            <g id="Group" transform="translate(14.000000, 50.000000)" fill="#37A18E" fill-rule="nonzero">
                <path d="M65.682,27.503 C61.724,29.464 55.308,29.464 51.35,27.503 L2.982,3.532 C1.514,2.804 0.594,1.909 0.214,0.97 L-8.8817842e-15,0.97 L-8.8817842e-15,16.498 L2,19.528 L50,44.222 L54.191,46.571 C66.772,41.652 76.868,31.788 82.092,19.368 L65.682,27.503 Z M83.455,15.739 L83.366,16 L83.455,15.739 Z" id="Shape"></path>
            </g>
            <path d="M22.5,16 C21.119,16 20,17.119 20,18.5 C20,18.672 20.018,18.839 20.05,19 L20,19 L20,51 L25,48 L25,19 L24.95,19 C24.983,18.839 25,18.672 25,18.5 C25,17.119 23.881,16 22.5,16 Z M35,13.5 C35,12.119 33.881,11 32.5,11 C31.119,11 30,12.119 30,13.5 C30,13.672 30.018,13.839 30.051,14 L30,14 L30,46 L35,43 L35,14 L34.949,14 C34.982,13.839 35,13.672 35,13.5 Z" id="Shape" fill="#E4E7E7" fill-rule="nonzero"></path>
            <path d="M20,18 L20,51 L22,48 L22,19.959 C20.859,19.774 20,18.968 20,18 Z M30,13 L30,46 L32,43 L32,14.959 C30.859,14.774 30,13.968 30,13 Z" id="Shape" fill="#C2C5C5" fill-rule="nonzero"></path>
            <g id="Group" transform="translate(20.000000, 35.000000)" fill="#B6B9B9" fill-rule="nonzero">
                <path d="M0,9.934 L5,7.456 L5,5.456 L0,7.934 L0,9.934 Z M15,0.5 L10,2.978 L10,4.978 L15,2.5 L15,0.5 Z" id="Shape"></path>
            </g>
            <path d="M22,41.943 L20,42.934 L20,44.934 L22,43.943 L22,41.943 Z M32,36.986 L30,37.978 L30,39.978 L32,38.986 L32,36.986 Z" id="Shape" fill="#9B9D9D" fill-rule="nonzero"></path>
            <path d="M65.35,22.458 L16.982,46.43 C13.024,48.391 13.024,51.571 16.982,53.533 L65.35,77.503 C69.308,79.464 75.724,79.464 79.682,77.503 L96.11,69.36 C98.614,63.405 100,56.865 100,50 C100,43.117 98.607,36.559 96.092,30.591 L79.682,22.458 C75.724,20.497 69.308,20.497 65.35,22.458 Z" id="Path" fill="#3DB39E"></path>
            <path d="M86.008,54.475 C84.889,53.915 83.074,53.915 81.955,54.475 C80.836,55.036 80.836,55.943 81.955,56.503 C83.074,57.063 84.889,57.063 86.008,56.503 C87.127,55.942 87.127,55.035 86.008,54.475 Z M84.32,43.483 C85.693,43.477 86.815,42.916 86.827,42.229 C86.839,41.542 85.736,40.991 84.363,40.997 C76.59,41.032 69.255,42.578 63.71,45.352 C58.164,48.126 55.072,51.796 55.004,55.686 C54.992,56.373 56.095,56.924 57.467,56.918 C58.154,56.915 58.778,56.773 59.231,56.546 C59.684,56.319 59.968,56.007 59.975,55.664 C60.031,52.438 62.594,49.394 67.194,47.095 C71.791,44.795 77.875,43.512 84.32,43.483 Z M84.061,47.847 C85.406,47.844 86.5,47.296 86.505,46.623 C86.51,45.951 85.425,45.407 84.08,45.41 C78.691,45.422 73.617,46.481 69.792,48.395 C65.967,50.309 63.848,52.847 63.825,55.543 C63.82,56.216 64.905,56.759 66.25,56.756 C66.922,56.755 67.533,56.617 67.975,56.396 C68.418,56.175 68.693,55.87 68.696,55.534 C68.712,53.489 70.319,51.562 73.221,50.111 C76.123,48.659 79.973,47.854 84.061,47.847 Z M86.994,50.917 C86.982,50.238 85.874,49.684 84.517,49.678 C81.242,49.664 78.173,50.29 75.876,51.44 C73.579,52.588 72.329,54.124 72.355,55.762 C72.367,56.442 73.475,56.996 74.833,57.001 C75.511,57.005 76.123,56.869 76.563,56.648 C77.004,56.428 77.274,56.122 77.268,55.783 C77.251,54.8 78.001,53.881 79.378,53.191 C80.754,52.503 82.594,52.127 84.557,52.135 C85.915,52.142 87.006,51.596 86.994,50.917 Z" id="Shape" fill="#94D0C6" fill-rule="nonzero"></path>
            <polygon id="Path" fill="#6DC2B3" points="57.993 33.66 71.431 26.996 74.006 28.341 60.568 35.004 57.993 33.66"></polygon>
            <path d="M17,53.541 L16.982,53.532 C15.514,52.804 14.594,51.909 14.214,50.97 L14,49.98 L14,66.499 L16,69.529 L17.024,70.055 L17,69.772 L17,53.541 Z" id="Path" fill="#319180"></path>
            <path d="M68,78.444 L68,96.647 C70.432,95.708 72.77,94.585 75,93.293 L75,78.815 C72.673,79.105 70.184,78.983 68,78.444 Z" id="Path" fill="#41A694"></path>
        </g>
    </g>
</svg>