<?xml version="1.0" encoding="UTF-8"?>
<svg width="40px" height="40px" viewBox="0 0 40 40" version="1.1" xmlns="http://www.w3.org/2000/svg" xmlns:xlink="http://www.w3.org/1999/xlink">
    <!-- Generator: Sketch 51.2 (57519) - http://www.bohemiancoding.com/sketch -->
    <title>icon-dribbble-light</title>
    <desc>Created with Sketch.</desc>
    <defs></defs>
    <g id="Symbols" stroke="none" stroke-width="1" fill="none" fill-rule="evenodd">
        <g id="externals-light" transform="translate(0.000000, -70.000000)" fill="#FFFFFF" fill-rule="nonzero">
            <g id="icon-dribbble-light">
                <g transform="translate(0.000000, 70.000000)">
                    <path d="M20,0 C8.95333333,0 0,8.955 0,20 C0,31.045 8.95333333,40 20,40 C31.0466667,40 40,31.045 40,20 C40,8.955 31.0466667,0 20,0 Z M36.475,19.0683333 C32.1833333,18.365 28.2366667,18.3266667 24.6366667,18.9466667 C24.23,18.0083333 23.8083333,17.0716667 23.3583333,16.1466667 C27.2083333,14.48 30.3,12.2166667 32.605,9.34333333 C34.855,12 36.2666667,15.375 36.475,19.0683333 Z M30.0716667,6.93166667 C28.0633333,9.52166667 25.2916667,11.57 21.7616667,13.065 C20.0683333,9.96333333 18.1316667,6.93833333 15.9483333,4.00166667 C17.2466667,3.67333333 18.6,3.47833333 20,3.47833333 C23.7916667,3.47833333 27.28,4.77666667 30.0716667,6.93166667 Z M12.545,5.27666667 C14.7633333,8.18 16.73,11.1733333 18.44,14.245 C14.39,15.4366667 9.555,16.0483333 3.96666667,16.0866667 C5.12,11.3616667 8.30166667,7.43166667 12.545,5.27666667 Z M3.47833333,20 L3.5,19.5733333 C9.915,19.565 15.4483333,18.8266667 20.0833333,17.37 C20.4716667,18.1616667 20.8433333,18.9566667 21.2,19.7566667 C15.5666667,21.5183333 10.925,25.1266667 7.305,30.5566667 C4.91833333,27.6916667 3.47833333,24.0116667 3.47833333,20 Z M9.86,33.0166667 C13.1416667,27.87 17.33,24.52 22.5233333,22.9716667 C24.07,27.005 25.205,31.155 25.9283333,35.405 C20.3466667,37.5566667 14.34,36.515 9.86,33.0166667 Z M29.17,33.7333333 C28.44,29.8116667 27.37,25.9783333 25.97,22.2383333 C29.0966667,21.7966667 32.5366667,21.9116667 36.3016667,22.565 C35.5733333,27.2083333 32.9216667,31.2183333 29.17,33.7333333 Z" id="shape"></path>
                </g>
            </g>
        </g>
    </g>
</svg>