<?xml version="1.0" encoding="UTF-8"?>
<svg width="100px" height="100px" viewBox="0 0 100 100" version="1.1" xmlns="http://www.w3.org/2000/svg" xmlns:xlink="http://www.w3.org/1999/xlink">
    <!-- Generator: Sketch 52.2 (67145) - http://www.bohemiancoding.com/sketch -->
    <title>icon-webcam</title>
    <desc>Created with Sketch.</desc>
    <g id="icon-webcam" stroke="none" stroke-width="1" fill="none" fill-rule="evenodd">
        <g id="Path">
            <path d="M50,0 C77.614,0 100,22.386 100,50 C100,77.615 77.614,100 50,100 C22.386,100 0,77.615 0,50 C0,22.386 22.386,0 50,0 Z" fill="#2EA9D3"></path>
            <path d="M97.031,67 L2.969,67 C9.926,86.245 28.355,100 50,100 C71.646,100 90.073,86.245 97.031,67 Z" fill="#2587A9"></path>
            <path d="M67,81.422 C67,76.033 59.389,71.666 50,71.666 C40.611,71.666 33,76.033 33,81.422 L33.003,81.422 L33,81.44 C33,84.352 40.611,86.711 50,86.711 C59.389,86.711 67,84.352 67,81.44 L66.997,81.422 L67,81.422 Z" fill="#FFFFFF"></path>
            <path d="M56.614,72.432 C54.581,72.154 52.346,72 50,72 C47.654,72 45.419,72.154 43.386,72.432 C38.595,73.594 34.945,75.986 33.588,78.914 C35.519,81.266 42.125,83 50,83 C57.875,83 64.48,81.266 66.412,78.914 C65.056,75.985 61.405,73.594 56.614,72.432 Z" fill="#F0F0F0"></path>
            <path d="M50,71.666 C45.285,71.666 41.021,72.769 37.94,74.548 C39.861,76.57 44.532,78 50,78 C55.468,78 60.139,76.57 62.06,74.548 C58.979,72.769 54.715,71.666 50,71.666 Z" fill="#C0C0C0"></path>
            <path d="M50,18 C65.464,18 78,30.536 78,46 C78,61.465 65.464,74 50,74 C34.536,74 22,61.465 22,46 C22,30.537 34.536,18 50,18 Z" fill="#F0F0F0"></path>
            <path d="M50,21 C51.104,21 52,21.896 52,23 C52,24.104 51.104,25 50,25 C48.896,25 48,24.104 48,23 C48,21.896 48.896,21 50,21 Z" fill="#E6877F"></path>
            <path d="M77.978,45.129 C77.957,44.436 77.917,43.748 77.847,43.068 C69.877,44.906 60.249,46 50,46 C39.751,46 30.123,44.906 22.153,43.068 C22.083,43.748 22.043,44.435 22.022,45.129 C30.008,46.949 39.59,48 50,48 C60.41,48 69.991,46.949 77.978,45.129 Z" fill="#D8D8D8"></path>
            <path d="M50,29.001 C40.611,29.001 33,36.611 33,46.001 C33,55.39 40.611,63.001 50,63.001 C59.389,63.001 67,55.39 67,46.001 C67,36.612 59.389,29.001 50,29.001 Z" fill="#2B414D"></path>
            <path d="M50,32.988 C42.813,32.988 36.987,38.815 36.987,46.002 C36.987,53.189 42.813,59.015 50,59.015 C57.187,59.015 63.013,53.189 63.013,46.002 C63.013,38.815 57.187,32.988 50,32.988 Z" fill="#475F6C"></path>
            <path d="M50,36.006 C44.479,36.006 40.005,40.482 40.005,46.002 C40.005,51.522 44.48,55.996 50,55.996 C55.52,55.996 59.995,51.521 59.995,46.002 C59.995,40.481 55.521,36.006 50,36.006 Z" fill="#2B414D"></path>
            <path d="M50,40.988 C47.23,40.988 44.986,43.233 44.986,46.002 C44.986,48.771 47.23,51.016 50,51.016 C52.769,51.016 55.014,48.772 55.014,46.002 C55.014,43.232 52.769,40.988 50,40.988 Z" fill="#1E2D36"></path>
            <path d="M48.008,42.017 C49.109,42.017 50,42.909 50,44.009 C50,45.109 49.108,46.002 48.008,46.002 C46.908,46.002 46.015,45.109 46.015,44.009 C46.015,42.909 46.907,42.017 48.008,42.017 Z" fill="#566268"></path>
            <path d="M50,70 C35.21,70 23.105,58.53 22.079,44 C22.032,44.662 22,45.327 22,46 C22,61.465 34.536,74 50,74 C65.464,74 78,61.465 78,46 C78,45.327 77.968,44.662 77.921,44 C76.895,58.53 64.791,70 50,70 Z" fill="#D8D8D8"></path>
            <path d="M50,24 C49.069,24 48.294,23.361 48.071,22.5 C48.029,22.661 48,22.827 48,23 C48,24.104 48.896,25 50,25 C51.104,25 52,24.104 52,23 C52,22.826 51.971,22.661 51.93,22.5 C51.706,23.362 50.931,24 50,24 Z" fill="#BC6E68"></path>
        </g>
    </g>
</svg>