<?xml version="1.0" encoding="UTF-8"?>
<svg width="100px" height="100px" viewBox="0 0 100 100" version="1.1" xmlns="http://www.w3.org/2000/svg" xmlns:xlink="http://www.w3.org/1999/xlink">
    <!-- Generator: Sketch 52.2 (67145) - http://www.bohemiancoding.com/sketch -->
    <title>icon-vault</title>
    <desc>Created with Sketch.</desc>
    <g id="icon-vault" stroke="none" stroke-width="1" fill="none" fill-rule="evenodd">
        <g>
            <path d="M50,0 C77.614,0 100,22.386 100,50 C100,77.614 77.614,100 50,100 C22.386,100 0,77.614 0,50 C0,22.386 22.386,0 50,0 Z" id="Path" fill="#F2F1EF"></path>
            <path d="M23,62 L23,38 C23,37.069 23.639,36.294 24.5,36.071 C24.339,36.029 24.174,36 24,36 C22.896,36 22,36.896 22,38 L22,62 C22,63.105 22.896,64 24,64 C24.174,64 24.339,63.971 24.5,63.93 C23.639,63.706 23,62.932 23,62 Z" id="Path" fill="#E6E5E3"></path>
            <path d="M50,5 C25.147,5 5,25.147 5,50 C5,74.854 25.147,95 50,95 C74.853,95 95,74.854 95,50 C95,25.147 74.853,5 50,5 Z M50,93 C26.252,93 7,73.748 7,50 C7,26.252 26.252,7 50,7 C73.748,7 93,26.252 93,50 C93,73.748 73.748,93 50,93 Z M25,41 C27.209,41 29,39.209 29,37 C29,34.791 27.209,33 25,33 C22.791,33 21,34.791 21,37 C21,39.209 22.791,41 25,41 Z M25,59 C22.791,59 21,60.791 21,63 C21,65.209 22.791,67 25,67 C27.209,67 29,65.209 29,63 C29,60.791 27.209,59 25,59 Z" id="Shape" fill="#D9D8D7" fill-rule="nonzero"></path>
            <path d="M25,36 C26.104,36 27,36.896 27,38 L27,62 C27,63.105 26.104,64 25,64 C23.896,64 23,63.105 23,62 L23,38 C23,36.896 23.896,36 25,36 Z" id="Path" fill="#FAFAFA"></path>
            <path d="M59,28 C71.15,28 81,37.85 81,50 C81,62.15 71.15,72 59,72 C46.85,72 37,62.15 37,50 C37,37.85 46.85,28 59,28 Z" id="Path" fill="#D9D8D7"></path>
            <path d="M59,34 C67.837,34 75,41.164 75,50 C75,58.837 67.837,66 59,66 C50.163,66 43,58.837 43,50 C43,41.164 50.163,34 59,34 Z" id="Path" fill="#324D5B"></path>
            <path d="M59,59 C54.029,59 50,54.971 50,50 C50,48.025 50.644,46.205 51.722,44.721 C49.47,46.357 48,49.004 48,52 C48,56.971 52.029,61 57,61 C59.996,61 62.643,59.53 64.278,57.278 C62.795,58.356 60.975,59 59,59 Z" id="Path" fill="#283E49"></path>
            <path d="M61.596,48.938 L71.044,39.49 C70.567,38.945 70.056,38.433 69.511,37.956 L60.063,47.404 L60.063,34.054 C59.71,34.03 59.358,34 59,34 C58.642,34 58.29,34.03 57.938,34.054 L57.938,47.405 L48.49,37.957 C47.945,38.434 47.433,38.945 46.957,39.49 L56.405,48.938 L43.054,48.938 C43.03,49.291 43,49.641 43,50 C43,50.359 43.03,50.71 43.054,51.062 L56.405,51.062 L46.957,60.51 C47.434,61.055 47.945,61.567 48.49,62.043 L57.938,52.595 L57.938,65.946 C58.29,65.97 58.642,66 59,66 C59.358,66 59.71,65.97 60.062,65.946 L60.062,52.596 L69.51,62.044 C70.055,61.567 70.568,61.056 71.043,60.51 L61.595,51.063 L74.946,51.063 C74.97,50.71 75,50.359 75,50 C75,49.641 74.97,49.291 74.946,48.938 L61.596,48.938 Z" id="Path" fill="#5B717C"></path>
            <path d="M59,41 C63.971,41 68,45.029 68,50 C68,54.971 63.971,59 59,59 C54.029,59 50,54.971 50,50 C50,45.029 54.029,41 59,41 Z" id="Path" fill="#D9D8D7"></path>
            <g id="Group" transform="translate(22.000000, 36.000000)" fill="#CFCECD" fill-rule="nonzero">
                <path d="M0,24.38 L0,26 C0,27.105 0.896,28 2,28 C2.174,28 2.339,27.971 2.5,27.93 C1.639,27.706 1,26.932 1,26 L1,23.555 C0.622,23.775 0.286,24.052 0,24.38 Z M0,3.62 C0.286,3.948 0.622,4.225 1,4.445 L1,2 C1,1.069 1.639,0.294 2.5,0.071 C2.339,0.029 2.174,0 2,0 C0.896,0 0,0.896 0,2 L0,3.62 Z" id="Shape"></path>
            </g>
            <g id="Group" transform="translate(50.000000, 47.000000)" fill="#CECDCC" fill-rule="nonzero">
                <path d="M8.98,3.022 L17.531,5.852 C17.831,4.955 18,3.998 18,3 C18,2.002 17.831,1.045 17.531,0.148 L8.98,3.022 Z M0,3 C0,3.992 0.167,4.944 0.463,5.837 L8.98,3.022 L0.463,0.163 C0.167,1.056 7.10542736e-15,2.008 7.10542736e-15,3 Z" id="Shape"></path>
            </g>
            <g id="Group" transform="translate(56.000000, 41.000000)" fill="#E4E4E3" fill-rule="nonzero">
                <path d="M3,0 C2.002,0 1.045,0.169 0.148,0.469 L2.98,9.022 L5.851,0.469 C4.955,0.169 3.998,7.10542736e-15 3,7.10542736e-15 Z M2.98,9.022 L0.163,17.537 C1.056,17.833 2.008,18 3,18 C3.992,18 4.944,17.833 5.837,17.537 L2.98,9.022 Z" id="Shape"></path>
            </g>
            <g id="Group" transform="translate(48.000000, 48.000000)" fill="#495A63" fill-rule="nonzero">
                <path d="M3.921,7.546 L1.921,9.546 C2.369,10.117 2.883,10.631 3.454,11.079 L5.454,9.079 C4.883,8.631 4.369,8.117 3.921,7.546 Z M2.068,3.062 C2.027,2.714 2,2.36 2,2 C2,1.64 2.028,1.287 2.07,0.938 L0.544,0.938 C0.298,1.612 0.134,2.324 0.057,3.063 L2.068,3.063 L2.068,3.062 Z M12.062,12.456 L12.062,10.93 C11.714,10.972 11.36,11 11,11 C10.64,11 10.286,10.973 9.938,10.932 L9.938,12.943 C10.677,12.865 11.389,12.701 12.062,12.456 Z" id="Shape"></path>
            </g>
        </g>
    </g>
</svg>