<?xml version="1.0" encoding="UTF-8"?>
<svg width="100px" height="100px" viewBox="0 0 100 100" version="1.1" xmlns="http://www.w3.org/2000/svg" xmlns:xlink="http://www.w3.org/1999/xlink">
    <!-- Generator: Sketch 52.2 (67145) - http://www.bohemiancoding.com/sketch -->
    <title>icon-store</title>
    <desc>Created with Sketch.</desc>
    <defs>
        <linearGradient x1="12.9061023%" y1="0%" x2="85.9823324%" y2="100%" id="linearGradient-1">
            <stop stop-color="#0FA49F" offset="0%"></stop>
            <stop stop-color="#8C2E74" offset="100%"></stop>
        </linearGradient>
        <path d="M50,0 C22.386,0 0,22.386 0,50 C0,77.614 22.386,99.999 50,99.999 C77.614,99.999 100,77.614 100,50 C100,22.386 77.614,-7.10542736e-15 50,0 Z" id="path-2"></path>
    </defs>
    <g id="icon-store" stroke="none" stroke-width="1" fill="none" fill-rule="evenodd">
        <g>
            <path d="M50,0 C22.386,0 0,22.386 0,50 C0,77.614 22.386,99.999 50,99.999 C77.614,99.999 100,77.614 100,50 C100,22.386 77.614,-7.10542736e-15 50,0 Z" id="Path" fill="#222E39"></path>
            <g id="Clipped">
                <mask id="mask-3" fill="white">
                    <use xlink:href="#path-2"></use>
                </mask>
                <use id="a" fill="url(#linearGradient-1)" fill-rule="nonzero" opacity="0.243419829" xlink:href="#path-2"></use>
                <g id="Group" mask="url(#mask-3)">
                    <g transform="translate(20.000000, 26.000000)">
                        <polyline id="Path" fill="#D7EFEF" fill-rule="evenodd" points="82 48 82 76 18 76 18 48 82 48"></polyline>
                        <polygon id="Path" fill="#E19178" fill-rule="evenodd" points="6 10 84 10 84 82 6 82"></polygon>
                        <path d="M16,45 L82,45 C82.553,45 83,45.447 83,46 L83,76 C83,76.553 82.553,77 82,77 L16,77 C15.447,77 15,76.553 15,76 L15,46 C15,45.447 15.447,45 16,45 Z" id="Path" fill="#CCE3E3" fill-rule="evenodd"></path>
                        <path d="M81,47 L81,75 L17,75 L17,47 L81,47 Z M82,45 L16,45 C15.447,45 15,45.447 15,46 L15,76 C15,76.553 15.447,77 16,77 L82,77 C82.553,77 83,76.553 83,76 L83,46 C83,45.447 82.553,45 82,45 Z" id="Shape" fill="#FFFFFF" fill-rule="nonzero"></path>
                        <polyline id="Path" fill="#D7EFEF" fill-rule="evenodd" points="82 48 82 76 18 76 18 48 82 48"></polyline>
                        <path d="M38,66 L38,62 L36,62 L36,57 L31,57 L31,55 L33,55 L33,52 L27,52 L27,55 L29,55 L29,57 L26,57 L26,62 L24,62 L24,66 L17,66 L17,73.999 L63,73.999 L63,66 L38,66 Z M38,66 L38,62 L36,62 L36,57 L31,57 L31,55 L33,55 L33,52 L27,52 L27,55 L29,55 L29,57 L26,57 L26,62 L24,62 L24,66 L17,66 L17,73.999 L63,73.999 L63,66 L38,66 Z" id="Shape" fill="#CCE3E3" fill-rule="nonzero"></path>
                        <polygon id="Path" fill="#E7F5F5" fill-rule="evenodd" points="40 49 76 49 76 76 52 76"></polygon>
                        <path d="M76,25 C74.009,25 72.305,26.172 71.5,27.856 C70.695,26.172 68.991,25 67,25 C65.356,25 63.911,25.804 63,27.027 C62.089,25.804 60.644,25 59,25 C57.356,25 55.911,25.804 55,27.027 C54.089,25.804 52.644,25 51,25 C49.356,25 47.911,25.804 47,27.027 C46.089,25.804 44.644,25 43,25 C41.356,25 39.911,25.804 39,27.027 C38.089,25.804 36.644,25 35,25 C33.356,25 31.911,25.804 31,27.027 C30.089,25.804 28.644,25 27,25 C25.356,25 23.911,25.804 23,27.027 C22.089,25.804 20.644,25 19,25 C17.356,25 15.911,25.804 15,27.027 C14.089,25.804 12.644,25 11,25 C8.238,25 6,27.238 6,30 L6,36 C6,38.762 8.238,40.999 11,40.999 C12.644,40.999 14.089,40.196 15,38.973 C15.911,40.197 17.356,40.999 19,40.999 C20.644,40.999 22.089,40.196 23,38.973 C23.911,40.197 25.356,40.999 27,40.999 C28.644,40.999 30.089,40.196 31,38.973 C31.911,40.197 33.356,40.999 35,40.999 C36.644,40.999 38.089,40.196 39,38.973 C39.911,40.197 41.356,40.999 43,40.999 C44.644,40.999 46.089,40.196 47,38.973 C47.911,40.197 49.356,40.999 51,40.999 C52.644,40.999 54.089,40.196 55,38.973 C55.911,40.197 57.356,40.999 59,40.999 C60.644,40.999 62.089,40.196 63,38.973 C63.911,40.197 65.356,40.999 67,40.999 C68.991,40.999 70.695,39.827 71.5,38.144 C72.305,39.828 74.009,40.999 76,40.999 C78.762,40.999 81,38.762 81,36 L81,30 C81,27.238 78.762,25 76,25 Z M6,11 L6,13 L84,13 L84,11 L6,11 Z" id="Shape" fill="#CA826C" fill-rule="nonzero"></path>
                        <path d="M0,33 C0,35.209 1.791,37 4,37 C6.209,37 8,35.209 8,33 L8,25 L0,25 L0,33 Z M16,33 C16,35.209 17.791,37 20,37 C22.209,37 24,35.209 24,33 L24,25 L16,25 L16,33 Z M32,33 C32,35.209 33.791,37 36,37 C38.209,37 40,35.209 40,33 L40,25 L32,25 L32,33 Z M48,33 C48,35.209 49.791,37 52,37 C54.209,37 56,35.209 56,33 L56,25 L48,25 L48,33 Z M64,33 C64,35.209 65.791,37 68,37 C70.209,37 72,35.209 72,33 L72,25 L64,25 L64,33 Z M80,25 L80,33 C80,35.209 81.791,37 84,37 C86.209,37 88,35.209 88,33 L88,25 L80,25 Z" id="Shape" fill="#FFFFFF" fill-rule="nonzero"></path>
                        <polygon id="Path" fill="#E9E9E9" fill-rule="evenodd" points="6 19 84 19 82 25 0 25"></polygon>
                        <path d="M8,25 L16,25 L22,19 L14,19 L8,25 Z M24,25 L32,25 L38,19 L30,19 L24,25 Z M40,25 L48,25 L54,19 L46,19 L40,25 Z M56,25 L64,25 L70,19 L62,19 L56,25 Z M78,19 L72,25 L80,25 L86,19 L78,19 Z" id="Shape" fill="#D6483D" fill-rule="nonzero"></path>
                        <path d="M8,33 C8,35.209 9.791,37 12,37 C14.209,37 16,35.209 16,33 L16,25 L8,25 L8,33 Z M24,33 C24,35.209 25.791,37 28,37 C30.209,37 32,35.209 32,33 L32,25 L24,25 L24,33 Z M40,33 C40,35.209 41.791,37 44,37 C46.209,37 48,35.209 48,33 L48,25 L40,25 L40,33 Z M56,33 C56,35.209 57.791,37 60,37 C62.209,37 64,35.209 64,33 L64,25 L56,25 L56,33 Z M72,25 L72,33 C72,35.209 73.791,37 76,37 C78.209,37 80,35.209 80,33 L80,25 L72,25 Z" id="Shape" fill="#E2574C" fill-rule="nonzero"></path>
                        <path d="M86.5,6 L82,6 L82,3 C82.553,3 83,2.553 83,2 C83,1.448 82.553,1.001 82,1.001 C82,0.449 81.553,0.001 81,0.001 C80.447,0.001 80,0.449 80,1.001 L10,1.001 C10,0.448 9.553,0.001 9,0.001 C8.447,0.001 8,0.449 8,1.001 L8,6.001 L5.5,6.001 C4.119,6.001 3,7.121 3,8.501 C3,9.881 4.119,11.001 5.5,11.001 L86.5,11.001 C87.881,11.001 89,9.882 89,8.501 C89,7.12 87.881,6 86.5,6 Z M80,3 L80,6 L73,6 L73,3 L80,3 Z M71,3 L71,6 L64,6 L64,3 L71,3 Z M62,3 L62,6 L55,6 L55,3 L62,3 Z M53,3 L53,6 L46,6 L46,3 L53,3 Z M44,3 L44,6 L37,6 L37,3 L44,3 Z M35,3 L35,6 L28,6 L28,3 L35,3 Z M26,3 L26,6 L19,6 L19,3 L26,3 Z M10,3 L17,3 L17,6 L10,6 L10,3 Z" id="Shape" fill="#F3F3F3" fill-rule="nonzero"></path>
                        <polygon id="Path" fill="#E0EEEE" fill-rule="evenodd" points="51.11 73.999 63 73.999 63 66 47.556 66"></polygon>
                        <polygon id="Path" fill="#C2D7D7" fill-rule="evenodd" points="17 66 18 66 18 75 17 75"></polygon>
                    </g>
                </g>
            </g>
        </g>
    </g>
</svg>