<?xml version="1.0" encoding="UTF-8"?>
<svg width="100px" height="100px" viewBox="0 0 100 100" version="1.1" xmlns="http://www.w3.org/2000/svg" xmlns:xlink="http://www.w3.org/1999/xlink">
    <!-- Generator: Sketch 52.2 (67145) - http://www.bohemiancoding.com/sketch -->
    <title>icon-chat-light</title>
    <desc>Created with Sketch.</desc>
    <defs>
        <linearGradient x1="15.2144849%" y1="3.15886922%" x2="85.9823324%" y2="100%" id="linearGradient-1">
            <stop stop-color="#F9F9F9" offset="0%"></stop>
            <stop stop-color="#F1F1F1" offset="100%"></stop>
        </linearGradient>
        <path d="M50,0 C77.614,0 100,22.385 100,50 C100,77.613 77.614,100 50,100 C22.386,100 0,77.613 0,50 C0,22.385 22.386,0 50,0 Z" id="path-2"></path>
        <filter x="-2.5%" y="-2.5%" width="105.0%" height="105.0%" filterUnits="objectBoundingBox" id="filter-3">
            <feGaussianBlur stdDeviation="1.5" in="SourceAlpha" result="shadowBlurInner1"></feGaussianBlur>
            <feOffset dx="0" dy="2" in="shadowBlurInner1" result="shadowOffsetInner1"></feOffset>
            <feComposite in="shadowOffsetInner1" in2="SourceAlpha" operator="arithmetic" k2="-1" k3="1" result="shadowInnerInner1"></feComposite>
            <feColorMatrix values="0 0 0 0 0   0 0 0 0 0   0 0 0 0 0  0 0 0 0.0367130888 0" type="matrix" in="shadowInnerInner1"></feColorMatrix>
        </filter>
    </defs>
    <g id="icon-chat-light" stroke="none" stroke-width="1" fill="none" fill-rule="evenodd">
        <g>
            <g id="Path" fill-rule="nonzero">
                <use fill="url(#linearGradient-1)" xlink:href="#path-2"></use>
                <use fill="black" fill-opacity="1" filter="url(#filter-3)" xlink:href="#path-2"></use>
            </g>
            <path d="M53,58.424 C53,48.796 43.374,40.989 31.5,40.989 C19.626,40.989 10,48.795 10,58.424 C10,68.053 19.626,75.858 31.5,75.858 C32.544,75.858 33.562,75.778 34.566,75.661 C39.032,79.14 43.533,79.995 43.593,79.89 C42.024,78.273 41.069,76.222 40.48,74.251 C47.864,71.49 53,65.451 53,58.424 Z" id="Path" fill="#09CBC4"></path>
            <path d="M24.5,56 C23.119,56 22,57.119 22,58.5 C22,59.881 23.119,61 24.5,61 C25.881,61 27,59.881 27,58.5 C27,57.119 25.881,56 24.5,56 Z M32.5,56 C31.119,56 30,57.119 30,58.5 C30,59.881 31.119,61 32.5,61 C33.881,61 35,59.881 35,58.5 C35,57.119 33.881,56 32.5,56 Z" id="Shape" fill="#FFFFFF" fill-rule="nonzero"></path>
            <path d="M13,58.322 C13,50.931 18.146,44.577 25.544,41.681 C16.57,43.778 10,50.473 10,58.424 C10,66.791 17.271,73.774 26.965,75.461 C18.813,72.857 13,66.178 13,58.322 Z" id="Path" fill="#31A7A2"></path>
            <path d="M87.947,17.443 C83.252,15.25 77.809,13.989 72,13.989 C54.327,13.989 40,25.598 40,39.918 C40,50.37 47.638,59.372 58.635,63.473 C57.758,66.398 56.33,69.441 54,71.84 C54.09,71.994 60.769,70.725 67.404,65.574 C68.906,65.75 70.439,65.844 72,65.844 C83.999,65.844 94.449,60.49 99.926,52.574 C99.974,51.687 100,50.795 100,49.895 C100,37.498 95.454,26.167 87.947,17.443 Z" id="Path" fill="#26A6D1"></path>
            <path d="M58,36 C55.791,36 54,37.792 54,40.001 C54,42.212 55.791,44.001 58,44.001 C60.209,44.001 62,42.212 62,40.001 C62,37.792 60.209,36 58,36 Z M72,36 C69.791,36 68,37.792 68,40.001 C68,42.212 69.791,44.001 72,44.001 C74.209,44.001 76,42.212 76,40.001 C76,37.792 74.209,36 72,36 Z M86,36 C83.791,36 82,37.792 82,40.001 C82,42.212 83.791,44.001 86,44.001 C88.209,44.001 90,42.212 90,40.001 C90,37.792 88.209,36 86,36 Z" id="Shape" fill="#FFFFFF" fill-rule="nonzero"></path>
            <path d="M57,70.84 C59.33,68.442 60.758,65.399 61.635,62.473 C50.638,58.371 43,49.37 43,38.917 C43,28.56 50.498,19.624 61.333,15.47 C48.906,19.031 40,28.629 40,39.917 C40,50.369 47.638,59.371 58.635,63.472 C57.758,66.398 56.33,69.441 54,71.84 C54.048,71.922 55.938,71.6 58.68,70.528 C57.652,70.801 57.027,70.887 57,70.84 Z" id="Path" fill="#2295BC"></path>
            <g id="Group" transform="translate(53.000000, 37.000000)" fill="#2295BC" fill-rule="nonzero">
                <path d="M5,7 C2.791,7 1,5.211 1,3 C1,2.15 1.269,1.366 1.721,0.718 C0.683,1.442 0,2.64 0,4 C0,6.211 1.791,8 4,8 C5.36,8 6.559,7.318 7.281,6.28 C6.634,6.732 5.85,7 5,7 Z M19,7 C16.791,7 15,5.211 15,3 C15,2.15 15.269,1.366 15.721,0.718 C14.683,1.442 14,2.64 14,4 C14,6.211 15.791,8 18,8 C19.36,8 20.559,7.318 21.281,6.28 C20.634,6.732 19.85,7 19,7 Z M33,7 C30.791,7 29,5.211 29,3 C29,2.15 29.269,1.366 29.721,0.718 C28.683,1.442 28,2.64 28,4 C28,6.211 29.791,8 32,8 C33.36,8 34.559,7.318 35.281,6.28 C34.634,6.732 33.85,7 33,7 Z" id="Shape"></path>
            </g>
        </g>
    </g>
</svg>