<?xml version="1.0" encoding="UTF-8"?>
<svg width="40px" height="39px" viewBox="0 0 40 39" version="1.1" xmlns="http://www.w3.org/2000/svg" xmlns:xlink="http://www.w3.org/1999/xlink">
    <!-- Generator: Sketch 51.2 (57519) - http://www.bohemiancoding.com/sketch -->
    <title>icon-github-light</title>
    <desc>Created with Sketch.</desc>
    <defs></defs>
    <g id="Symbols" stroke="none" stroke-width="1" fill="none" fill-rule="evenodd">
        <g id="externals-light" transform="translate(0.000000, -140.000000)" fill="#FFFFFF" fill-rule="nonzero">
            <g id="icon-github-light">
                <g transform="translate(0.000000, 140.000000)">
                    <path d="M20,0 C8.95666667,0 0,8.955 0,20 C0,28.8366667 5.73,36.3333333 13.6783333,38.9783333 C14.6766667,39.1633333 15,38.5433333 15,38.0166667 L15,34.2933333 C9.43666667,35.5033333 8.27833333,31.9333333 8.27833333,31.9333333 C7.36833333,29.6216667 6.05666667,29.0066667 6.05666667,29.0066667 C4.24166667,27.765 6.195,27.7916667 6.195,27.7916667 C8.20333333,27.9316667 9.26,29.8533333 9.26,29.8533333 C11.0433333,32.91 13.9383333,32.0266667 15.08,31.515 C15.2583333,30.2233333 15.7766667,29.34 16.35,28.8416667 C11.9083333,28.3333333 7.23833333,26.6183333 7.23833333,18.9566667 C7.23833333,16.7716667 8.02,14.9883333 9.29833333,13.5883333 C9.09166667,13.0833333 8.40666667,11.0483333 9.49333333,8.295 C9.49333333,8.295 11.1733333,7.75833333 14.995,10.345 C16.59,9.90166667 18.3,9.68 20,9.67166667 C21.7,9.68 23.4116667,9.90166667 25.01,10.345 C28.8283333,7.75833333 30.505,8.295 30.505,8.295 C31.5933333,11.05 30.9083333,13.085 30.7016667,13.5883333 C31.985,14.9883333 32.76,16.7733333 32.76,18.9566667 C32.76,26.6383333 28.0816667,28.33 23.6283333,28.825 C24.345,29.445 25,30.6616667 25,32.5283333 L25,38.0166667 C25,38.5483333 25.32,39.1733333 26.335,38.9766667 C34.2766667,36.3283333 40,28.8333333 40,20 C40,8.955 31.045,0 20,0 Z" id="shape"></path>
                </g>
            </g>
        </g>
    </g>
</svg>