<?xml version="1.0" encoding="UTF-8"?>
<svg width="100px" height="100px" viewBox="0 0 100 100" version="1.1" xmlns="http://www.w3.org/2000/svg" xmlns:xlink="http://www.w3.org/1999/xlink">
    <!-- Generator: Sketch 52.2 (67145) - http://www.bohemiancoding.com/sketch -->
    <title>icon-suitup</title>
    <desc>Created with Sketch.</desc>
    <g id="icon-suitup" stroke="none" stroke-width="1" fill="none" fill-rule="evenodd">
        <g>
            <path d="M50,0 C77.614,0 100,22.387 100,50 C100,77.614 77.614,100 50,100 C22.386,100 0,77.614 0,50 C0,22.387 22.386,0 50,0 Z" id="Path" fill="#324D5B"></path>
            <path d="M9.092,21.267 L50,83 L51,83 L91.041,21.455 C82.008,8.491 66.999,0 50,0 C33.083,0 18.14,8.41 9.092,21.267 Z" id="Path" fill="#233640"></path>
            <path d="M50,83 L51,83 L75.689,7.103 C68.181,2.596 59.395,-7.10542736e-15 50,-7.10542736e-15 C40.635,-7.10542736e-15 31.875,2.581 24.382,7.062 L50,83 Z" id="Path" fill="#EEF3F3"></path>
            <polygon id="Path" fill="#FFFFFF" points="55 0 45 0 45 66.536 50 81 51 81 55 69"></polygon>
            <path d="M50,27 C51.104,27 52,26.104 52,25 C52,23.896 51.104,23 50,23 C48.896,23 48,23.896 48,25 C48,26.104 48.896,27 50,27 Z M50,43 C48.896,43 48,43.896 48,45 C48,46.104 48.896,47 50,47 C51.104,47 52,46.104 52,45 C52,43.896 51.104,43 50,43 Z M50,63 C48.896,63 48,63.896 48,65 C48,66.104 48.896,67 50,67 C51.104,67 52,66.104 52,65 C52,63.896 51.104,63 50,63 Z" id="Shape" fill="#6F828C" fill-rule="nonzero"></path>
            <path d="M99.975,51 L84,51 L84,56 L99.629,56 C99.826,54.356 99.941,52.688 99.975,51 Z" id="Path" fill="#283E49"></path>
            <path d="M84,50.96 L84,51 L99.975,51 L100,50 C100,48.228 99.904,46.479 99.725,44.754 L87.92,46.44 C85.671,46.762 84,48.688 84,50.96 Z" id="Path" fill="#EEF3F3"></path>
            <path d="M43,18 L49.936,8 L57,18 L55.028,0.252 C53.374,0.086 51.697,-1.77635684e-15 50,-1.77635684e-15 C48.303,-1.77635684e-15 46.626,0.086 44.972,0.252 L43,18 Z" id="Path" fill="#CCCCCC"></path>
            <g id="Group" transform="translate(25.000000, 0.000000)" fill="#FFFFFF" fill-rule="nonzero">
                <path d="M0.088,6.655 L18,18 L24.628,0.009 C15.694,0.075 7.323,2.488 0.088,6.655 Z M25.372,0.009 L32,18 L49.912,6.655 C42.677,2.488 34.306,0.075 25.372,0.009 Z" id="Shape"></path>
            </g>
        </g>
    </g>
</svg>