<?xml version="1.0" encoding="UTF-8"?>
<svg width="101px" height="102px" viewBox="0 0 101 102" version="1.1" xmlns="http://www.w3.org/2000/svg" xmlns:xlink="http://www.w3.org/1999/xlink">
    <!-- Generator: Sketch 52.2 (67145) - http://www.bohemiancoding.com/sketch -->
    <title>icon-wordpress-light</title>
    <desc>Created with Sketch.</desc>
    <defs>
        <linearGradient x1="15.2144849%" y1="3.15886922%" x2="85.9823324%" y2="100%" id="linearGradient-1">
            <stop stop-color="#F9F9F9" offset="0%"></stop>
            <stop stop-color="#F1F1F1" offset="100%"></stop>
        </linearGradient>
        <path d="M50.5,0 C77.8432745,0 100.009804,22.386 100.009804,50 C100.009804,77.614 77.8432745,100 50.5,100 C23.1567255,100 0.990196078,77.614 0.990196078,50 C0.990196078,22.386 23.1567255,0 50.5,0 Z" id="path-2"></path>
        <filter x="-2.5%" y="-2.5%" width="105.0%" height="105.0%" filterUnits="objectBoundingBox" id="filter-3">
            <feGaussianBlur stdDeviation="1.5" in="SourceAlpha" result="shadowBlurInner1"></feGaussianBlur>
            <feOffset dx="0" dy="2" in="shadowBlurInner1" result="shadowOffsetInner1"></feOffset>
            <feComposite in="shadowOffsetInner1" in2="SourceAlpha" operator="arithmetic" k2="-1" k3="1" result="shadowInnerInner1"></feComposite>
            <feColorMatrix values="0 0 0 0 0   0 0 0 0 0   0 0 0 0 0  0 0 0 0.0367130888 0" type="matrix" in="shadowInnerInner1"></feColorMatrix>
        </filter>
    </defs>
    <g id="icon-wordpress-light" stroke="none" stroke-width="1" fill="none" fill-rule="evenodd">
        <g transform="translate(0.000000, 1.000000)" fill-rule="nonzero">
            <g id="Path">
                <use fill="url(#linearGradient-1)" xlink:href="#path-2"></use>
                <use fill="black" fill-opacity="1" filter="url(#filter-3)" xlink:href="#path-2"></use>
            </g>
            <g id="iconfinder_WordPress_345397" transform="translate(14.000000, 14.000000)">
                <path d="M11.4545455,25.0909091 L24.2727273,60.2727273 C15.2727273,55.9090909 9,46.6363636 9,36 C9,32.1818182 9.81818182,28.3636364 11.4545455,25.0909091 Z M54.2727273,34.6363636 C54.2727273,31.3636364 53.1818182,28.9090909 52.0909091,27.2727273 C50.7272727,25.0909091 49.3636364,23.1818182 49.3636364,21 C49.3636364,18.5454545 51.2727273,16.0909091 54,16.0909091 C54,16.0909091 54.2727273,16.0909091 54.2727273,16.0909091 C49.3636364,11.7272727 43.0909091,9 36,9 C26.7272727,9 18.2727273,13.9090909 13.6363636,21 C14.1818182,21 14.7272727,21 15.2727273,21 C18,21 22.3636364,20.7272727 22.3636364,20.7272727 C23.7272727,20.7272727 24,22.9090909 22.6363636,22.9090909 C22.6363636,22.9090909 21.2727273,23.1818182 19.6363636,23.1818182 L29.4545455,52.3636364 L35.4545455,34.6363636 L31.3636364,23.1818182 C30,23.1818182 28.6363636,22.9090909 28.6363636,22.9090909 C27.2727273,22.9090909 27.2727273,20.7272727 28.9090909,20.7272727 C28.9090909,20.7272727 33.2727273,21 36,21 C38.7272727,21 43.0909091,20.7272727 43.0909091,20.7272727 C44.4545455,20.7272727 44.7272727,22.9090909 43.3636364,22.9090909 C43.3636364,22.9090909 42,23.1818182 40.3636364,23.1818182 L49.3636364,52.3636364 L52.0909091,43.3636364 C53.1818182,39.5454545 54.2727273,36.8181818 54.2727273,34.6363636 Z M36.5454545,38.4545455 L28.3636364,61.9090909 C30.8181818,62.7272727 33.2727273,63 36,63 C39,63 42.2727273,62.4545455 45,61.3636364 C45,61.3636364 44.7272727,61.0909091 44.7272727,61.0909091 L36.5454545,38.4545455 Z M59.7272727,23.1818182 C59.7272727,24 60,25.0909091 60,25.9090909 C60,28.6363636 59.4545455,31.6363636 57.8181818,35.4545455 L49.6363636,59.1818182 C57.5454545,54.5454545 63,45.8181818 63,36 C63,31.3636364 61.6363636,27 59.7272727,23.1818182 Z" id="Shape" fill="#3498D8"></path>
                <path d="M36.5,0 C16.4925926,0 0,16.4925926 0,36.5 C0,56.5074074 16.4925926,73 36.5,73 C56.5074074,73 73,56.5074074 73,36.5 C73,16.4925926 56.5074074,0 36.5,0 Z M36.5,68.6740741 C18.9259259,68.6740741 4.32592593,54.3444444 4.32592593,36.5 C4.32592593,18.9259259 18.6555556,4.32592593 36.5,4.32592593 C54.3444444,4.32592593 68.6740741,18.9259259 68.6740741,36.5 C68.6740741,54.0740741 54.0740741,68.6740741 36.5,68.6740741 Z" id="Shape" fill="#2980B9"></path>
            </g>
        </g>
    </g>
</svg>