<?xml version="1.0" encoding="UTF-8"?>
<svg width="100px" height="100px" viewBox="0 0 100 100" version="1.1" xmlns="http://www.w3.org/2000/svg" xmlns:xlink="http://www.w3.org/1999/xlink">
    <!-- Generator: Sketch 52.2 (67145) - http://www.bohemiancoding.com/sketch -->
    <title>icon-satellite</title>
    <desc>Created with Sketch.</desc>
    <defs>
        <linearGradient x1="12.9061023%" y1="0%" x2="85.9823324%" y2="100%" id="linearGradient-1">
            <stop stop-color="#0FA49F" offset="0%"></stop>
            <stop stop-color="#8C2E74" offset="100%"></stop>
        </linearGradient>
    </defs>
    <g id="icon-satellite" stroke="none" stroke-width="1" fill="none" fill-rule="evenodd">
        <g>
            <path d="M50,0 C77.614,0 100,22.386 100,50 C100,77.614 77.614,100 50,100 C22.386,100 0,77.614 0,50 C0,22.386 22.386,0 50,0 Z" id="Path" fill="url(#linearGradient-1)" fill-rule="nonzero" opacity="0.243419829"></path>
            <path d="M92,17 C96.418,17 100,20.582 100,25 C100,29.418 96.418,33 92,33 C87.582,33 84,29.418 84,25 C84,20.582 87.582,17 92,17 Z" id="Path" fill="#82D2ED"></path>
            <path d="M82.5,46.002 C82.201,48.7 80.7,50.201 78,50.502 C80.7,50.801 82.201,52.302 82.5,55.001 C82.801,52.302 84.301,50.801 87.001,50.502 C84.301,50.201 82.801,48.7 82.5,46.002 Z M70.5,13.002 C70.201,15.7 68.7,17.201 66,17.502 C68.7,17.801 70.201,19.302 70.5,22.001 C70.801,19.302 72.301,17.801 75.001,17.502 C72.301,17.201 70.801,15.7 70.5,13.002 Z" id="Shape" fill="#5B717C" fill-rule="nonzero"></path>
            <path d="M86.001,75.003 C85.4,80.4 82.4,83.402 77,84.003 C82.4,84.603 85.4,87.604 86.001,93.003 C86.602,87.604 89.602,84.603 95.002,84.003 C89.602,83.402 86.602,80.4 86.001,75.003 Z M42.001,9.003 C41.534,13.201 39.201,15.535 35.001,16.003 C39.201,16.469 41.535,18.803 42.001,23.003 C42.467,18.803 44.801,16.469 49.001,16.003 C44.801,15.535 42.467,13.201 42.001,9.003 Z" id="Shape" fill="#EFC75E" fill-rule="nonzero"></path>
            <path d="M71.003,68.124 L70.351,68.776 L64.483,74.65 L63.613,75.521 L50.137,89.011 L49.484,88.358 L49.483,88.358 L48.832,87.706 L41.659,80.526 L41.007,79.874 L50.226,70.645 L29.359,49.779 L20.136,59.011 L18.832,57.705 L11.659,50.525 L11.007,49.873 L30.569,30.291 L31.873,28.986 L33.177,30.291 L41.002,38.124 L40.349,38.777 L34.12,45.011 L33.176,45.956 L30.767,48.367 L51.634,69.234 L60.568,60.291 L61.872,58.986 L63.177,60.291 L71.003,68.124 Z M20.136,56.4 L25.352,51.178 L22.744,48.567 L17.527,53.789 L20.136,56.4 Z M16.224,52.483 L21.441,47.262 L18.833,44.651 L13.616,49.873 L16.224,52.483 Z M20.136,43.346 L22.744,45.957 L27.96,40.735 L25.352,38.124 L20.136,43.346 Z M31.874,31.597 L26.657,36.819 L29.265,39.43 L34.482,34.208 L31.874,31.597 Z M33.178,43.346 L38.395,38.124 L35.787,35.513 L30.57,40.735 L33.178,43.346 Z M31.874,44.651 L29.266,42.04 L24.05,47.262 L26.658,49.873 L31.874,44.651 Z M68.395,68.124 L65.787,65.514 L60.57,70.735 L63.178,73.346 L68.395,68.124 Z M61.873,74.65 L59.266,72.041 L54.049,77.262 L56.656,79.873 L61.873,74.65 Z M50.137,86.4 L55.353,81.177 L52.745,78.567 L47.529,83.789 L50.137,86.4 Z M43.615,79.873 L46.223,82.483 L51.44,77.261 L48.832,74.65 L43.615,79.873 Z M50.137,73.346 L52.744,75.957 L57.961,70.734 L55.353,68.124 L50.137,73.346 Z M56.656,66.818 L59.265,69.429 L64.482,64.206 L61.873,61.596 L56.656,66.818 Z" id="Shape" fill="#EBEDEE" fill-rule="nonzero"></path>
            <path d="M62,35 C63.656,35 65,36.343 65,38 C65,39.657 63.656,41 62,41 C60.344,41 59,39.657 59,38 C59,36.343 60.344,35 62,35 Z" id="Path" fill="#3CAC99"></path>
            <path d="M58.838,56.29 L50.467,64.668 L40.422,74.721 C36.145,79.001 29.287,79.078 25.105,74.893 C20.923,70.708 21,63.844 25.277,59.562 L34.054,50.779 L34.054,50.778 L43.692,41.132 C45.213,39.61 47.679,39.61 49.2,41.132 L58.838,50.778 C60.359,52.301 60.359,54.768 58.838,56.29 Z M69.99,45.301 C66.137,49.147 59.603,48.823 55.375,44.601 C51.145,40.379 50.82,33.856 54.673,30.01 L69.99,45.301 Z" id="Shape" fill="#EBEDEE" fill-rule="nonzero"></path>
            <path d="M46.827,53.161 C48.397,54.723 48.397,57.256 46.827,58.818 C45.257,60.38 42.711,60.38 41.14,58.818 C39.57,57.256 39.57,54.722 41.14,53.161 C42.71,51.6 45.257,51.6 46.827,53.161 Z M56.375,39.601 C54.299,37.529 53.17,34.903 53.007,32.312 C51.068,36.124 51.903,41.136 55.375,44.601 C59.604,48.824 66.138,49.147 69.99,45.301 L67.229,42.545 C63.655,43.648 59.42,42.641 56.375,39.601 Z" id="Shape" fill="#D3D5D6" fill-rule="nonzero"></path>
            <path d="M41.141,55.161 C42.711,53.599 45.257,53.599 46.828,55.161 C47.354,55.684 47.688,56.32 47.862,56.989 C48.206,55.663 47.872,54.199 46.828,53.161 C45.258,51.599 42.712,51.599 41.141,53.161 C40.097,54.199 39.763,55.663 40.107,56.989 C40.28,56.32 40.614,55.685 41.141,55.161 Z" id="Path" fill="#BDBFC0"></path>
            <path d="M43.984,51.99 C45.013,51.99 46.042,52.381 46.827,53.161 C48.397,54.723 48.397,57.256 46.827,58.818 C46.042,59.599 45.013,59.989 43.984,59.989 C42.955,59.989 41.926,59.599 41.141,58.818 C39.571,57.256 39.571,54.722 41.141,53.161 C41.926,52.381 42.955,51.99 43.984,51.99 Z M43.984,50.49 C42.511,50.49 41.126,51.06 40.083,52.097 C39.039,53.135 38.463,54.517 38.463,55.988 C38.463,57.46 39.038,58.842 40.083,59.882 C41.126,60.919 42.511,61.489 43.984,61.489 C45.457,61.489 46.842,60.919 47.885,59.882 C48.93,58.842 49.505,57.459 49.505,55.988 C49.505,54.517 48.93,53.136 47.885,52.097 C46.842,51.061 45.457,50.49 43.984,50.49 Z" id="Shape" fill="#324D5B" fill-rule="nonzero"></path>
            <polygon id="Path" fill="#3DB39E" points="26.818 58.021 25.277 59.563 25.015 59.852 40.14 74.977 40.422 74.721 41.97 73.171 26.818 58.021"></polygon>
            <path d="M52.467,60.668 L42.422,70.721 C38.145,75.001 31.287,75.078 27.105,70.893 C24.33,68.116 23.442,64.162 24.4,60.563 C21.019,64.854 21.233,71.019 25.105,74.893 C29.287,79.079 36.145,79.001 40.422,74.721 L50.466,64.668 L58.837,56.29 C59.688,55.439 60.045,54.295 59.944,53.184 L52.467,60.668 Z" id="Path" fill="#D3D5D6"></path>
            <path d="M40.834,72.035 C40.078,72.555 39.272,72.965 38.439,73.276 L40.14,74.976 L40.422,74.72 L41.97,73.17 L40.834,72.035 Z" id="Path" fill="#37A18E"></path>
            <path d="M94,30 C89.582,30 86,26.418 86,22 C86,21.007 86.189,20.06 86.521,19.183 C84.972,20.641 84,22.705 84,25 C84,29.418 87.582,33 92,33 C95.425,33 98.339,30.844 99.479,27.818 C98.048,29.167 96.123,30 94,30 Z" id="Path" fill="#6FB3CA"></path>
        </g>
    </g>
</svg>