<?xml version="1.0" encoding="UTF-8"?>
<svg width="39px" height="36px" viewBox="0 0 39 36" version="1.1" xmlns="http://www.w3.org/2000/svg" xmlns:xlink="http://www.w3.org/1999/xlink">
    <!-- Generator: Sketch 51.3 (57544) - http://www.bohemiancoding.com/sketch -->
    <title>Shape</title>
    <desc>Created with Sketch.</desc>
    <defs></defs>
    <g id="Symbols" stroke="none" stroke-width="1" fill="none" fill-rule="evenodd">
        <g id="icon-talk-dark" fill="#FFFFFF" fill-rule="nonzero">
            <g id="icon-talk-light">
                <path d="M19.2,3.2 C28.0224,3.2 35.2,8.9472 35.2,16.0112 C35.2,23.8784 26.968,28.7488 19.344,28.7488 C16.2448,28.7488 13.9312,28.1136 12.3136,27.7184 C10.7136,28.6992 9.7616,29.3776 5.4784,30.6304 C6.3344,28.4336 6.6352,26.2336 6.4416,23.8064 C5.1008,22.2064 3.2016,19.9664 3.2016,16.0112 C3.2,8.9472 10.3776,3.2 19.2,3.2 Z M19.2,1.0658141e-15 C9.0592,1.0658141e-15 0,6.7616 0,16.0112 C0,19.2912 1.1808,22.512 3.2752,25.0112 C3.3632,27.9392 1.6384,32.1408 0.0864,35.2 C4.2496,34.448 10.168,32.7872 12.8512,31.1424 C15.12,31.6944 17.2912,31.9472 19.3456,31.9472 C30.68,31.9472 38.4016,24.208 38.4016,16.0096 C38.4,6.712 29.2784,-1.77635684e-15 19.2,1.0658141e-15 Z M13.6,16 C13.6,17.3264 12.5264,18.4 11.2,18.4 C9.8752,18.4 8.8,17.3264 8.8,16 C8.8,14.6736 9.8752,13.6 11.2,13.6 C12.5264,13.6 13.6,14.6736 13.6,16 Z M19.2,13.6 C17.8752,13.6 16.8,14.6736 16.8,16 C16.8,17.3264 17.8752,18.4 19.2,18.4 C20.5264,18.4 21.6,17.3264 21.6,16 C21.6,14.6736 20.5264,13.6 19.2,13.6 Z M27.2,13.6 C25.8752,13.6 24.8,14.6736 24.8,16 C24.8,17.3264 25.8752,18.4 27.2,18.4 C28.5264,18.4 29.6,17.3264 29.6,16 C29.6,14.6736 28.5264,13.6 27.2,13.6 Z" id="Shape"></path>
            </g>
        </g>
    </g>
</svg>