<?xml version="1.0" encoding="UTF-8"?>
<svg width="102px" height="102px" viewBox="0 0 102 102" version="1.1" xmlns="http://www.w3.org/2000/svg" xmlns:xlink="http://www.w3.org/1999/xlink">
    <!-- Generator: Sketch 52.2 (67145) - http://www.bohemiancoding.com/sketch -->
    <title>icon-archive</title>
    <desc>Created with Sketch.</desc>
    <defs>
        <linearGradient x1="12.9061023%" y1="0%" x2="85.9823324%" y2="100%" id="linearGradient-1">
            <stop stop-color="#0FA49F" offset="0%"></stop>
            <stop stop-color="#8C2E74" offset="100%"></stop>
        </linearGradient>
        <path d="M50.006,0.995 C77.62,0.995 100.006,23.381 100.006,50.995 C100.006,78.61 77.62,100.995 50.006,100.995 C22.392,100.995 0.006,78.61 0.006,50.995 C0.006,23.38 22.392,0.995 50.006,0.995 Z" id="path-2"></path>
    </defs>
    <g id="icon-archive" stroke="none" stroke-width="1" fill="none" fill-rule="evenodd">
        <g>
            <path d="M51.006,0.995 C78.62,0.995 101.006,23.381 101.006,50.995 C101.006,78.61 78.62,100.995 51.006,100.995 C23.392,100.995 1.006,78.61 1.006,50.995 C1.006,23.38 23.392,0.995 51.006,0.995 Z" id="Path" fill="url(#linearGradient-1)" fill-rule="nonzero" opacity="0.243419829"></path>
            <path d="M23.406,21.088 L40.793,25.735 C42.394,26.163 43.344,27.804 42.914,29.4 L24.279,98.785 C23.85,100.381 22.206,101.33 20.605,100.902 L3.219,96.254 C1.618,95.826 0.668,94.186 1.098,92.588 L19.733,23.205 C20.161,21.608 21.807,20.66 23.406,21.088 Z" id="Path" fill="#415E6D"></path>
            <path d="M17.299,79.158 C19.966,79.873 21.549,82.615 20.834,85.281 C20.119,87.949 17.378,89.533 14.711,88.818 C12.043,88.103 10.46,85.361 11.175,82.693 C11.89,80.027 14.631,78.443 17.299,79.158 Z" id="Path" fill="#2C4552"></path>
            <path d="M18.074,76.289 C13.806,75.148 9.42,77.676 8.276,81.935 C7.132,86.194 9.666,90.572 13.933,91.714 C18.201,92.855 22.587,90.327 23.731,86.068 C24.875,81.809 22.343,77.432 18.074,76.289 Z M20.834,85.293 C20.119,87.955 17.377,89.535 14.71,88.822 C12.043,88.109 10.46,85.373 11.175,82.711 C11.89,80.049 14.631,78.469 17.298,79.182 C19.966,79.895 21.549,82.631 20.834,85.293 Z M37.271,31.618 L23.947,28.02 C23.422,27.878 22.882,28.193 22.74,28.722 L13.051,65.156 C12.91,65.685 13.223,66.23 13.748,66.373 L27.071,69.969 C27.596,70.112 28.136,69.797 28.277,69.268 L37.966,32.833 C38.108,32.303 37.796,31.758 37.271,31.618 Z" id="Shape" fill="#FFFFFF" fill-rule="nonzero"></path>
            <path d="M21.134,44.993 L20.606,46.866 L30.471,49.377 L30.999,47.503 L21.134,44.993 Z M19.363,51.487 L29.228,53.996 L29.756,52.123 L19.891,49.613 L19.363,51.487 Z" id="Shape" fill="#B2B2B2" fill-rule="nonzero"></path>
            <polygon id="Path" fill="#26A6D1" points="24.522 33.991 33.994 36.463 32.471 41.999 23 39.526"></polygon>
            <g id="Clipped" transform="translate(1.000000, 0.000000)">
                <mask id="mask-3" fill="white">
                    <use xlink:href="#path-2"></use>
                </mask>
                <g id="a"></g>
                <g id="Group" mask="url(#mask-3)">
                    <g transform="translate(42.000000, 22.000000)">
                        <path d="M27.006,0.995 L45.006,0.995 C46.663,0.995 48.006,2.339 48.006,3.995 L48.006,75.995 C48.006,77.653 46.663,78.995 45.006,78.995 L27.006,78.995 C25.349,78.995 24.006,77.653 24.006,75.995 L24.006,3.995 C24.006,2.338 25.349,0.995 27.006,0.995 Z" id="Path" fill="#415E6D" fill-rule="evenodd"></path>
                        <path d="M35.506,59.994 C38.543,59.994 41.006,62.232 41.006,64.994 C41.006,67.756 38.543,69.994 35.506,69.994 C32.469,69.994 30.006,67.756 30.006,64.994 C30.006,62.232 32.469,59.994 35.506,59.994 Z" id="Path" fill="#2C4552" fill-rule="evenodd"></path>
                        <path d="M3.006,0.995 L21.006,0.995 C22.663,0.995 24.006,2.339 24.006,3.995 L24.006,75.995 C24.006,77.653 22.663,78.995 21.006,78.995 L3.006,78.995 C1.349,78.995 0.006,77.653 0.006,75.995 L0.006,3.995 C0.006,2.338 1.349,0.995 3.006,0.995 Z" id="Path" fill="#415E6D" fill-rule="evenodd"></path>
                        <path d="M12.006,59.994 C14.768,59.994 17.006,62.232 17.006,64.994 C17.006,67.756 14.768,69.994 12.006,69.994 C9.244,69.994 7.006,67.756 7.006,64.994 C7.006,62.232 9.244,59.994 12.006,59.994 Z" id="Path" fill="#2C4552" fill-rule="evenodd"></path>
                        <path d="M12.006,56.994 C7.588,56.994 4.006,60.576 4.006,64.994 C4.006,69.412 7.588,72.994 12.006,72.994 C16.424,72.994 20.006,69.412 20.006,64.994 C20.006,60.576 16.424,56.994 12.006,56.994 Z M12.006,69.994 C9.244,69.994 7.006,67.756 7.006,64.994 C7.006,62.232 9.244,59.994 12.006,59.994 C14.768,59.994 17.006,62.232 17.006,64.994 C17.006,67.756 14.768,69.994 12.006,69.994 Z M19.006,8.995 L5.006,8.995 C4.453,8.995 4.006,9.442 4.006,9.995 L4.006,47.995 C4.006,48.548 4.453,48.995 5.006,48.995 L19.006,48.995 C19.559,48.995 20.006,48.548 20.006,47.995 L20.006,9.995 C20.006,9.442 19.559,8.995 19.006,8.995 Z" id="Shape" fill="#FFFFFF" fill-rule="nonzero"></path>
                        <path d="M7.006,24.995 L7.006,26.995 L17.006,26.995 L17.006,24.995 L7.006,24.995 Z M7.006,31.994 L17.006,31.994 L17.006,29.994 L7.006,29.994 L7.006,31.994 Z" id="Shape" fill="#B2B2B2" fill-rule="nonzero"></path>
                        <polygon id="Path" fill="#4BBFAA" fill-rule="evenodd" points="7.006 14.995 17.006 14.995 17.006 20.995 7.006 20.995"></polygon>
                        <path d="M2.006,75.994 L2.006,3.994 C2.006,2.338 3.349,0.994 5.006,0.994 L3.006,0.994 C1.349,0.994 0.006,2.338 0.006,3.994 L0.006,75.994 C0.006,77.652 1.349,78.994 3.006,78.994 L5.006,78.994 C3.349,78.994 2.006,77.652 2.006,75.994 Z M26.006,75.994 L26.006,3.994 C26.006,2.338 27.349,0.994 29.006,0.994 L27.006,0.994 C25.349,0.994 24.006,2.338 24.006,3.994 L24.006,75.994 C24.006,77.652 25.349,78.994 27.006,78.994 L29.006,78.994 C27.349,78.994 26.006,77.652 26.006,75.994 Z" id="Shape" fill="#344B57" fill-rule="nonzero"></path>
                        <path d="M35.506,59.994 C33.625,59.994 31.966,60.853 30.975,62.164 C31.93,61.435 33.162,60.994 34.506,60.994 C37.543,60.994 40.006,63.232 40.006,65.994 C40.006,67.047 39.648,68.019 39.037,68.826 C40.24,67.908 41.006,66.533 41.006,64.994 C41.006,62.232 38.543,59.994 35.506,59.994 Z" id="Path" fill="#233742" fill-rule="evenodd"></path>
                        <path d="M36.006,56.994 C31.588,56.994 28.006,60.576 28.006,64.994 C28.006,69.412 31.588,72.994 36.006,72.994 C40.424,72.994 44.006,69.412 44.006,64.994 C44.006,60.576 40.424,56.994 36.006,56.994 Z M36.006,69.994 C33.244,69.994 31.006,67.756 31.006,64.994 C31.006,62.232 33.244,59.994 36.006,59.994 C38.768,59.994 41.006,62.232 41.006,64.994 C41.006,67.756 38.768,69.994 36.006,69.994 Z M43.006,8.995 L29.006,8.995 C28.453,8.995 28.006,9.442 28.006,9.995 L28.006,47.995 C28.006,48.548 28.453,48.995 29.006,48.995 L43.006,48.995 C43.559,48.995 44.006,48.548 44.006,47.995 L44.006,9.995 C44.006,9.442 43.559,8.995 43.006,8.995 Z" id="Shape" fill="#FFFFFF" fill-rule="nonzero"></path>
                        <path d="M31.006,24.995 L31.006,26.995 L41.006,26.995 L41.006,24.995 L31.006,24.995 Z M31.006,31.994 L41.006,31.994 L41.006,29.994 L31.006,29.994 L31.006,31.994 Z" id="Shape" fill="#B2B2B2" fill-rule="nonzero"></path>
                        <polygon id="Path" fill="#F4B459" fill-rule="evenodd" points="31.006 14.995 41.006 14.995 41.006 20.995 31.006 20.995"></polygon>
                        <path d="M12.006,59.994 C10.369,59.994 8.931,60.791 8.019,62.008 C8.854,61.379 9.881,60.994 11.006,60.994 C13.768,60.994 16.006,63.232 16.006,65.994 C16.006,67.119 15.621,68.146 14.993,68.982 C16.209,68.07 17.006,66.63 17.006,64.994 C17.006,62.232 14.768,59.994 12.006,59.994 Z" id="Path" fill="#233742" fill-rule="evenodd"></path>
                    </g>
                </g>
            </g>
            <path d="M17.299,79.158 C15.254,78.611 13.175,79.42 11.989,81.025 C13.177,80.123 14.745,79.742 16.299,80.158 C18.966,80.873 20.549,83.615 19.834,86.281 C19.667,86.904 19.381,87.463 19.02,87.951 C19.873,87.305 20.536,86.396 20.834,85.281 C21.549,82.615 19.966,79.873 17.299,79.158 Z" id="Path" fill="#233742"></path>
            <path d="M23.406,21.088 C21.806,20.659 20.161,21.608 19.732,23.204 L1.098,92.588 C0.668,94.186 1.619,95.826 3.219,96.254 L4.794,96.676 C3.205,96.238 2.264,94.58 2.691,92.99 L21.326,23.606 C21.734,22.088 23.242,21.171 24.764,21.451 L23.406,21.088 Z" id="Path" fill="#344B57"></path>
        </g>
    </g>
</svg>