<?xml version="1.0" encoding="UTF-8"?>
<svg width="40px" height="40px" viewBox="0 0 40 40" version="1.1" xmlns="http://www.w3.org/2000/svg" xmlns:xlink="http://www.w3.org/1999/xlink">
    <!-- Generator: Sketch 51.2 (57519) - http://www.bohemiancoding.com/sketch -->
    <title>icon-behance-light</title>
    <desc>Created with Sketch.</desc>
    <defs></defs>
    <g id="Symbols" stroke="none" stroke-width="1" fill="none" fill-rule="evenodd">
        <g id="externals-light" fill="#FFFFFF" fill-rule="nonzero">
            <g id="icon-behance-light">
                <g>
                    <path d="M14.7333333,18.0583333 L11.4583333,18.0583333 L11.4583333,14.96 L14.43,14.96 C17.56,14.96 17.1733333,18.0583333 14.7333333,18.0583333 Z M24.3816667,19.8216667 L28.755,19.8216667 C28.5633333,17.01 24.8216667,16.805 24.3816667,19.8216667 Z M14.5483333,20.4816667 L11.4583333,20.4816667 L11.4583333,23.7266667 L14.4983333,23.7266667 C17.4683333,23.725 17.2866667,20.4816667 14.5483333,20.4816667 Z M40,20 C40,31.045 31.045,40 20,40 C8.955,40 0,31.045 0,20 C0,8.955 8.955,0 20,0 C31.045,0 40,8.955 40,20 Z M17.7383333,18.7783333 C20.5183333,17.3566667 20.4166667,12.1433333 15.0933333,12.065 L8.33333333,12.065 L8.33333333,26.615 L14.6183333,26.615 C21.215,26.615 21.1033333,20.0033333 17.7383333,18.7783333 Z M23.3333333,13.5016667 L30,13.5016667 L30,12.0433333 L23.3333333,12.0433333 L23.3333333,13.5016667 Z M31.5716667,19.6566667 C30.6633333,13.815 21.4833333,13.4716667 21.4833333,21.11 C21.4833333,28.6533333 30.1166667,27.4733333 31.3983333,23.71 L28.3183333,23.71 C27.2433333,24.9566667 24.1383333,24.595 24.3116667,21.7366667 L31.6616667,21.7366667 C31.6766667,20.8116667 31.6466667,20.1483333 31.5716667,19.6566667 Z" id="shape"></path>
                </g>
            </g>
        </g>
    </g>
</svg>