<?xml version="1.0" encoding="UTF-8"?>
<svg width="102px" height="102px" viewBox="0 0 102 102" version="1.1" xmlns="http://www.w3.org/2000/svg" xmlns:xlink="http://www.w3.org/1999/xlink">
    <!-- Generator: Sketch 52.2 (67145) - http://www.bohemiancoding.com/sketch -->
    <title>icon-target</title>
    <desc>Created with Sketch.</desc>
    <g id="icon-target" stroke="none" stroke-width="1" fill="none" fill-rule="evenodd">
        <g>
            <path d="M50.987,1.005 C23.373,1.005 0.987,23.39 0.987,51.004 C0.987,78.619 23.373,101.005 50.987,101.005 C78.601,101.005 100.987,78.618 100.987,51.004 C100.987,23.391 78.602,1.005 50.987,1.005 Z" id="Path" fill="#2EA9D3"></path>
            <path d="M52.422,49.613 C51.629,48.82 50.342,48.82 49.549,49.613 C48.755,50.406 48.755,51.691 49.549,52.485 L84.861,87.772 C85.857,86.854 86.815,85.896 87.734,84.901 L52.422,49.613 Z" id="Path" fill="#2998BD"></path>
            <path d="M50.987,31.005 C39.941,31.005 30.987,39.959 30.987,51.005 C30.987,62.051 39.941,71.005 50.987,71.005 C62.033,71.005 70.987,62.051 70.987,51.005 C70.987,39.959 62.033,31.005 50.987,31.005 Z M50.987,61.004 C45.465,61.004 40.987,56.527 40.987,51.004 C40.987,45.482 45.465,41.004 50.987,41.004 C56.509,41.004 60.987,45.482 60.987,51.004 C60.987,56.527 56.51,61.004 50.987,61.004 Z M50.987,11.004 C28.895,11.004 10.987,28.913 10.987,51.004 C10.987,73.095 28.895,91.004 50.987,91.004 C73.079,91.004 90.987,73.095 90.987,51.004 C90.987,28.913 73.079,11.004 50.987,11.004 Z M50.987,81.005 C34.419,81.005 20.987,67.573 20.987,51.005 C20.987,34.437 34.419,21.005 50.987,21.005 C67.555,21.005 80.987,34.437 80.987,51.005 C80.987,67.573 67.556,81.005 50.987,81.005 Z" id="Shape" fill="#4ABEE5" fill-rule="nonzero"></path>
            <path d="M91.363,10.625 C95.334,14.588 103.963,12.402 99.992,16.367 L89.329,27.001 C85.398,30.932 78.919,30.963 74.948,27.001 C70.976,23.038 70.976,16.612 74.948,12.648 L85.61,2.014 C89.582,-1.95 87.392,6.662 91.363,10.625 Z" id="Path" fill="#EFC75E"></path>
            <g id="Group" transform="translate(56.000000, 56.000000)" fill="#42ABCE" fill-rule="nonzero">
                <path d="M17.567,14.744 C16.674,15.765 15.714,16.723 14.693,17.614 L21.783,24.699 C22.789,23.791 23.748,22.834 24.657,21.829 L17.567,14.744 Z M3.328,0.515 C2.573,1.656 1.591,2.629 0.445,3.377 L7.595,10.522 C8.648,9.666 9.614,8.707 10.473,7.656 L3.328,0.515 Z" id="Shape"></path>
            </g>
            <path d="M91.363,10.625 C90.267,9.532 89.641,8.084 89.225,6.645 L72.588,23.283 C73.079,24.638 73.859,25.914 74.948,27.001 C76.053,28.104 77.356,28.886 78.741,29.372 L95.353,12.759 C93.91,12.343 92.459,11.719 91.363,10.625 Z" id="Path" fill="#E3BD59"></path>
            <path d="M95.396,6.581 C96.189,7.374 96.189,8.659 95.396,9.452 L52.422,52.396 C51.629,53.189 50.342,53.189 49.549,52.396 C48.755,51.604 48.755,50.318 49.549,49.524 L92.522,6.581 C93.315,5.787 94.602,5.787 95.396,6.581 Z" id="Path" fill="#EDEEEF"></path>
        </g>
    </g>
</svg>