<?xml version="1.0" encoding="UTF-8"?>
<svg width="100px" height="100px" viewBox="0 0 100 100" version="1.1" xmlns="http://www.w3.org/2000/svg" xmlns:xlink="http://www.w3.org/1999/xlink">
    <!-- Generator: Sketch 52.2 (67145) - http://www.bohemiancoding.com/sketch -->
    <title>icon-responsive</title>
    <desc>Created with Sketch.</desc>
    <defs>
        <linearGradient x1="12.9061023%" y1="0%" x2="85.9823324%" y2="100%" id="linearGradient-1">
            <stop stop-color="#0FA49F" offset="0%"></stop>
            <stop stop-color="#8C2E74" offset="100%"></stop>
        </linearGradient>
    </defs>
    <g id="icon-responsive" stroke="none" stroke-width="1" fill="none" fill-rule="evenodd">
        <g>
            <path d="M50,0 C77.614,0 100,22.386 100,50 C100,77.614 77.614,100 50,100 C22.386,100 0,77.614 0,50 C0,22.386 22.386,0 50,0 Z" id="Path" fill="url(#linearGradient-1)" fill-rule="nonzero" opacity="0.243419829"></path>
            <path d="M48,25 L73,25 C74.104,25 75,25.896 75,27 L75,76 C75,77.104 74.104,78 73,78 L48,78 C46.896,78 46,77.104 46,76 L46,27 C46,25.896 46.896,25 48,25 Z M18,32 L63,32 C64.104,32 65,32.896 65,34 L65,72 C65,73.104 64.104,74 63,74 L18,74 C16.896,74 16,73.104 16,72 L16,34 C16,32.896 16.896,32 18,32 Z" id="Shape" fill="#181E23" fill-rule="nonzero"></path>
            <path d="M20,30 L65,30 C66.104,30 67,30.896 67,32 L67,70 C67,71.104 66.104,72 65,72 L20,72 C18.896,72 18,71.104 18,70 L18,32 C18,30.896 18.896,30 20,30 Z" id="Path" fill="#E6E5E3"></path>
            <path d="M65,30 L46,30 L46,72 L65,72 C66.104,72 67,71.104 67,70 L67,32 C67,30.896 66.104,30 65,30 Z" id="Path" fill="#CFCECC"></path>
            <path d="M23.5,32 C22.672,32 22,32.672 22,33.5 C22,34.328 22.672,35 23.5,35 C24.328,35 25,34.328 25,33.5 C25,32.672 24.328,32 23.5,32 Z M28.5,32 C27.672,32 27,32.672 27,33.5 C27,34.328 27.672,35 28.5,35 C29.328,35 30,34.328 30,33.5 C30,32.672 29.328,32 28.5,32 Z M33.5,32 C32.672,32 32,32.672 32,33.5 C32,34.328 32.672,35 33.5,35 C34.328,35 35,34.328 35,33.5 C35,32.672 34.328,32 33.5,32 Z" id="Shape" fill="#C6C5C3" fill-rule="nonzero"></path>
            <polygon id="Path" fill="#324D5B" points="22 37 58 37 58 68 22 68"></polygon>
            <polygon id="Path" fill="#91D8F0" points="25 40 35 40 35 65 25 65"></polygon>
            <polygon id="Path" fill="#2D4552" points="46 37 58 37 58 68 46 68"></polygon>
            <polygon id="Path" fill="#2DE4DE" points="38 40 48 40 48 65 38 65"></polygon>
            <polygon id="Path" fill="#D7B354" points="46 40 48 40 48 65 46 65"></polygon>
            <path d="M50,23 L75,23 C76.104,23 77,23.896 77,25 L77,74 C77,75.104 76.104,76 75,76 L50,76 C48.896,76 48,75.104 48,74 L48,25 C48,23.896 48.896,23 50,23 Z" id="Path" fill="#F2F1EF"></path>
            <path d="M63,70 C61.896,70 61,70.896 61,72 C61,73.104 61.896,74 63,74 C64.104,74 65,73.104 65,72 C65,70.896 64.104,70 63,70 Z M66,26 L60,26 C59.447,26 59,26.447 59,27 C59,27.553 59.447,28 60,28 L66,28 C66.553,28 67,27.553 67,27 C67,26.447 66.553,26 66,26 Z" id="Shape" fill="#CECDCB" fill-rule="nonzero"></path>
            <polygon id="Path" fill="#324D5B" points="50 31 75 31 75 68 50 68"></polygon>
            <polygon id="Path" fill="#2DE4DE" points="53 51 72 51 72 65 53 65"></polygon>
            <polygon id="Path" fill="#91D8F0" points="53 34 72 34 72 48 53 48"></polygon>
        </g>
    </g>
</svg>