<?xml version="1.0" encoding="UTF-8"?>
<svg width="100px" height="100px" viewBox="0 0 100 100" version="1.1" xmlns="http://www.w3.org/2000/svg" xmlns:xlink="http://www.w3.org/1999/xlink">
    <!-- Generator: Sketch 52.2 (67145) - http://www.bohemiancoding.com/sketch -->
    <title>icon-chip</title>
    <desc>Created with Sketch.</desc>
    <g id="icon-chip" stroke="none" stroke-width="1" fill="none" fill-rule="evenodd">
        <g>
            <path d="M50,0 C77.614,0 100,22.386 100,50 C100,77.614 77.614,100 50,100 C22.386,100 0,77.614 0,50 C0,22.386 22.386,0 50,0 Z" id="Path" fill="#31A7A2"></path>
            <path d="M72,63 L78,63 L78,61 L72,61 L72,63 Z M72,59 L78,59 L78,57 L72,57 L72,59 Z M72,55 L78,55 L78,53 L72,53 L72,55 Z M72,51 L78,51 L78,49 L72,49 L72,51 Z M72,47 L78,47 L78,45 L72,45 L72,47 Z M72,43 L78,43 L78,41 L72,41 L72,43 Z M72,39 L78,39 L78,37 L72,37 L72,39 Z M72,33 L72,35 L78,35 L78,33 L72,33 Z M22,63 L28,63 L28,61 L22,61 L22,63 Z M22,59 L28,59 L28,57 L22,57 L22,59 Z M22,55 L28,55 L28,53 L22,53 L22,55 Z M22,51 L28,51 L28,49 L22,49 L22,51 Z M22,47 L28,47 L28,45 L22,45 L22,47 Z M22,43 L28,43 L28,41 L22,41 L22,43 Z M22,39 L28,39 L28,37 L22,37 L22,39 Z M22,35 L28,35 L28,33 L22,33 L22,35 Z M65,28 L67,28 L67,22 L65,22 L65,28 Z M61,28 L63,28 L63,22 L61,22 L61,28 Z M57,28 L59,28 L59,22 L57,22 L57,28 Z M53,28 L55,28 L55,22 L53,22 L53,28 Z M49,28 L51,28 L51,22 L49,22 L49,28 Z M45,28 L47,28 L47,22 L45,22 L45,28 Z M41,28 L43,28 L43,22 L41,22 L41,28 Z M37,28 L39,28 L39,22 L37,22 L37,28 Z M65,78 L67,78 L67,72 L65,72 L65,78 Z M61,78 L63,78 L63,72 L61,72 L61,78 Z M57,78 L59,78 L59,72 L57,72 L57,78 Z M53,78 L55,78 L55,72 L53,72 L53,78 Z M49,78 L51,78 L51,72 L49,72 L49,78 Z M45,78 L47,78 L47,72 L45,72 L45,78 Z M41,78 L43,78 L43,72 L41,72 L41,78 Z M37,78 L39,78 L39,72 L37,72 L37,78 Z M33,28 L35,28 L35,22 L33,22 L33,28 Z M22,67 L28,67 L28,65 L22,65 L22,67 Z M72,67 L78,67 L78,65 L72,65 L72,67 Z M33,78 L35,78 L35,72 L33,72 L33,78 Z M72,63 L78,63 L78,61 L72,61 L72,63 Z M72,59 L78,59 L78,57 L72,57 L72,59 Z M72,55 L78,55 L78,53 L72,53 L72,55 Z M72,51 L78,51 L78,49 L72,49 L72,51 Z M72,47 L78,47 L78,45 L72,45 L72,47 Z M72,43 L78,43 L78,41 L72,41 L72,43 Z M72,39 L78,39 L78,37 L72,37 L72,39 Z M72,33 L72,35 L78,35 L78,33 L72,33 Z M22,63 L28,63 L28,61 L22,61 L22,63 Z M22,59 L28,59 L28,57 L22,57 L22,59 Z M22,55 L28,55 L28,53 L22,53 L22,55 Z M22,51 L28,51 L28,49 L22,49 L22,51 Z M22,47 L28,47 L28,45 L22,45 L22,47 Z M22,43 L28,43 L28,41 L22,41 L22,43 Z M22,39 L28,39 L28,37 L22,37 L22,39 Z M22,35 L28,35 L28,33 L22,33 L22,35 Z M65,28 L67,28 L67,22 L65,22 L65,28 Z M61,28 L63,28 L63,22 L61,22 L61,28 Z M57,28 L59,28 L59,22 L57,22 L57,28 Z M53,28 L55,28 L55,22 L53,22 L53,28 Z M49,28 L51,28 L51,22 L49,22 L49,28 Z M45,28 L47,28 L47,22 L45,22 L45,28 Z M41,28 L43,28 L43,22 L41,22 L41,28 Z M37,28 L39,28 L39,22 L37,22 L37,28 Z M65,78 L67,78 L67,72 L65,72 L65,78 Z M61,78 L63,78 L63,72 L61,72 L61,78 Z M57,78 L59,78 L59,72 L57,72 L57,78 Z M53,78 L55,78 L55,72 L53,72 L53,78 Z M49,78 L51,78 L51,72 L49,72 L49,78 Z M45,78 L47,78 L47,72 L45,72 L45,78 Z M41,78 L43,78 L43,72 L41,72 L41,78 Z M37,78 L39,78 L39,72 L37,72 L37,78 Z M33,28 L35,28 L35,22 L33,22 L33,28 Z M22,67 L28,67 L28,65 L22,65 L22,67 Z M72,67 L78,67 L78,65 L72,65 L72,67 Z M33,78 L35,78 L35,72 L33,72 L33,78 Z" id="Shape" fill="#F2F1EF" fill-rule="nonzero"></path>
            <g id="Group" transform="translate(24.000000, 24.000000)" fill="#CECDCB" fill-rule="nonzero">
                <path d="M0,17 L4,17 L4,19 L0,19 L0,17 Z M0,9 L4,9 L4,11 L0,11 L0,9 Z M0,13 L4,13 L4,15 L0,15 L0,13 Z M0,41 L4,41 L4,43 L0,43 L0,41 Z M0,37 L4,37 L4,39 L0,39 L0,37 Z M0,25 L4,25 L4,27 L0,27 L0,25 Z M0,33 L4,33 L4,35 L0,35 L0,33 Z M9,0 L11,0 L11,4 L9,4 L9,0 Z M0,29 L4,29 L4,31 L0,31 L0,29 Z M0,21 L4,21 L4,23 L0,23 L0,21 Z M33,0 L35,0 L35,4 L33,4 L33,0 Z M13,0 L15,0 L15,4 L13,4 L13,0 Z M41,0 L43,0 L43,4 L41,4 L41,0 Z M29,0 L31,0 L31,4 L29,4 L29,0 Z M37,0 L39,0 L39,4 L37,4 L37,0 Z M25,0 L27,0 L27,4 L25,4 L25,0 Z M17,0 L19,0 L19,4 L17,4 L17,0 Z M21,0 L23,0 L23,4 L21,4 L21,0 Z M48,13 L52,13 L52,15 L48,15 L48,13 Z M48,25 L52,25 L52,27 L48,27 L48,25 Z M9,48 L11,48 L11,52 L9,52 L9,48 Z M48,29 L52,29 L52,31 L48,31 L48,29 Z M48,37 L52,37 L52,39 L48,39 L48,37 Z M48,9 L52,9 L52,11 L48,11 L48,9 Z M48,21 L52,21 L52,23 L48,23 L48,21 Z M48,41 L52,41 L52,43 L48,43 L48,41 Z M48,17 L52,17 L52,19 L48,19 L48,17 Z M48,33 L52,33 L52,35 L48,35 L48,33 Z M21,48 L23,48 L23,52 L21,52 L21,48 Z M25,48 L27,48 L27,52 L25,52 L25,48 Z M41,48 L43,48 L43,52 L41,52 L41,48 Z M13,48 L15,48 L15,52 L13,52 L13,48 Z M17,48 L19,48 L19,52 L17,52 L17,48 Z M37,48 L39,48 L39,52 L37,52 L37,48 Z M33,48 L35,48 L35,52 L33,52 L33,48 Z M29,48 L31,48 L31,52 L29,52 L29,48 Z" id="Shape"></path>
            </g>
            <path d="M30,26 L70,26 C72.209,26 74,27.791 74,30 L74,70 C74,72.209 72.209,74 70,74 L30,74 C27.791,74 26,72.209 26,70 L26,30 C26,27.791 27.791,26 30,26 Z" id="Path" fill="#324D5B"></path>
            <path d="M32,30 L68,30 C69.104,30 70,30.896 70,32 L70,67 C70,68.104 69.104,69 68,69 L32,69 C30.896,69 30,68.104 30,67 L30,32 C30,30.896 30.896,30 32,30 Z" id="Path" fill="#DADFE1"></path>
            <path d="M35.5,34 C34.672,34 34,34.672 34,35.5 C34,36.328 34.672,37 35.5,37 C36.328,37 37,36.328 37,35.5 C37,34.672 36.328,34 35.5,34 Z M35.5,60 C34.672,60 34,60.672 34,61.5 C34,62.328 34.672,63 35.5,63 C36.328,63 37,62.328 37,61.5 C37,60.672 36.328,60 35.5,60 Z M64.5,60 C63.672,60 63,60.672 63,61.5 C63,62.328 63.672,63 64.5,63 C65.328,63 66,62.328 66,61.5 C66,60.672 65.328,60 64.5,60 Z M64.5,37 C65.328,37 66,36.328 66,35.5 C66,34.672 65.328,34 64.5,34 C63.672,34 63,34.672 63,35.5 C63,36.328 63.672,37 64.5,37 Z M35.5,34 C34.672,34 34,34.672 34,35.5 C34,36.328 34.672,37 35.5,37 C36.328,37 37,36.328 37,35.5 C37,34.672 36.328,34 35.5,34 Z M35.5,60 C34.672,60 34,60.672 34,61.5 C34,62.328 34.672,63 35.5,63 C36.328,63 37,62.328 37,61.5 C37,60.672 36.328,60 35.5,60 Z M64.5,60 C63.672,60 63,60.672 63,61.5 C63,62.328 63.672,63 64.5,63 C65.328,63 66,62.328 66,61.5 C66,60.672 65.328,60 64.5,60 Z M64.5,37 C65.328,37 66,36.328 66,35.5 C66,34.672 65.328,34 64.5,34 C63.672,34 63,34.672 63,35.5 C63,36.328 63.672,37 64.5,37 Z" id="Shape" fill="#97A5AB" fill-rule="nonzero"></path>
            <path d="M51.21,49.512 C55.575,48.344 58.572,45.376 57.904,42.884 C57.235,40.393 53.155,39.32 48.79,40.488 C44.425,41.657 41.428,44.624 42.096,47.116 C42.765,49.607 46.845,50.68 51.21,49.512 Z M55.5,53 L44.5,53 C43.672,53 43,53.672 43,54.5 C43,55.328 43.672,56 44.5,56 L55.5,56 C56.328,56 57,55.328 57,54.5 C57,53.672 56.328,53 55.5,53 Z M51.21,49.512 C55.575,48.344 58.572,45.376 57.904,42.884 C57.235,40.393 53.155,39.32 48.79,40.488 C44.425,41.657 41.428,44.624 42.096,47.116 C42.765,49.607 46.845,50.68 51.21,49.512 Z M55.5,53 L44.5,53 C43.672,53 43,53.672 43,54.5 C43,55.328 43.672,56 44.5,56 L55.5,56 C56.328,56 57,55.328 57,54.5 C57,53.672 56.328,53 55.5,53 Z" id="Shape" fill="#C9CECF" fill-rule="nonzero"></path>
            <path d="M68,67 L32,67 C30.896,67 30,66.104 30,65 L30,67 C30,68.104 30.896,69 32,69 L68,69 C69.104,69 70,68.104 70,67 L70,65 C70,66.104 69.104,67 68,67 Z" id="Path" fill="#AEB2B4"></path>
            <path d="M70,72 L30,72 C27.791,72 26,70.209 26,68 L26,70 C26,72.209 27.791,74 30,74 L70,74 C72.209,74 74,72.209 74,70 L74,68 C74,70.209 72.209,72 70,72 Z" id="Path" fill="#233640"></path>
            <g id="Group" fill="#2DE4DE" fill-rule="nonzero">
                <path d="M37,8.989 L37,22 L39,22 L39,9.027 L35.699,2.087 C35.119,2.26 34.546,2.446 33.974,2.639 L37,8.989 Z M59,0.824 C58.337,0.703 57.672,0.593 57,0.498 L57,22 L59,22 L59,0.824 Z M53,78 L55,78 L55,80 L53,80 L53,78 Z M53,22 L55,22 L55,0.25 C54.338,0.184 53.67,0.138 53,0.098 L53,22 Z M41,22 L43,22 L43,0.498 C42.328,0.592 41.662,0.703 41,0.824 L41,22 Z M41,78 L43,87 L45,87 L43,78 L41,78 Z M47,0.098 C46.33,0.138 45.662,0.184 45,0.25 L45,22 L47,22 L47,0.098 Z M51,0.025 L50,0 L49,0.025 L49,22 L51,22 L51,0.025 Z M59,78 L57,78 L55,87 L57,87 L59,78 Z M78,55 L99.75,55 C99.816,54.338 99.863,53.67 99.902,53 L78,53 L78,55 Z M65,15 L65,22 L67,22 L67,17 L84.215,13.557 C83.498,12.884 82.768,12.227 82.013,11.598 L65,15 Z M78,59 L99.177,59 C99.297,58.337 99.408,57.672 99.502,57 L78,57 L78,59 Z M78,33 L78,35 L82.973,35 L93.363,25.118 C93.118,24.692 92.875,24.265 92.617,23.847 L83.012,33 L78,33 Z M63,1.717 C62.339,1.54 61.672,1.38 61,1.229 L61,22 L63,22 L63,1.717 Z M65,78 L65,79.973 L69,87 L71,87 L67,80.012 L67,78 L65,78 Z M78,49 L83,49 L83,51 L78,51 L78,49 Z M78,45 L84,45 L84,47 L78,47 L78,45 Z M16.988,67 L22,67 L22,65 L15.027,65 L9.835,79.777 C10.433,80.582 11.057,81.365 11.701,82.131 L16.988,67 Z M87.678,82.85 L85,65 L78,65 L78,67 L83,67 L85.699,84.995 C86.38,84.3 87.037,83.583 87.678,82.85 Z M64,87.012 L63,78 L61,78 L62,86.973 L65.767,97.449 C66.362,97.252 66.953,97.05 67.537,96.831 L64,87.012 Z M51,99.975 L51,78 L49,78 L49,99.975 L50,100 L51,99.975 Z M22,59 L22,57 L0.498,57 C0.592,57.672 0.703,58.337 0.824,59 L22,59 Z M8.988,63 L22,63 L22,61 L9.027,61 L2.087,64.301 C2.26,64.881 2.446,65.454 2.639,66.026 L8.988,63 Z M91.012,37 L78,37 L78,39 L90.973,39 L97.913,35.699 C97.74,35.119 97.554,34.546 97.36,33.974 L91.012,37 Z M78,41 L78,43 L99.502,43 C99.408,42.328 99.297,41.662 99.177,41 L78,41 Z M78,61 L78,63 L98.282,63 C98.46,62.339 98.62,61.672 98.771,61 L78,61 Z M33,82 L29,87 L31,87 L35,82 L35,78 L33,78 L33,82 Z M22,39 L22,37 L1.717,37 C1.54,37.661 1.38,38.328 1.229,39 L22,39 Z M36,87 L38,87 L39,78 L37,78 L36,87 Z M15,35 L22,35 L22,33 L15,33 L5.874,26.481 C5.615,26.964 5.366,27.453 5.124,27.945 L15,35 Z M33,16.989 L33,22 L35,22 L35,17.027 L25.118,6.637 C24.691,6.882 24.265,7.126 23.847,7.383 L33,16.989 Z M16,53 L22,53 L22,55 L16,55 L16,53 Z M21,45 L22,45 L22,47 L21,47 L21,45 Z M22,41 L0.824,41 C0.703,41.662 0.592,42.328 0.498,43 L22,43 L22,41 Z M17,49 L22,49 L22,51 L17,51 L17,49 Z" id="Shape"></path>
            </g>
            <g id="Group" transform="translate(28.000000, 87.000000)" fill="#EEDC9D" fill-rule="nonzero">
                <path d="M28,6.31088724e-30 C26.896,6.31088724e-30 26,0.896 26,2 L26,12.826 C27.349,12.72 28.684,12.566 30,12.355 L30,2 C30,0.896 29.104,-1.42108547e-14 28,-1.42108547e-14 Z M35,3.15544362e-30 C33.896,3.15544362e-30 33,0.896 33,2 L33,11.771 C34.354,11.466 35.69,11.119 37,10.708 L37,2 C37,0.896 36.104,3.15544362e-30 35,3.15544362e-30 Z M42,3.15544362e-30 C40.896,3.15544362e-30 40,0.896 40,2 L40,9.647 C41.362,9.121 42.698,8.543 44,7.904 L44,2 C44,0.896 43.104,1.42108547e-14 42,1.42108547e-14 Z M16,3.15544362e-30 C14.896,3.15544362e-30 14,0.896 14,2 L14,12.355 C15.316,12.566 16.651,12.719 18,12.826 L18,2 C18,0.896 17.104,3.15544362e-30 16,3.15544362e-30 Z M9,3.15544362e-30 C7.896,3.15544362e-30 7,0.896 7,2 L7,10.708 C8.31,11.119 9.646,11.467 11,11.771 L11,2 C11,0.896 10.104,3.15544362e-30 9,3.15544362e-30 Z M2,3.15544362e-30 C0.896,3.15544362e-30 0,0.896 0,2 L0,7.904 C1.302,8.543 2.638,9.121 4,9.647 L4,2 C4,0.896 3.104,-1.42108547e-14 2,-1.42108547e-14 Z" id="Shape"></path>
            </g>
            <path d="M89,46 C86.791,46 85,47.791 85,50 C85,52.209 86.791,54 89,54 C91.209,54 93,52.209 93,50 C93,47.791 91.209,46 89,46 Z M11,46 C8.791,46 7,47.791 7,50 C7,52.209 8.791,54 11,54 C13.209,54 15,52.209 15,50 C15,47.791 13.209,46 11,46 Z M89,46 C86.791,46 85,47.791 85,50 C85,52.209 86.791,54 89,54 C91.209,54 93,52.209 93,50 C93,47.791 91.209,46 89,46 Z M11,46 C8.791,46 7,47.791 7,50 C7,52.209 8.791,54 11,54 C13.209,54 15,52.209 15,50 C15,47.791 13.209,46 11,46 Z" id="Shape" fill="#278272" fill-rule="nonzero"></path>
            <path d="M89,47.5 C90.379,47.5 91.5,48.621 91.5,50 C91.5,51.379 90.379,52.5 89,52.5 C87.621,52.5 86.5,51.379 86.5,50 C86.5,48.621 87.621,47.5 89,47.5 Z M11,47.5 C12.379,47.5 13.5,48.621 13.5,50 C13.5,51.379 12.379,52.5 11,52.5 C9.621,52.5 8.5,51.379 8.5,50 C8.5,48.621 9.621,47.5 11,47.5 Z M89,46 C86.791,46 85,47.791 85,50 C85,52.209 86.791,54 89,54 C91.209,54 93,52.209 93,50 C93,47.791 91.209,46 89,46 Z M11,46 C8.791,46 7,47.791 7,50 C7,52.209 8.791,54 11,54 C13.209,54 15,52.209 15,50 C15,47.791 13.209,46 11,46 Z M89,47.5 C90.379,47.5 91.5,48.621 91.5,50 C91.5,51.379 90.379,52.5 89,52.5 C87.621,52.5 86.5,51.379 86.5,50 C86.5,48.621 87.621,47.5 89,47.5 Z M11,47.5 C12.379,47.5 13.5,48.621 13.5,50 C13.5,51.379 12.379,52.5 11,52.5 C9.621,52.5 8.5,51.379 8.5,50 C8.5,48.621 9.621,47.5 11,47.5 Z M89,46 C86.791,46 85,47.791 85,50 C85,52.209 86.791,54 89,54 C91.209,54 93,52.209 93,50 C93,47.791 91.209,46 89,46 Z M11,46 C8.791,46 7,47.791 7,50 C7,52.209 8.791,54 11,54 C13.209,54 15,52.209 15,50 C15,47.791 13.209,46 11,46 Z" id="Shape" fill="#F7DE9D" fill-rule="nonzero"></path>
        </g>
    </g>
</svg>