<?xml version="1.0" encoding="UTF-8"?>
<svg width="102px" height="102px" viewBox="0 0 102 102" version="1.1" xmlns="http://www.w3.org/2000/svg" xmlns:xlink="http://www.w3.org/1999/xlink">
    <!-- Generator: Sketch 52.2 (67145) - http://www.bohemiancoding.com/sketch -->
    <title>icon-help</title>
    <desc>Created with Sketch.</desc>
    <g id="icon-help" stroke="none" stroke-width="1" fill="none" fill-rule="evenodd">
        <g fill-rule="nonzero">
            <path d="M10.628,10.627 C1.278,19.977 0.552,34.733 8.426,44.964 C8.591,43.793 8.805,42.639 9.062,41.5 C3.41,32.39 4.5,20.265 12.383,12.382 C20.272,4.494 32.41,3.408 41.522,9.074 C42.66,8.818 43.814,8.605 44.985,8.441 C34.752,0.551 19.984,1.271 10.628,10.627 Z M89.617,12.382 C97.497,20.262 98.589,32.381 92.944,41.49 C93.202,42.629 93.417,43.783 93.582,44.955 C101.447,34.724 100.72,19.975 91.372,10.627 C82.016,1.271 67.249,0.551 57.017,8.44 C58.188,8.604 59.342,8.816 60.481,9.073 C69.593,3.408 81.729,4.494 89.617,12.382 Z M93.582,57.044 C93.417,58.216 93.202,59.37 92.944,60.51 C98.589,69.619 97.497,81.737 89.617,89.616 C81.729,97.504 69.594,98.591 60.481,92.928 C59.342,93.184 58.187,93.397 57.016,93.561 C67.25,101.45 82.017,100.728 91.372,91.373 C100.72,82.025 101.447,67.276 93.582,57.044 Z M12.383,89.616 C4.5,81.733 3.41,69.609 9.062,60.499 C8.805,59.36 8.591,58.206 8.426,57.035 C0.552,67.267 1.278,82.022 10.627,91.372 C19.983,100.727 34.751,101.449 44.984,93.56 C43.814,93.396 42.66,93.182 41.522,92.926 C32.408,98.592 20.271,97.505 12.383,89.616 Z" id="Shape" fill="#CCD0D2"></path>
            <path d="M51,0.991 C23.381,0.991 0.991,23.381 0.991,51 C0.991,78.619 23.381,101.009 51,101.009 C78.619,101.009 101.009,78.619 101.009,51 C101.009,23.381 78.619,0.991 51,0.991 Z M51,75.988 C37.199,75.988 26.013,64.8 26.013,51 C26.013,37.2 37.2,26.012 51,26.012 C64.8,26.012 75.988,37.2 75.988,51 C75.988,64.8 64.801,75.988 51,75.988 Z" id="Shape" fill="#E2574C"></path>
            <path d="M51,7.999 C27.252,7.999 8,27.251 8,50.999 C8,74.747 27.252,93.999 51,93.999 C74.748,93.999 94,74.747 94,50.999 C94,27.251 74.748,7.999 51,7.999 Z M51,90.999 C28.908,90.999 11,73.091 11,50.999 C11,28.908 28.908,10.999 51,10.999 C73.092,10.999 91,28.908 91,50.999 C91,73.091 73.092,90.999 51,90.999 Z" id="Shape" fill="#E4645A"></path>
            <g id="Group" transform="translate(9.000000, 18.000000)" fill="#D85349">
                <path d="M0.125,5.674 L18.623,24.172 C19.424,22.051 20.505,20.069 21.821,18.269 L4.029,0.476 C2.619,2.12 1.314,3.855 0.125,5.674 Z M14.652,74.861 L33.145,56.368 C31.028,55.565 29.049,54.484 27.251,53.168 L9.46,70.958 C11.104,72.367 12.836,73.672 14.652,74.861 Z M56.732,53.18 C54.932,54.496 52.95,55.577 50.83,56.378 L69.326,74.874 C71.145,73.686 72.88,72.38 74.524,70.971 L56.732,53.18 Z M79.958,0.461 L62.168,18.252 C63.484,20.049 64.565,22.028 65.368,24.146 L83.861,5.653 C82.672,3.836 81.367,2.104 79.958,0.461 Z" id="Shape"></path>
            </g>
            <path d="M51,19.999 C33.879,19.999 20,33.878 20,50.999 C20,68.12 33.879,81.999 51,81.999 C68.121,81.999 82,68.12 82,50.999 C82,33.878 68.121,19.999 51,19.999 Z M51,75.988 C37.199,75.988 26.013,64.8 26.013,51 C26.013,37.2 37.2,26.012 51,26.012 C64.8,26.012 75.988,37.2 75.988,51 C75.988,64.8 64.801,75.988 51,75.988 Z" id="Shape" fill="#D95449"></path>
            <path d="M23.042,37.591 L27.622,42.171 C27.814,41.661 28.025,41.161 28.249,40.669 L28.297,40.563 C28.755,39.57 29.274,38.612 29.853,37.695 L29.918,37.594 C30.204,37.145 30.503,36.704 30.816,36.275 L30.82,36.269 L26.529,31.978 C25.18,33.713 24.004,35.59 23.042,37.591 Z M75.457,31.962 L71.168,36.252 C71.482,36.682 71.782,37.123 72.069,37.573 L72.137,37.679 C72.717,38.597 73.238,39.555 73.697,40.548 L73.736,40.634 C73.962,41.129 74.174,41.632 74.368,42.144 L78.946,37.565 C77.984,35.568 76.808,33.695 75.457,31.962 Z M65.732,71.18 L65.713,71.193 C65.291,71.501 64.859,71.794 64.418,72.075 L64.296,72.153 C63.384,72.728 62.433,73.245 61.446,73.699 L61.319,73.757 C60.83,73.98 60.334,74.189 59.829,74.379 L64.407,78.957 C66.409,77.996 68.286,76.82 70.02,75.47 L65.732,71.18 Z M42.146,74.368 C41.635,74.175 41.132,73.963 40.638,73.736 L40.549,73.696 C39.557,73.238 38.6,72.717 37.683,72.138 L37.572,72.067 C37.125,71.782 36.686,71.484 36.259,71.171 L36.254,71.167 L31.965,75.455 C33.697,76.806 35.571,77.982 37.569,78.944 L42.146,74.368 Z" id="Shape" fill="#D05046"></path>
            <path d="M14.199,28.748 L16.396,30.945 C17.496,29.051 18.737,27.25 20.123,25.57 L17.997,23.444 C16.603,25.11 15.33,26.881 14.199,28.748 Z M83.991,23.428 L81.865,25.554 C83.25,27.232 84.491,29.031 85.592,30.922 L87.788,28.725 C86.657,26.861 85.384,25.093 83.991,23.428 Z M76.43,81.876 C74.75,83.262 72.949,84.503 71.055,85.603 L73.252,87.8 C75.119,86.668 76.89,85.397 78.557,84.003 L76.43,81.876 Z M30.923,85.591 C29.032,84.49 27.233,83.249 25.555,81.864 L23.429,83.99 C25.094,85.383 26.862,86.656 28.726,87.787 L30.923,85.591 Z" id="Shape" fill="#DA5E54"></path>
            <g id="Group" transform="translate(10.000000, 10.000000)" fill="#EFEFEF">
                <path d="M29.388,63.125 C24.892,60.761 21.208,57.067 18.853,52.566 L0.748,70.671 C3.717,74.692 7.271,78.251 11.289,81.224 L29.388,63.125 Z M52.567,18.852 C57.068,21.208 60.76,24.893 63.125,29.388 L81.224,11.289 C78.251,7.271 74.692,3.717 70.671,0.748 L52.567,18.852 Z M0.762,11.311 L18.864,29.413 C21.224,24.913 24.914,21.223 29.415,18.862 L11.312,0.76 C7.292,3.731 3.733,7.29 0.762,11.311 Z M81.24,70.687 L63.139,52.585 C60.78,57.086 57.089,60.776 52.589,63.137 L70.69,81.238 C74.711,78.267 78.27,74.708 81.24,70.687 Z" id="Shape"></path>
            </g>
            <path d="M26.315,86.197 L28.466,84.047 C24.327,81.22 20.747,77.637 17.924,73.494 L15.773,75.645 C18.648,79.746 22.218,83.319 26.315,86.197 Z M86.215,75.661 L84.065,73.511 C81.239,77.653 77.657,81.236 73.514,84.062 L75.664,86.212 C79.765,83.335 83.338,79.762 86.215,75.661 Z M75.646,15.772 L73.495,17.923 C77.638,20.745 81.221,24.325 84.048,28.464 L86.198,26.313 C83.32,22.217 79.747,18.647 75.646,15.772 Z M15.786,26.335 L17.937,28.486 C20.763,24.344 24.346,20.761 28.488,17.936 L26.337,15.785 C22.237,18.662 18.664,22.235 15.786,26.335 Z" id="Shape" fill="#F1F1F1"></path>
            <path d="M28.863,39.412 C29.744,37.731 30.812,36.164 32.038,34.736 L32.071,34.697 C32.881,33.758 33.759,32.879 34.699,32.069 L34.739,32.035 C36.166,30.809 37.732,29.743 39.412,28.862 L39.413,28.861 L34.997,24.445 C30.681,27.051 27.053,30.679 24.446,34.995 L28.863,39.412 Z M66.984,24.435 L62.567,28.852 L62.571,28.854 C64.252,29.734 65.818,30.799 67.247,32.023 L67.281,32.052 C68.22,32.861 69.099,33.737 69.91,34.676 L69.95,34.722 C70.763,35.669 71.509,36.676 72.175,37.738 L72.179,37.743 C72.514,38.278 72.83,38.826 73.125,39.388 L77.54,34.973 C74.931,30.661 71.301,27.038 66.984,24.435 Z M73.139,62.585 C72.258,64.266 71.192,65.832 69.966,67.26 L69.93,67.301 C69.12,68.24 68.242,69.118 67.303,69.928 L67.264,69.962 C65.836,71.188 64.27,72.256 62.589,73.137 L67.004,77.552 C71.319,74.946 74.948,71.317 77.555,67 L73.139,62.585 Z M37.746,72.18 L37.733,72.172 C36.674,71.507 35.669,70.764 34.724,69.951 L34.673,69.907 C33.735,69.096 32.859,68.219 32.051,67.279 L32.024,67.247 C30.799,65.817 29.733,64.249 28.853,62.566 L24.436,66.983 C27.039,71.298 30.663,74.929 34.974,77.539 L39.388,73.125 C38.827,72.83 38.28,72.515 37.746,72.18 Z" id="Shape" fill="#E6E6E6"></path>
        </g>
    </g>
</svg>