<?xml version="1.0" encoding="UTF-8"?>
<svg width="100px" height="100px" viewBox="0 0 100 100" version="1.1" xmlns="http://www.w3.org/2000/svg" xmlns:xlink="http://www.w3.org/1999/xlink">
    <!-- Generator: Sketch 52.2 (67145) - http://www.bohemiancoding.com/sketch -->
    <title>icon-fireextinguisher-light</title>
    <desc>Created with Sketch.</desc>
    <defs>
        <linearGradient x1="15.2144849%" y1="3.15886922%" x2="85.9823324%" y2="100%" id="linearGradient-1">
            <stop stop-color="#F9F9F9" offset="0%"></stop>
            <stop stop-color="#F1F1F1" offset="100%"></stop>
        </linearGradient>
        <path d="M50,0 C77.614,0 100,22.386 100,50 C100,77.614 77.614,100 50,100 C22.386,100 0,77.614 0,50 C0,22.386 22.386,0 50,0 Z" id="path-2"></path>
        <filter x="-2.5%" y="-2.5%" width="105.0%" height="105.0%" filterUnits="objectBoundingBox" id="filter-3">
            <feGaussianBlur stdDeviation="1.5" in="SourceAlpha" result="shadowBlurInner1"></feGaussianBlur>
            <feOffset dx="0" dy="2" in="shadowBlurInner1" result="shadowOffsetInner1"></feOffset>
            <feComposite in="shadowOffsetInner1" in2="SourceAlpha" operator="arithmetic" k2="-1" k3="1" result="shadowInnerInner1"></feComposite>
            <feColorMatrix values="0 0 0 0 0   0 0 0 0 0   0 0 0 0 0  0 0 0 0.0367130888 0" type="matrix" in="shadowInnerInner1"></feColorMatrix>
        </filter>
    </defs>
    <g id="icon-fireextinguisher-light" stroke="none" stroke-width="1" fill="none" fill-rule="evenodd">
        <g>
            <g id="Path" fill-rule="nonzero">
                <use fill="url(#linearGradient-1)" xlink:href="#path-2"></use>
                <use fill="black" fill-opacity="1" filter="url(#filter-3)" xlink:href="#path-2"></use>
            </g>
            <path d="M27.717,38.077 C22.872,44.396 25.38,54.348 28.554,66.945 C30.965,76.511 33.588,86.991 33.301,97.133 C35.367,97.865 37.495,98.47 39.678,98.928 C40.264,87.41 37.22,75.931 34.543,65.817 C31.89,55.787 29.383,46.313 32.394,42.573 C33.862,40.749 37.214,39.568 41.837,39.696 L42.002,33.008 C35.152,32.828 30.472,34.485 27.717,38.077 Z" id="Path" fill="#324D5B"></path>
            <path d="M35.301,96.133 C35.588,85.991 32.965,75.512 30.554,65.945 C27.38,53.347 24.872,43.396 29.717,37.077 C30.557,35.982 31.6,35.088 32.805,34.35 C30.69,35.193 28.989,36.42 27.717,38.077 C22.872,44.396 25.38,54.348 28.554,66.945 C30.965,76.511 33.588,86.991 33.301,97.133 C35.367,97.865 37.495,98.47 39.678,98.928 C39.703,98.435 39.713,97.942 39.725,97.448 C38.225,97.067 36.743,96.644 35.301,96.133 Z" id="Path" fill="#2D4552"></path>
            <path d="M56,48.73 L56,43 C56,39.687 53.313,37 50,37 C46.687,37 44,39.687 44,43 L44,48.73 C33.092,51.418 25,61.263 25,73 L25,93.294 C32.355,97.551 40.89,100 50,100 C59.11,100 67.644,97.551 75,93.294 L75,73 C75,61.263 66.908,51.418 56,48.73 Z" id="Path" fill="#E2574C"></path>
            <path d="M48,48.087 L48,43.826 C46.08,43.486 44.611,42.674 44.154,41.667 C44.057,42.096 44,42.541 44,43 L44,48.73 C33.092,51.418 25,61.263 25,73 L25,93.294 C26.924,94.407 28.926,95.399 31,96.253 L31,73 C31,60.209 40.609,49.669 53,48.186 C52.016,48.068 51.016,48 50,48 C49.326,48 48.66,48.034 48,48.087 Z" id="Path" fill="#CB4E44"></path>
            <path d="M54.5,33 L74.5,33 C76.433,33 78,34.567 78,36.5 C78,38.434 76.433,40 74.5,40 L54.5,40 C52.567,40 51,38.434 51,36.5 C51,34.567 52.567,33 54.5,33 Z M49.524,32.402 L70.454,20.402 C71.899,19.573 73.747,20.065 74.581,21.5 C75.415,22.935 74.92,24.77 73.476,25.598 L52.546,37.598 C51.101,38.427 49.253,37.935 48.419,36.5 C47.585,35.065 48.08,33.23 49.524,32.402 Z" id="Shape" fill="#4681A0" fill-rule="nonzero"></path>
            <path d="M74.573,21.489 C74.316,21.933 73.954,22.324 73.475,22.598 L52.545,34.598 C51.104,35.424 49.263,34.936 48.426,33.511 C47.908,34.407 47.861,35.54 48.418,36.5 C49.252,37.935 51.1,38.427 52.545,37.598 L73.475,25.598 C74.919,24.769 75.414,22.934 74.58,21.5 L74.573,21.489 Z M74.5,37 L54.5,37 C53.106,37 51.913,36.18 51.35,35 C51.132,35.456 51,35.961 51,36.5 C51,38.434 52.567,40 54.5,40 L74.5,40 C76.433,40 78,38.434 78,36.5 C78,35.961 77.868,35.456 77.65,35 C77.087,36.18 75.894,37 74.5,37 Z" id="Shape" fill="#3F7490" fill-rule="nonzero"></path>
            <path d="M50,26 C55.522,26 60,30.478 60,36 C60,41.523 55.522,46 50,46 C44.477,46 40,41.523 40,36 C40,30.478 44.477,26 50,26 Z" id="Path" fill="#FFFFFF"></path>
            <path d="M53.581,78.444 C61.23,66.256 48.226,61 48.226,61 C49.947,63.029 49.202,67.215 44.092,72.199 C34.349,83.492 50.711,87.998 50.711,87.998 C49.002,82.959 52.271,80.515 53.581,78.444 Z M57.408,71.004 C58.081,72.282 56.699,77.636 54.679,80.072 C50.93,84.606 52.117,86.903 52.408,87.97 C52.444,87.867 52.897,87.367 56.393,84.919 C63.859,79.708 57.408,71.004 57.408,71.004 Z" id="Shape" fill="#EDEDED" fill-rule="nonzero"></path>
            <path d="M52.478,32.158 C52.97,32.476 53.144,33.171 52.866,33.71 L50.008,40.194 C49.867,40.797 49.309,41.15 48.761,40.982 C48.213,40.815 47.884,40.191 48.025,39.587 L51.084,32.558 C51.36,32.02 51.985,31.841 52.478,32.158 Z" id="Path" fill="#324D5B"></path>
            <path d="M50,38 C53.313,38 56,39.344 56,41 C56,42.657 53.313,44 50,44 C46.687,44 44,42.657 44,41 C44,39.344 46.687,38 50,38 Z" id="Path" fill="#CCD0D2"></path>
            <path d="M50,28.5 C54.136,28.5 57.5,31.864 57.5,36 C57.5,40.136 54.136,43.5 50,43.5 C45.864,43.5 42.5,40.136 42.5,36 C42.5,31.864 45.864,28.5 50,28.5 Z M50,26 C44.477,26 40,30.478 40,36 C40,41.523 44.477,46 50,46 C55.522,46 60,41.523 60,36 C60,30.478 55.522,26 50,26 Z" id="Shape" fill="#EDEDED" fill-rule="nonzero"></path>
        </g>
    </g>
</svg>