<?xml version="1.0" encoding="UTF-8"?>
<svg width="100px" height="100px" viewBox="0 0 100 100" version="1.1" xmlns="http://www.w3.org/2000/svg" xmlns:xlink="http://www.w3.org/1999/xlink">
    <!-- Generator: Sketch 52.2 (67145) - http://www.bohemiancoding.com/sketch -->
    <title>icon-pen</title>
    <desc>Created with Sketch.</desc>
    <defs>
        <linearGradient x1="12.9061023%" y1="0%" x2="85.9823324%" y2="100%" id="linearGradient-1">
            <stop stop-color="#0FA49F" offset="0%"></stop>
            <stop stop-color="#8C2E74" offset="100%"></stop>
        </linearGradient>
        <linearGradient x1="50%" y1="0%" x2="50%" y2="100%" id="linearGradient-2">
            <stop stop-color="#C7FFFE" offset="0%"></stop>
            <stop stop-color="#2DE4DE" offset="100%"></stop>
        </linearGradient>
    </defs>
    <g id="icon-pen" stroke="none" stroke-width="1" fill="none" fill-rule="evenodd">
        <g>
            <path d="M50,0 C77.614,0 100,22.386 100,50 C100,77.614 77.614,100 50,100 C22.386,100 0,77.614 0,50 C0,22.386 22.386,0 50,0 Z" id="Path" fill="url(#linearGradient-1)" fill-rule="nonzero" opacity="0.243419829"></path>
            <path d="M59.857,24.988 L75.993,41.134 L64.859,58.617 C63.4,60.681 61.283,62.181 58.839,62.881 C58.839,62.881 35.812,69.833 32.363,70.874 C31.9,71.014 31.202,70.272 31.202,70.272 L49.508,52.955 C50.646,51.815 52.226,51.31 53.861,51.322 C55.176,51.331 56.474,50.706 57.262,49.426 C58.04,48.163 58.015,46.48 57.199,45.191 C55.711,42.84 52.605,42.537 50.818,44.325 C50.044,45.099 49.667,46.121 49.678,47.15 C49.695,48.777 49.187,50.348 48.055,51.48 L30.74,69.809 C30.74,69.809 30.034,68.991 30.203,68.433 C31.436,64.342 38.127,42.154 38.127,42.154 C38.825,39.709 40.324,37.59 42.387,36.132 L59.857,24.988 Z" id="Path" fill="#09CBC4"></path>
            <path d="M59.894,25.024 L42.43,36.207 C40.365,37.674 38.864,39.801 38.162,42.256 L37.545,44.084 C35.892,49.564 31.214,65.078 30.203,68.433 C30.035,68.991 30.74,69.809 30.74,69.809 L48.056,51.48 C49.188,50.348 49.696,48.777 49.679,47.15 C49.668,46.121 50.045,45.099 50.819,44.325 C52.41,42.734 55.038,42.809 56.647,44.5 L67.984,33.12 L59.894,25.024 Z" id="Path" fill="url(#linearGradient-2)"></path>
            <path d="M80.01,39.037 L61.963,20.991 L59.574,23.379 C58.808,24.147 58.808,25.389 59.574,26.156 L74.845,41.426 C75.612,42.193 76.854,42.193 77.621,41.426 L80.01,39.037 Z" id="Path" fill="#696969"></path>
            <path d="M64.859,58.617 C63.4,60.681 61.283,62.181 58.839,62.881 C58.839,62.881 35.812,69.833 32.363,70.874 C32.183,70.928 31.968,70.849 31.773,70.732 L31.202,71.272 C31.202,71.272 31.9,72.013 32.363,71.874 C35.812,70.833 58.839,63.881 58.839,63.881 C61.282,63.182 63.4,61.682 64.859,59.617 L75.993,42.135 L75.604,41.746 L64.859,58.617 Z" id="Path" fill="#181E23" opacity="0.318940662"></path>
            <path d="M31.203,70.272 L31.614,69.883 L48.056,52.48 C49.188,51.348 49.696,49.777 49.679,48.15 C49.668,47.121 50.045,46.099 50.819,45.325 C52.606,43.537 55.712,43.841 57.2,46.191 C57.531,46.713 57.725,47.302 57.796,47.9 C57.914,46.976 57.716,46.005 57.2,45.191 C55.712,42.84 52.606,42.537 50.819,44.325 C50.045,45.099 49.668,46.121 49.679,47.15 C49.696,48.777 49.188,50.348 48.056,51.48 L30.74,69.809 C30.74,69.809 30.465,69.49 30.299,69.114 L30.203,69.433 C30.035,69.991 30.74,70.809 30.74,70.809 L31.225,70.295 L31.203,70.272 Z" id="Path" fill="#181E23" opacity="0.318940662"></path>
            <path d="M78.01,37.037 L75.621,39.426 C74.853,40.193 73.611,40.193 72.845,39.426 L59.574,26.156 L59.575,26.156 L74.846,41.426 C75.613,42.193 76.855,42.193 77.622,41.426 L80.011,39.037 L78.01,37.037 Z" id="Path" fill="#696969"></path>
            <path d="M87.318,39.348 C85.138,41.528 81.604,41.528 79.425,39.348 L61.65,21.573 C59.471,19.393 59.471,15.859 61.65,13.679 L70.797,4.533 C82.148,9.734 91.221,19.047 96.086,30.578 L87.318,39.348 Z" id="Path" fill="#181E23"></path>
            <path d="M82.318,34.348 L92.689,23.976 C93.976,26.08 95.119,28.284 96.086,30.579 L87.317,39.349 C85.137,41.529 81.603,41.529 79.424,39.349 L75.727,35.652 C77.979,36.335 80.752,35.914 82.318,34.348 Z" id="Path" fill="#16191C"></path>
            <g id="Group" transform="translate(61.000000, 9.000000)" fill="#9B9191" fill-rule="nonzero">
                <path d="M3.565,1.766 L4.979,0.352 L30.647,26.02 L29.233,27.434 L3.565,1.766 Z M27.819,28.847 L26.405,30.261 L0.737,4.593 L2.151,3.179 L27.819,28.847 Z" id="Shape"></path>
            </g>
            <g id="Group" transform="translate(82.000000, 30.000000)" fill="#554B45" fill-rule="nonzero">
                <path d="M3.232,1.434 L4.646,0.02 L9.646,5.02 L8.232,6.434 L3.232,1.434 Z M6.82,7.847 L5.406,9.261 L0.406,4.261 L1.82,2.847 L6.82,7.847 Z" id="Shape"></path>
            </g>
        </g>
    </g>
</svg>