<?xml version="1.0" encoding="UTF-8"?>
<svg width="100px" height="100px" viewBox="0 0 100 100" version="1.1" xmlns="http://www.w3.org/2000/svg" xmlns:xlink="http://www.w3.org/1999/xlink">
    <!-- Generator: Sketch 52.2 (67145) - http://www.bohemiancoding.com/sketch -->
    <title>icon-compass</title>
    <desc>Created with Sketch.</desc>
    <defs>
        <linearGradient x1="12.9061023%" y1="0%" x2="85.9823324%" y2="100%" id="linearGradient-1">
            <stop stop-color="#0FA49F" offset="0%"></stop>
            <stop stop-color="#8C2E74" offset="100%"></stop>
        </linearGradient>
    </defs>
    <g id="icon-compass" stroke="none" stroke-width="1" fill="none" fill-rule="evenodd">
        <g>
            <path d="M50,0 C77.614,0 100,22.386 100,50 C100,77.614 77.614,100 50,100 C22.386,100 0,77.614 0,50 C0,22.386 22.386,0 50,0 Z" id="Path" fill="url(#linearGradient-1)" fill-rule="nonzero" opacity="0.243419829"></path>
            <path d="M50,8 C73.196,8 92,26.805 92,50 C92,73.196 73.196,92 50,92 C26.804,92 8,73.196 8,50 C8,26.805 26.804,8 50,8 Z" id="Path" fill="#EFEFEF"></path>
            <path d="M50,31 C39.507,31 31,39.507 31,50 C31,60.494 39.507,69 50,69 C60.493,69 69,60.494 69,50 C69,39.507 60.493,31 50,31 Z M50,67 C40.611,67 33,59.389 33,50 C33,40.611 40.611,33 50,33 C59.389,33 67,40.611 67,50 C67,59.389 59.389,67 50,67 Z" id="Shape" fill="#CCD0D2" fill-rule="nonzero"></path>
            <path d="M72.916,27.116 C74.377,28.574 56.872,53.966 55.413,55.426 C53.953,56.885 28.581,74.413 27.084,72.917 C25.619,71.453 43.173,46.022 44.587,44.607 C46.001,43.193 71.377,25.578 72.916,27.116 Z" id="Path" fill="#BF392B"></path>
            <path d="M50,17 C48.896,17 48,17.896 48,19 C48,20.104 48.896,21 50,21 C51.104,21 52,20.104 52,19 C52,17.896 51.104,17 50,17 Z M50,79 C48.896,79 48,79.896 48,81 C48,82.105 48.896,83 50,83 C51.104,83 52,82.105 52,81 C52,79.896 51.104,79 50,79 Z M81,48 C79.896,48 79,48.896 79,50 C79,51.105 79.896,52 81,52 C82.104,52 83,51.105 83,50 C83,48.896 82.104,48 81,48 Z M19,48 C17.896,48 17,48.896 17,50 C17,51.105 17.896,52 19,52 C20.104,52 21,51.105 21,50 C21,48.896 20.104,48 19,48 Z M70.506,70.506 C69.725,71.287 69.725,72.554 70.506,73.335 C71.287,74.115 72.554,74.115 73.335,73.335 C74.115,72.554 74.115,71.287 73.335,70.506 C72.554,69.725 71.287,69.725 70.506,70.506 Z M26.665,26.666 C25.885,27.447 25.885,28.713 26.665,29.495 C27.446,30.276 28.713,30.276 29.494,29.495 C30.275,28.714 30.275,27.448 29.494,26.666 C28.713,25.884 27.446,25.884 26.665,26.666 Z" id="Shape" fill="#CCD0D2" fill-rule="nonzero"></path>
            <path d="M55.758,55.019 C58.585,51.472 74.304,28.502 72.916,27.117 C71.415,25.617 47.255,42.325 44.747,44.466 L55.758,55.019 Z" id="Path" fill="#E2574C"></path>
            <path d="M44.587,44.607 C43.187,46.007 25.978,70.935 27.058,72.851 L72.83,27.08 C70.721,26.035 45.983,43.211 44.587,44.607 Z" id="Path" fill="#C64D41"></path>
            <path d="M44.747,44.465 L50.209,49.7 L72.83,27.08 C70.773,26.061 47.223,42.352 44.747,44.465 Z" id="Path" fill="#E5685E"></path>
            <path d="M50,47 C51.657,47 53,48.343 53,50 C53,51.657 51.657,53 50,53 C48.343,53 47,51.657 47,50 C47,48.343 48.343,47 50,47 Z" id="Path" fill="#EFEFEF"></path>
            <path d="M50,53 C48.343,53 47,51.657 47,50 C47,49.429 47.168,48.9 47.445,48.445 C46.582,48.972 46,49.915 46,51 C46,52.657 47.343,54 49,54 C50.086,54 51.028,53.418 51.555,52.555 C51.1,52.832 50.571,53 50,53 Z" id="Path" fill="#AD3427"></path>
            <path d="M50,8 C37.639,8 26.526,13.342 18.841,21.841 C26.29,15.104 36.165,11 47,11 C70.196,11 89,29.805 89,53 C89,63.835 84.896,73.71 78.159,81.159 C86.658,73.474 92,62.361 92,50 C92,26.805 73.196,8 50,8 Z" id="Path" fill="#D7D7D7"></path>
        </g>
    </g>
</svg>