<?xml version="1.0" encoding="UTF-8"?>
<svg width="100px" height="101px" viewBox="0 0 100 101" version="1.1" xmlns="http://www.w3.org/2000/svg" xmlns:xlink="http://www.w3.org/1999/xlink">
    <!-- Generator: Sketch 52.2 (67145) - http://www.bohemiancoding.com/sketch -->
    <title>icon-pointer</title>
    <desc>Created with Sketch.</desc>
    <defs>
        <linearGradient x1="12.9061023%" y1="0%" x2="85.9823324%" y2="100%" id="linearGradient-1">
            <stop stop-color="#0FA49F" offset="0%"></stop>
            <stop stop-color="#8C2E74" offset="100%"></stop>
        </linearGradient>
    </defs>
    <g id="icon-pointer" stroke="none" stroke-width="1" fill="none" fill-rule="evenodd">
        <g>
            <path d="M50,0 C22.386,0 0,22.386 0,50 C0,77.615 22.386,100 50,100 C77.614,100 100,77.615 100,50 C100,22.386 77.614,0 50,0 Z" id="Path" fill="url(#linearGradient-1)" fill-rule="nonzero" opacity="0.243419829"></path>
            <path d="M73,56 L25,56 C23.343,56 22.021,57.979 20,60 C20,60 17,63.314 17,63.998 C17,64.723 20,68 20,68 C22.002,70.002 23.343,72 25,72 L73,72 C74.657,72 76,70.656 76,69 L76,59 C76,57.343 74.657,56 73,56 Z M23,34 L71,34 C72.657,34 73.979,35.979 76,38 C76,38 79,41.315 79,41.999 C79,42.723 76,46 76,46 C73.998,48.002 72.657,50 71,50 L23,50 C21.343,50 20,48.656 20,47 L20,37 C20,35.343 21.343,34 23,34 Z" id="Shape" fill="#82C2D8" fill-rule="nonzero"></path>
            <path d="M86.376,84.285 C76.283,82.229 63.687,81 50,81 C36.313,81 23.717,82.229 13.625,84.285 C22.742,93.955 35.661,100 50,100 C64.339,100 77.258,93.955 86.376,84.285 Z" id="Path" fill="#31A7A2"></path>
            <path d="M58,25.0389605 C58,23.3604413 56.657,22 55,22 L45,22 C43.343,22 42,23.3604413 42,25.0389605 L42,99.3476235 C44.605,99.772065 47.276,100.001 50,100.001 C52.724,100.001 55.395,99.772065 58,99.3476235 L58,25.0389605 Z" id="Path" fill="#67554B"></path>
            <g id="Group" transform="translate(42.000000, 22.000000)" fill="#F3F4EC" fill-opacity="0.184980752" fill-rule="nonzero">
                <path d="M6.30132421,1.42108547e-14 L5,1.42108547e-14 L5.39358064,1.18446353 C6.43541173,4.2312524 8.87406823,9.17113191 11.2336227,13.9500064 C12.7394545,17.0008973 14.6716654,20.9173183 16,24 L16,20.9603897 C15.0295536,18.8673247 13.8092607,16.3620049 12.3178988,13.3408537 C9.97860212,8.6009486 7.5592388,3.70003846 6.54634745,0.736315857 L6.30132421,2.14975383e-14 Z M16,14.9525204 C13.6111111,9.96057449 11.3689727,4.734441 9.42243187,1.42108547e-14 L8,1.42108547e-14 C10.6006289,6.32711912 13.2851153,12.5183892 16,18 L16,14.9525204 Z M15.9990411,38.4986505 C13.0294119,36.1027441 10.4356609,34.45456 8.78544069,34.0841928 C8.00204157,33.908493 7.3902807,34.0083225 6.9664589,34.3786897 C6.28853579,34.9716765 5.95580691,35.8332046 6.00470943,36.8684358 C6.15908796,40.1378499 10.1527934,45.3110113 16,50 L16,48.3717819 C10.9457812,44.1430069 7.35000804,39.5059296 7.22247795,36.8055433 C7.19275289,36.1646383 7.36439113,35.6904485 7.75081689,35.353025 C7.79300729,35.3150898 7.97423426,35.2032808 8.53038051,35.3280676 C10.110603,35.6824621 12.8414728,37.4694091 16,40.0779522 L16,38.4986505 L15.9990411,38.4986505 Z M10.8740779,59.3245976 C12.0804839,59.553276 13.3995017,61.2759866 14.9062058,64.5892825 C15.2336142,65.3119062 15.5985598,66.2195054 16,67.2724423 L16,63.8199067 C14.2847555,60.1143004 12.8187168,58.3753282 11.125369,58.0531457 C9.45391802,57.7390941 7.8888226,58.8408158 5.90039024,60.7251258 C3.69611861,62.8137218 5.78047953,70.0531716 9.53524876,78 C10.0086354,77.9837384 10.4809793,77.9644278 10.9512378,77.93597 C7.20793831,70.1070381 5.16945627,63.2202611 6.82213864,61.6561009 C8.45813779,60.1051532 9.77089937,59.1142135 10.8740779,59.3245976 Z M14.0605619,42.3019713 C13.920639,42.5733103 14.0313375,42.9042746 14.3085266,43.0425365 C14.8655616,43.317332 15.4314524,43.6482964 16,44 L16,42.6986101 C15.6041421,42.4687497 15.2091698,42.2544438 14.8168542,42.0600131 C14.5405507,41.9217512 14.2013704,42.0306324 14.0605619,42.3019713 Z M-7.10542736e-15,65 L-7.10542736e-15,70.944492 C0.473391089,72.9366113 1.03681931,74.8958369 1.68193069,76.8334761 C2.1200495,76.8930958 2.5572401,76.9537434 3,77 C1.66336634,73.1185541 0.721225248,69.1137571 -7.10542736e-15,65 Z M13.229,53.3534138 C14.113,54.1938565 15.046,55.0837963 16,56 L16,54.2261812 L14.099,52.4139768 C11.239,49.6956701 8.768,47.3450572 6.996,45.3681987 C4.257,42.3125029 2.076,38.4395978 -7.10542736e-15,34 L-7.10542736e-15,36.9243767 C1.791,40.4800955 3.719,43.6267046 6.056,46.2349052 C7.861,48.2501492 10.349,50.6149043 13.229,53.3534138 Z M14.438072,0.312962963 C14.0878723,0.126388889 13.7004173,0.0140432099 13.2868835,1.42108547e-14 C12.769035,1.61195988 12.8482025,4.27916667 14.3989539,8.69475309 C14.8581254,10.005787 15.4001898,11.4722994 16,13 L16,9.61057099 C15.834214,9.15516975 15.6702907,8.70979938 15.505436,8.24135802 C14.2201285,4.58009259 13.8662033,1.85570988 14.438072,0.312962963 Z M3.59591436,58.1780543 C4.4884793,55.2456 5.77302244,53.6244897 7.41301179,53.3539605 C9.72538691,52.975013 12.8286299,55.2796743 15.7097189,59.5193424 L16,60.0005128 L16,57.752642 C13.0004289,53.7070941 9.84090693,51.6275296 7.21850372,52.0550071 C5.07101616,52.4060756 3.44978647,54.3317894 2.39924542,57.7774233 C1.03275219,62.2628393 3.34413995,70.1154151 6.74655013,77.9638606 C7.19875671,77.9772838 7.64701389,78 8.10119516,78 L8.14760064,77.9989674 C4.70668379,70.228996 2.29952301,62.4332108 3.59591436,58.1780543 Z M2.69839174e-16,6.54925163 L2.69839174e-16,8.46352166 C4.63248906,13.2836556 5.75350367,13.2764553 6.46970745,12.7960877 C7.24092398,12.2786896 7.68725387,11.1451455 4.01074115,3.64441629 C3.38899323,2.37715101 2.84509355,1.17366045 2.33129519,1.42108547e-14 C1.89223114,0.113148685 1.49468614,0.319902192 1.15319188,0.595573534 C1.66491429,1.76203362 2.20673801,2.95729518 2.82433402,4.21838871 C5.42135119,9.51683305 5.69433901,11.1554317 5.67669341,11.6347707 C5.22724959,11.4804771 3.83324717,10.6524344 -7.10542736e-15,6.54925163 Z M16,32.3743534 C10.799,28.3914682 5.309,23.9610448 -7.10542736e-15,18 L-7.10542736e-15,19.911744 C5.34,25.7113481 10.825,30.0559423 16,34 L16,32.3743534 Z M16,27.4702343 C12.047,25.0032398 6.119,18.2718542 -7.10542736e-15,11 L-7.10542736e-15,13.0087938 C6.141,20.2671102 12.035,26.8277119 16,29 L16,27.4702343 Z" id="Shape"></path>
            </g>
            <path d="M42,25 L42,99.3921548 C42.991,99.5511548 43.99,99.668 45,99.768 L45,25 C45,23.343 46.343,22 48,22 L45,22 C43.343,22 42,23.343 42,25 Z M42,53 L58,53 L58,69 L42,69 L42,53 Z" id="Shape" fill="#3F3733" fill-rule="nonzero"></path>
            <g id="Group" transform="translate(42.000000, 32.000000)" fill-rule="nonzero">
                <path d="M0,9.256 L0,11.127 C2.016,13.27 4.052,15.209 6.084,17.001 L8.022,17.001 C5.342,14.704 2.648,12.167 0,9.256 Z M11.059,4.603 C12.62,7.578 14.623,11.397 16,14.403 L16,11.439 C14.994,9.398 13.729,6.955 12.183,4.009 C11.657,3.006 11.128,1.997 10.61,0.999 L9.176,0.999 C9.792,2.188 10.428,3.4 11.059,4.603 Z M6.233,3.547 C6.662,3.257 6.981,2.76 6.5,1 L5.18,1 C5.431,1.808 5.477,2.219 5.47,2.419 C5.219,2.333 4.658,2.021 3.514,1 L1.645,1 C4.746,4.003 5.638,3.95 6.233,3.547 Z M16,5.749 C15.274,4.182 14.57,2.591 13.877,1 L12.493,1 C13.653,3.692 14.823,6.299 16,8.755 L16,5.749 Z M14.792,1 C15.162,1.944 15.565,2.94 16,3.969 L16,1 L14.792,1 Z M0,2.506 L0,4.435 C4.364,9.389 8.601,13.995 12.111,17 L14.112,17 C10.279,14.015 5.212,8.454 0,2.506 Z" id="Shape"></path>
            </g>
            <path d="M26,32 L74,32 C75.657,32 76.979,33.979 79,36 C79,36 82,39.315 82,39.999 C82,40.723 79,44 79,44 C76.998,46.002 75.657,48 74,48 L26,48 C24.343,48 23,46.656 23,45 L23,35 C23,33.343 24.343,32 26,32 Z" id="Path" fill="#EDEDED"></path>
            <path d="M40,37 C38.343,37 37,38.343 37,40 C37,41.657 38.343,43 40,43 C41.657,43 43,41.657 43,40 C43,38.343 41.657,37 40,37 Z M50,37 C48.343,37 47,38.343 47,40 C47,41.657 48.343,43 50,43 C51.657,43 53,41.657 53,40 C53,38.343 51.657,37 50,37 Z M60,37 C58.343,37 57,38.343 57,40 C57,41.657 58.343,43 60,43 C61.657,43 63,41.657 63,40 C63,38.343 61.657,37 60,37 Z" id="Shape" fill="#31A7A2" fill-rule="nonzero"></path>
            <path d="M74,53 L26,53 C24.343,53 23.021,54.979 21,57 C21,57 18,60.314 18,60.998 C18,61.723 21,65 21,65 C23.002,67.002 24.343,69 26,69 L74,69 C75.657,69 77,67.656 77,66 L77,56 C77,54.343 75.657,53 74,53 Z" id="Path" fill="#EDEDED"></path>
            <path d="M40,58 C38.343,58 37,59.343 37,61 C37,62.656 38.343,64 40,64 C41.657,64 43,62.656 43,61 C43,59.343 41.657,58 40,58 Z M50,58 C48.343,58 47,59.343 47,61 C47,62.656 48.343,64 50,64 C51.657,64 53,62.656 53,61 C53,59.343 51.657,58 50,58 Z M60,58 C58.343,58 57,59.343 57,61 C57,62.656 58.343,64 60,64 C61.657,64 63,62.656 63,61 C63,59.343 61.657,58 60,58 Z" id="Shape" fill="#9FA8AC" fill-rule="nonzero"></path>
        </g>
    </g>
</svg>