<?xml version="1.0" encoding="UTF-8"?>
<svg width="100px" height="100px" viewBox="0 0 100 100" version="1.1" xmlns="http://www.w3.org/2000/svg" xmlns:xlink="http://www.w3.org/1999/xlink">
    <!-- Generator: Sketch 52.2 (67145) - http://www.bohemiancoding.com/sketch -->
    <title>icon-tower </title>
    <desc>Created with Sketch.</desc>
    <defs>
        <linearGradient x1="12.9061023%" y1="0%" x2="85.9823324%" y2="100%" id="linearGradient-1">
            <stop stop-color="#0FA49F" offset="0%"></stop>
            <stop stop-color="#8C2E74" offset="100%"></stop>
        </linearGradient>
    </defs>
    <g id="icon-tower-" stroke="none" stroke-width="1" fill="none" fill-rule="evenodd">
        <g>
            <path d="M50,0 C77.614,0 100,22.386 100,50 C100,77.614 77.614,100 50,100 C22.386,100 0,77.614 0,50 C0,22.386 22.386,0 50,0 Z" id="Path" fill="url(#linearGradient-1)" fill-rule="nonzero" opacity="0.243419829"></path>
            <path d="M95.161,71.476 C83.169,66.196 67.57,63 50.5,63 C33.039,63 17.109,66.341 5.012,71.837 C13.119,88.508 30.216,100 50,100 C69.927,100 87.126,88.342 95.161,71.476 Z" id="Path" fill="#475F6C"></path>
            <path d="M70.911,66.767 L53.545,56.816 L62.995,51 L50,43.004 L37.005,51 L46.818,57.039 L29.843,66.767 C28.885,67.316 28.885,68.686 29.843,69.235 L50.377,81 L70.911,69.234 C71.868,68.686 71.868,67.315 70.911,66.767 Z M41.066,51 L50,45.669 L58.934,51 L50,56.331 L41.066,51 Z M50.377,77.75 L33.092,68 L49.547,58.718 L50,58.997 L50.813,58.496 L67.663,68 L50.377,77.75 Z" id="Shape" fill="#CCCCCC" fill-rule="nonzero"></path>
            <path d="M75.732,75.971 L52.732,27.011 C52.514,26.631 52.191,26.353 51.823,26.185 C51.511,25.488 50.813,25 50,25 C49.316,25 48.714,25.344 48.353,25.868 C47.912,26.019 47.519,26.316 47.268,26.752 L24.268,75.249 C23.716,76.205 24.043,77.429 25,77.98 C25.957,78.533 27.18,78.205 27.732,77.249 L48,34.514 L48,83 C48,84.104 48.896,85 50,85 C51.104,85 52,84.104 52,83 L52,34.847 L72.268,77.99 C72.821,78.956 74.043,79.287 75,78.729 C75.957,78.171 76.284,76.936 75.732,75.971 Z" id="Path" fill="#F2F1EF"></path>
            <path d="M50,18 C52.762,18 55,20.239 55,23 C55,25.762 52.762,28 50,28 C47.238,28 45,25.762 45,23 C45,20.239 47.238,18 50,18 Z" id="Path" fill="#EFC75E"></path>
            <g id="Group" transform="translate(13.000000, 2.000000)" fill="#315F73" fill-rule="nonzero">
                <path d="M17.13,52.979 L17.987,51.153 C8.358,44.803 2,33.897 2,21.5 C2,17.75 2.585,14.138 3.663,10.745 C2.698,11.61 1.771,12.516 0.875,13.452 C0.308,16.045 -3.55271368e-15,18.736 -3.55271368e-15,21.5 C-3.55271368e-15,34.698 6.824,46.295 17.13,52.979 Z M47.951,33.993 L48.826,35.855 C53.193,32.374 56,27.019 56,21 C56,10.507 47.493,2 37,2 C26.507,2 18,10.507 18,21 C18,27.019 20.807,32.374 25.174,35.855 L26.049,33.993 C22.353,30.874 20,26.214 20,21 C20,11.611 27.611,4 37,4 C46.389,4 54,11.611 54,21 C54,26.214 51.647,30.874 47.951,33.993 Z M63,21 C63,29.829 58.59,37.617 51.862,42.316 L52.73,44.164 C60.136,39.127 65,30.632 65,21 C65,14.007 62.431,7.618 58.191,2.711 C56.592,1.962 54.946,1.299 53.26,0.719 C59.196,5.484 63,12.796 63,21 Z M21.27,44.164 L22.139,42.316 C15.411,37.617 11,29.829 11,21 C11,12.796 14.804,5.484 20.739,0.719 C19.053,1.299 17.407,1.962 15.808,2.711 C11.569,7.618 9,14.007 9,21 C9,30.632 13.865,39.127 21.27,44.164 Z M74.396,14.825 C73.539,13.859 72.643,12.929 71.713,12.032 C72.546,15.048 73,18.22 73,21.5 C73,34.224 66.302,45.378 56.244,51.646 L57.101,53.471 C67.838,46.874 75,35.025 75,21.5 C75,19.221 74.785,16.993 74.396,14.825 Z M37,12 C41.971,12 46,16.029 46,21 C46,22.957 45.369,24.762 44.309,26.238 L45.256,28.253 C46.959,26.316 48,23.782 48,21 C48,14.925 43.075,10 37,10 C30.925,10 26,14.925 26,21 C26,23.782 27.041,26.316 28.745,28.253 L29.691,26.238 C28.631,24.762 28,22.957 28,21 C28,16.029 32.029,12 37,12 Z" id="Shape"></path>
            </g>
            <path d="M51,26 C48.238,26 46,23.762 46,21 C46,20.603 46.058,20.222 46.146,19.851 C45.44,20.713 45,21.8 45,23 C45,25.762 47.238,28 50,28 C52.364,28 54.334,26.354 54.854,24.149 C53.938,25.27 52.562,26 51,26 Z" id="Path" fill="#D7B354"></path>
        </g>
    </g>
</svg>