<?xml version="1.0" encoding="UTF-8"?>
<svg width="100px" height="100px" viewBox="0 0 100 100" version="1.1" xmlns="http://www.w3.org/2000/svg" xmlns:xlink="http://www.w3.org/1999/xlink">
    <!-- Generator: Sketch 52.2 (67145) - http://www.bohemiancoding.com/sketch -->
    <title>icon-rocket-light</title>
    <desc>Created with Sketch.</desc>
    <defs>
        <linearGradient x1="15.2144849%" y1="3.15886922%" x2="85.9823324%" y2="100%" id="linearGradient-1">
            <stop stop-color="#F9F9F9" offset="0%"></stop>
            <stop stop-color="#F1F1F1" offset="100%"></stop>
        </linearGradient>
        <path d="M50,0 C22.386,0 0,22.386 0,50 C0,77.615 22.386,100 50,100 C77.613,100 100,77.615 100,50 C100,22.386 77.613,0 50,0 Z" id="path-2"></path>
        <filter x="-2.5%" y="-2.5%" width="105.0%" height="105.0%" filterUnits="objectBoundingBox" id="filter-3">
            <feGaussianBlur stdDeviation="1.5" in="SourceAlpha" result="shadowBlurInner1"></feGaussianBlur>
            <feOffset dx="0" dy="2" in="shadowBlurInner1" result="shadowOffsetInner1"></feOffset>
            <feComposite in="shadowOffsetInner1" in2="SourceAlpha" operator="arithmetic" k2="-1" k3="1" result="shadowInnerInner1"></feComposite>
            <feColorMatrix values="0 0 0 0 0   0 0 0 0 0   0 0 0 0 0  0 0 0 0.0367130888 0" type="matrix" in="shadowInnerInner1"></feColorMatrix>
        </filter>
    </defs>
    <g id="icon-rocket-light" stroke="none" stroke-width="1" fill="none" fill-rule="evenodd">
        <g>
            <g id="Path" fill-rule="nonzero">
                <use fill="url(#linearGradient-1)" xlink:href="#path-2"></use>
                <use fill="black" fill-opacity="1" filter="url(#filter-3)" xlink:href="#path-2"></use>
            </g>
            <path d="M53.994,46.979 C56.65,49.639 56.65,53.954 53.994,56.614 C51.338,59.276 43.598,62.718 40.942,60.056 C38.286,57.394 41.721,49.639 44.377,46.979 C47.033,44.317 51.338,44.317 53.994,46.979 Z" id="Path" fill="#EFC75E"></path>
            <path d="M46.012,45.77 L46,46 C46,50.97 50.03,55 55,55 L55.193,54.99 C56.558,52.415 56.16,49.147 53.994,46.978 C51.832,44.813 48.58,44.41 46.012,45.77 Z" id="Path" fill="#DEB957"></path>
            <path d="M1.466,62.026 C6.221,81.279 22.125,96.13 41.94,99.343 C40.819,78.531 23.592,62 2.5,62 C2.153,62 1.811,62.018 1.466,62.026 Z" id="Path" fill="#09CBC4"></path>
            <g id="Group" transform="translate(5.000000, 70.000000)" fill="#31A7A2">
                <path d="M7.394,12.932 C10.56,12.495 13,9.786 13,6.5 C13,2.909 10.09,0 6.5,0 C4.043,0 1.905,1.364 0.8,3.376 C2.626,6.821 4.845,10.023 7.394,12.932 Z" id="Path"></path>
                <circle id="Oval" cx="24" cy="14" r="4"></circle>
            </g>
            <path d="M15.001,6.002 C14.401,11.4 11.401,14.401 6.001,15.002 C11.401,15.602 14.401,18.603 15.001,24.002 C15.601,18.603 18.602,15.602 24.002,15.002 C18.602,14.401 15.601,11.4 15.001,6.002 Z M72,74.002 C71.533,78.2 69.201,80.534 65,81.002 C69.201,81.468 71.533,83.802 72,88.002 C72.467,83.802 74.801,81.468 79.002,81.002 C74.801,80.534 72.467,78.2 72,74.002 Z" id="Shape" fill="#EFC75E" fill-rule="nonzero"></path>
            <path d="M89,45.001 C88.668,48 87,49.668 84,50.002 C87,50.334 88.668,52.002 89,55.001 C89.334,52.002 91,50.334 94,50.002 C91,49.668 89.334,48 89,45.001 Z M19,43 C18.733,45.399 17.4,46.734 15,47 C17.4,47.267 18.733,48.601 19,51 C19.267,48.602 20.6,47.268 23,47 C20.601,46.734 19.267,45.399 19,43 Z M47,71 C46.667,74 45,75.668 42,76.001 C45,76.334 46.667,78.002 47,81.001 C47.333,78.002 49,76.334 52,76.001 C49,75.668 47.334,74 47,71 Z" id="Shape" fill="#5B717C" fill-rule="nonzero"></path>
            <path d="M67.957,32.042 C76.1,40.186 77.73,51.759 69.992,59.498 L66.338,63.153 C58.6,70.89 63.959,52.328 55.815,44.184 C47.672,36.04 29.109,41.399 36.848,33.661 L40.503,30.006 C48.241,22.269 59.812,23.899 67.957,32.042 Z" id="Path" fill="#F26C4F"></path>
            <path d="M94.967,5.033 C97.442,7.508 96.354,23.2 81.139,38.416 C71.23,48.324 64.971,51.79 64.971,51.79 C58.344,56.24 55.139,53.201 50.969,49.031 C46.769,44.83 43.697,41.652 48.21,35.029 C48.21,35.029 51.723,28.724 61.585,18.862 C76.787,3.658 92.482,2.549 94.967,5.033 Z" id="Path" fill="#F4F0D3"></path>
            <path d="M74.979,30.24 C73.577,30.24 72.258,29.694 71.266,28.702 C69.219,26.655 69.221,23.324 71.266,21.277 C72.258,20.286 73.577,19.74 74.979,19.74 C76.381,19.74 77.7,20.286 78.692,21.277 C79.684,22.269 80.229,23.588 80.229,24.99 C80.229,26.392 79.684,27.711 78.692,28.702 C77.7,29.693 76.381,30.24 74.979,30.24 Z" id="Path" fill="#09CBC4"></path>
            <path d="M74.979,20.49 C76.18,20.49 77.311,20.958 78.161,21.807 C79.013,22.658 79.479,23.787 79.479,24.99 C79.479,26.192 79.012,27.322 78.161,28.172 C77.311,29.022 76.181,29.49 74.979,29.49 C73.776,29.49 72.647,29.022 71.797,28.172 C70.043,26.418 70.043,23.562 71.797,21.807 C72.646,20.958 73.775,20.49 74.979,20.49 Z M74.979,18.99 C73.444,18.99 71.907,19.575 70.737,20.747 C68.393,23.091 68.393,26.89 70.737,29.233 C71.907,30.404 73.444,30.99 74.979,30.99 C76.514,30.99 78.049,30.404 79.221,29.233 C81.565,26.89 81.565,23.091 79.221,20.747 C78.049,19.576 76.514,18.99 74.979,18.99 Z" id="Shape" fill="#324D5B" fill-rule="nonzero"></path>
            <path d="M28,82 C30.209,82 32,83.791 32,86 C32,86.242 31.97,86.477 31.929,86.707 C32.588,85.993 33,85.048 33,84 C33,81.791 31.209,80 29,80 C27.033,80 25.406,81.423 25.071,83.293 C25.802,82.503 26.839,82 28,82 Z M11.5,70 C9.039,70 6.914,71.379 5.811,73.396 L6.023,73.81 C7.188,72.695 8.759,72 10.5,72 C14.09,72 17,74.909 17,78.5 C17,79.143 16.903,79.763 16.729,80.349 C17.524,79.271 18,77.942 18,76.5 C18,72.909 15.09,70 11.5,70 Z" id="Shape" fill="#1483A8" fill-rule="nonzero"></path>
            <path d="M81.316,5.891 C81.978,8.912 83.662,12.036 86.302,14.672 C88.589,16.956 91.241,18.521 93.876,19.331 C96.622,12.006 96.358,6.426 94.966,5.033 C93.611,3.678 88.316,3.399 81.316,5.891 Z" id="Path" fill="#F26C4F"></path>
            <path d="M68.023,49.756 C61.043,54.444 57.666,51.243 53.275,46.85 C48.85,42.426 45.613,39.078 50.367,32.1 C50.367,32.1 50.833,31.269 51.87,29.765 C49.279,33.116 48.208,35.029 48.208,35.029 C43.695,41.653 46.767,44.831 50.967,49.031 C55.137,53.201 58.342,56.24 64.969,51.79 C64.969,51.79 66.123,51.148 68.213,49.644 L68.023,49.756 Z" id="Path" fill="#DAD3AF"></path>
            <path d="M65.697,35.302 C66.892,36.496 64.623,40.702 58.849,46.475 C53.076,52.248 49.592,53.797 48.396,52.603 C47.202,51.409 48.751,47.923 54.524,42.15 C60.297,36.377 64.504,34.107 65.697,35.302 Z" id="Path" fill="#F26C4F"></path>
        </g>
    </g>
</svg>