<?xml version="1.0" encoding="UTF-8"?>
<svg width="100px" height="100px" viewBox="0 0 100 100" version="1.1" xmlns="http://www.w3.org/2000/svg" xmlns:xlink="http://www.w3.org/1999/xlink">
    <!-- Generator: Sketch 52.2 (67145) - http://www.bohemiancoding.com/sketch -->
    <title>icon-imac-light</title>
    <desc>Created with Sketch.</desc>
    <defs>
        <linearGradient x1="15.2144849%" y1="3.15886922%" x2="85.9823324%" y2="100%" id="linearGradient-1">
            <stop stop-color="#F9F9F9" offset="0%"></stop>
            <stop stop-color="#F1F1F1" offset="100%"></stop>
        </linearGradient>
        <circle id="path-2" cx="50" cy="50" r="50"></circle>
        <filter x="-2.5%" y="-2.5%" width="105.0%" height="105.0%" filterUnits="objectBoundingBox" id="filter-3">
            <feGaussianBlur stdDeviation="1.5" in="SourceAlpha" result="shadowBlurInner1"></feGaussianBlur>
            <feOffset dx="0" dy="2" in="shadowBlurInner1" result="shadowOffsetInner1"></feOffset>
            <feComposite in="shadowOffsetInner1" in2="SourceAlpha" operator="arithmetic" k2="-1" k3="1" result="shadowInnerInner1"></feComposite>
            <feColorMatrix values="0 0 0 0 0   0 0 0 0 0   0 0 0 0 0  0 0 0 0.0367130888 0" type="matrix" in="shadowInnerInner1"></feColorMatrix>
        </filter>
    </defs>
    <g id="icon-imac-light" stroke="none" stroke-width="1" fill="none" fill-rule="evenodd">
        <g>
            <g id="Oval" fill-rule="nonzero">
                <use fill="url(#linearGradient-1)" xlink:href="#path-2"></use>
                <use fill="black" fill-opacity="1" filter="url(#filter-3)" xlink:href="#path-2"></use>
            </g>
            <path d="M6.705,74.999 C15.351,89.94 31.496,100 50,100 C68.504,100 84.648,89.94 93.295,74.999 L6.705,74.999 Z" id="Path" fill="#253849"></path>
            <polygon id="Path" fill="#CCD0D2" points="42 69.999 59 69.999 59 77.999 42 77.999"></polygon>
            <path d="M40,77.999 L61,77.999 C62.104,77.999 63,78.895 63,79.999 C63,81.103 62.104,81.999 61,81.999 L40,81.999 C38.896,81.999 38,81.103 38,79.999 C38,78.895 38.896,77.999 40,77.999 Z" id="Path" fill="#E4E7E7"></path>
            <path d="M19,22.999 L81,22.999 C82.656,22.999 84,24.343 84,25.999 L84,66.999 C84,68.656 82.656,69.999 81,69.999 L19,69.999 C17.343,69.999 16,68.656 16,66.999 L16,25.999 C16,24.343 17.343,22.999 19,22.999 Z" id="Path" fill="#36434F"></path>
            <polygon id="Path" fill="#31A7A2" points="19 25.999 81 25.999 81 59.999 19 59.999"></polygon>
            <path d="M43,35.001 L57,35.001 C57.553,35.001 58,35.447 58,36.001 L58,50.999 C58,51.553 57.553,52.001 57,52.001 L43,52.001 C42.448,52.001 42,51.553 42,50.999 L42,36.001 C42,35.447 42.448,35.001 43,35.001 Z" id="Path" fill="#E4E7E7"></path>
            <polygon id="Path" fill="#FFFFFF" points="46 47 54 47 54 49 46 49"></polygon>
            <path d="M50,38 C51.656,38 53,39.344 53,41 C53,42.657 51.656,44 50,44 C48.344,44 47,42.657 47,41 C47,39.344 48.344,38 50,38 Z" id="Path" fill="#09CBC4"></path>
            <path d="M16,62.999 L16,66.999 C16,68.656 17.343,69.999 19,69.999 L81,69.999 C82.656,69.999 84,68.656 84,66.999 L84,62.999 L16,62.999 Z" id="Path" fill="#E4E7E7"></path>
            <polygon id="Path" fill="#B7BBBD" points="42 69.999 59 69.999 59 72.999 42 72.999"></polygon>
        </g>
    </g>
</svg>