<?xml version="1.0" encoding="UTF-8"?>
<svg width="100px" height="100px" viewBox="0 0 100 100" version="1.1" xmlns="http://www.w3.org/2000/svg" xmlns:xlink="http://www.w3.org/1999/xlink">
    <!-- Generator: Sketch 52.2 (67145) - http://www.bohemiancoding.com/sketch -->
    <title>icon-server</title>
    <desc>Created with Sketch.</desc>
    <defs>
        <linearGradient x1="12.9061023%" y1="0%" x2="85.9823324%" y2="100%" id="linearGradient-1">
            <stop stop-color="#0FA49F" offset="0%"></stop>
            <stop stop-color="#8C2E74" offset="100%"></stop>
        </linearGradient>
    </defs>
    <g id="icon-server" stroke="none" stroke-width="1" fill="none" fill-rule="evenodd">
        <g>
            <path d="M50,0 C77.614,0 100,22.386 100,50 C100,77.614 77.614,100 50,100 C22.386,100 0,77.614 0,50 C0,22.386 22.386,0 50,0 Z" id="Path" fill="url(#linearGradient-1)" fill-rule="nonzero" opacity="0.243419829"></path>
            <path d="M85,72 L15,72 L15.001,85.695 C24.021,94.54 36.37,100 50,100 C63.63,100 75.979,94.54 84.999,85.695 L85,72 Z M85,55 L15,55 C15,55 15.002,82.549 15.002,74.217 C15.002,77.963 21.368,80.999 29.221,80.999 L29.221,81 L68.594,81 L68.594,80.999 C77.656,80.999 84.998,77.496 84.998,73.174 C84.998,82.55 85,55 85,55 Z M85,42 L15,42 C15,42 15.002,65.549 15.002,57.217 C15.002,60.963 21.084,63.999 28.585,63.999 L28.585,64 L67.86,64 L67.86,63.999 C77.328,63.999 84.999,60.496 84.999,56.174 L85,42 Z" id="Shape" fill="#DADFE1" fill-rule="nonzero"></path>
            <g id="Group" transform="translate(15.000000, 41.000000)" fill="#E1E5E7" fill-rule="nonzero">
                <path d="M60,52.294 C63.649,50.182 67.009,47.627 70,44.694 L70,0 L60,0 L60,52.294 Z M0,44.694 C2.991,47.627 6.35,50.181 10,52.294 L10,2 L0,2 L0,44.694 Z" id="Shape"></path>
            </g>
            <path d="M71.688,33.497 C70.729,28.736 62.418,25 52.188,25 C44.271,25 37.493,27.023 34.368,30.239 C33.428,30.096 32.448,29.998 31.41,29.998 C25.973,29.998 21.566,32.32 21.566,34.912 C21.566,35.428 21.688,36.227 22.01,36.69 C17.782,37.866 15.003,39.712 15.003,42.215 C15.003,45.961 21.369,48.997 29.222,48.997 L29.222,49 L68.595,49 L68.595,48.999 C77.657,48.999 84.999,45.496 84.999,41.173 C84.998,37.357 79.267,34.188 71.688,33.497 Z" id="Path" fill="#F2F1EF"></path>
            <path d="M53.5,54 C52.672,54 52,54.672 52,55.5 C52,56.328 52.672,57 53.5,57 C54.328,57 55,56.328 55,55.5 C55,54.672 54.328,54 53.5,54 Z M53.5,71 C52.672,71 52,71.672 52,72.5 C52,73.328 52.672,74 53.5,74 C54.328,74 55,73.328 55,72.5 C55,71.672 54.328,71 53.5,71 Z M65.5,88 C64.672,88 64,88.672 64,89.5 C64,90.328 64.672,91 65.5,91 C66.328,91 67,90.328 67,89.5 C67,88.672 66.328,88 65.5,88 Z M53.5,88 C52.672,88 52,88.672 52,89.5 C52,90.328 52.672,91 53.5,91 C54.328,91 55,90.328 55,89.5 C55,88.672 54.328,88 53.5,88 Z" id="Shape" fill="#9ECEC7" fill-rule="nonzero"></path>
            <path d="M59.5,54 C58.672,54 58,54.672 58,55.5 C58,56.328 58.672,57 59.5,57 C60.328,57 61,56.328 61,55.5 C61,54.672 60.328,54 59.5,54 Z M65.5,57 C66.328,57 67,56.328 67,55.5 C67,54.672 66.328,54 65.5,54 C64.672,54 64,54.672 64,55.5 C64,56.328 64.672,57 65.5,57 Z M59.5,71 C58.672,71 58,71.672 58,72.5 C58,73.328 58.672,74 59.5,74 C60.328,74 61,73.328 61,72.5 C61,71.672 60.328,71 59.5,71 Z M65.5,71 C64.672,71 64,71.672 64,72.5 C64,73.328 64.672,74 65.5,74 C66.328,74 67,73.328 67,72.5 C67,71.672 66.328,71 65.5,71 Z M59.5,88 C58.672,88 58,88.672 58,89.5 C58,90.328 58.672,91 59.5,91 C60.328,91 61,90.328 61,89.5 C61,88.672 60.328,88 59.5,88 Z" id="Shape" fill="#3DB39E" fill-rule="nonzero"></path>
            <path d="M45,53 L30,53 C29.448,53 29,53.447 29,54 L29,55 C29,55.553 29.448,56 30,56 L45,56 C45.552,56 46,55.553 46,55 L46,54 C46,53.447 45.552,53 45,53 Z M45,57 L30,57 C29.448,57 29,57.447 29,58 L29,59 C29,59.553 29.448,60 30,60 L45,60 C45.552,60 46,59.553 46,59 L46,58 C46,57.447 45.552,57 45,57 Z M45,70 L30,70 C29.448,70 29,70.447 29,71 L29,72 C29,72.553 29.448,73 30,73 L45,73 C45.552,73 46,72.553 46,72 L46,71 C46,70.447 45.552,70 45,70 Z M45,74 L30,74 C29.448,74 29,74.447 29,75 L29,76 C29,76.553 29.448,77 30,77 L45,77 C45.552,77 46,76.553 46,76 L46,75 C46,74.447 45.552,74 45,74 Z M45,87 L30,87 C29.448,87 29,87.447 29,88 L29,89 C29,89.553 29.448,90 30,90 L45,90 C45.552,90 46,89.553 46,89 L46,88 C46,87.447 45.552,87 45,87 Z M45,91 L30,91 C29.448,91 29,91.447 29,92 L29,93 C29,93.553 29.448,94 30,94 L45,94 C45.552,94 46,93.553 46,93 L46,92 C46,91.447 45.552,91 45,91 Z" id="Shape" fill="#C4C8CA" fill-rule="nonzero"></path>
            <path d="M50,32 C44.477,32 40,33.976 40,37 C40,40.024 44.477,42 50,42 C55.523,42 60,39.762 60,37 C60,34.239 55.523,32 50,32 Z M54.916,35.845 L49.2,38.974 C48.962,39.104 48.641,39.15 48.331,39.13 C47.98,39.18 47.593,39.139 47.319,38.988 L45.068,37.756 C44.654,37.53 44.654,37.164 45.068,36.938 C45.481,36.712 46.151,36.712 46.564,36.938 L48.251,37.862 L53.425,35.03 C53.837,34.804 54.504,34.804 54.916,35.03 C55.328,35.254 55.328,35.62 54.916,35.845 Z" id="Shape" fill="#CECDCB" fill-rule="nonzero"></path>
            <path d="M85,72 L84.998,75.12 L84.998,73.174 C84.998,77.496 77.656,80.999 68.594,80.999 L68.594,81 L29.221,81 L29.221,80.999 C21.368,80.999 15.002,77.963 15.002,74.217 L15.002,75.787 L15.002,72 L15,72 L15,77.861 C17.47,80.654 22.773,82.499 29.221,82.499 L68.594,82.5 C76.03,82.499 82.262,80.249 85,76.959 L85,72 Z M85,55 L84.998,58.38 L84.998,56.174 C84.998,60.496 77.327,63.999 67.859,63.999 L67.859,64 L28.584,64 L28.584,63.999 C21.083,63.999 15.001,60.963 15.001,57.217 L15.001,59.001 L15.001,55 L15,55 L15,60.865 C17.417,63.63 22.527,65.499 28.584,65.499 L67.859,65.5 C75.756,65.499 82.206,63.283 85,59.963 L85,55 Z" id="Shape" fill="#AEB2B4" fill-rule="nonzero"></path>
            <g id="Group" transform="translate(15.000000, 55.000000)" fill="#BFC2C4" fill-rule="nonzero">
                <path d="M69.998,3.38 L69.998,1.174 C69.998,4.331 65.896,7.044 60,8.281 L60,9.836 C64.548,8.944 68.111,7.207 70,4.963 L70,0 L69.999,0 L69.998,3.38 Z M10,10.269 L10,8.753 C4.241,7.967 0.002,5.342 0.002,2.217 L0.002,3.924 L0.002,7.10542736e-15 L0,7.10542736e-15 L0,5.865 C1.922,8.063 5.55,9.691 10,10.269 Z" id="Shape"></path>
            </g>
            <g id="Group" transform="translate(15.000000, 71.000000)" fill="#BFC2C4" fill-rule="nonzero">
                <path d="M69.998,3.896 L69.998,2.174 C69.998,5.412 65.877,8.19 60,9.38 L60,10.902 C64.507,10.026 68.098,8.244 70,5.959 L70,1 L69.999,1 L69.998,3.896 Z M10,11.216 L10,9.695 C4.208,8.838 0.002,6.261 0.002,3.216 L0.002,4.716 L0.002,0.999 L0,0.999 L0,6.86 C1.905,9.016 5.499,10.601 10,11.216 Z" id="Shape"></path>
            </g>
        </g>
    </g>
</svg>