<?xml version="1.0" encoding="UTF-8"?>
<svg width="100px" height="100px" viewBox="0 0 100 100" version="1.1" xmlns="http://www.w3.org/2000/svg" xmlns:xlink="http://www.w3.org/1999/xlink">
    <!-- Generator: Sketch 52.2 (67145) - http://www.bohemiancoding.com/sketch -->
    <title>icon-speed</title>
    <desc>Created with Sketch.</desc>
    <g id="icon-speed" stroke="none" stroke-width="1" fill="none" fill-rule="evenodd">
        <g id="Path">
            <path d="M50,0 C22.386,0 0,22.385 0,49.999 C0,77.614 22.386,100 50,100 C77.614,100 100,77.614 100,49.999 C100,22.385 77.614,0 50,0 Z" fill="#EDEDED"></path>
            <polygon fill="#D5D5D5" points="78.559 27.014 79.986 28.442 42.289 61.993 38.006 57.71"></polygon>
            <polygon fill="#BEBEBE" points="61 76.999 61 82.999 55 82.999 55 76.999 53 76.999 53 82.999 47 82.999 47 76.999 45 76.999 45 82.999 39 82.999 39 76.999 37 76.999 37 84.999 63 84.999 63 76.999"></polygon>
            <path d="M47.031,8.094 C31.828,9.138 18.741,18.445 12.289,31.528 L17.713,34.184 C23.48,22.538 35.382,14.371 49.046,14.018 C49.366,14.01 49.682,14.018 50,14.018 L50,8.004 C49.017,8.004 48.029,8.025 47.031,8.094 Z" fill="#EFC75E"></path>
            <path d="M85.985,49.988 C85.985,55.459 84.548,60.861 82.299,65.598 C81.61,67.05 82.127,68.78 83.534,69.574 L83.588,69.604 C85.152,70.486 87.125,69.838 87.893,68.223 C90.523,62.69 92,56.38 92,49.988 C92,42.946 90.257,36.316 87.193,30.488 L81.867,33.282 C84.491,38.275 85.985,43.956 85.985,49.988 Z" fill="#E2574C"></path>
            <path d="M16.407,69.613 L16.461,69.584 C17.869,68.809 18.385,67.117 17.695,65.697 C15.256,60.676 13.809,54.577 14.037,48.593 C14.246,43.1 15.723,37.912 18.167,33.3 L12.811,30.49 C10.241,35.357 8.6,40.78 8.137,46.519 C7.518,54.187 9,61.887 12.102,68.263 C12.869,69.841 14.842,70.476 16.407,69.613 Z" fill="#3DB39E"></path>
            <path d="M50,8.004 L50,14.018 C64.174,14.019 76.436,22.203 82.301,34.113 L87.693,31.461 C80.846,17.562 66.542,8.007 50,8.004 Z" fill="#F4B459"></path>
            <polygon fill="#324D5B" points="76.559 22.014 77.986 23.442 42.289 61.993 38.006 57.71"></polygon>
            <path d="M50,44.999 C47.238,44.999 45,47.237 45,49.999 C45,52.761 47.238,54.999 50,54.999 C52.762,54.999 55,52.761 55,49.999 C55,47.237 52.762,44.999 50,44.999 Z" fill="#1E2D36"></path>
        </g>
    </g>
</svg>