<?xml version="1.0" encoding="UTF-8"?>
<svg width="100px" height="100px" viewBox="0 0 100 100" version="1.1" xmlns="http://www.w3.org/2000/svg" xmlns:xlink="http://www.w3.org/1999/xlink">
    <!-- Generator: Sketch 52.2 (67145) - http://www.bohemiancoding.com/sketch -->
    <title>icon-chair-light</title>
    <desc>Created with Sketch.</desc>
    <defs>
        <linearGradient x1="15.2144849%" y1="3.15886922%" x2="85.9823324%" y2="100%" id="linearGradient-1">
            <stop stop-color="#F9F9F9" offset="0%"></stop>
            <stop stop-color="#F1F1F1" offset="100%"></stop>
        </linearGradient>
        <path d="M50,0 C77.614,0 100,22.386 100,50 C100,77.614 77.614,100 50,100 C22.386,100 0,77.614 0,50 C0,22.386 22.386,0 50,0 Z" id="path-2"></path>
        <filter x="-2.5%" y="-2.5%" width="105.0%" height="105.0%" filterUnits="objectBoundingBox" id="filter-3">
            <feGaussianBlur stdDeviation="1.5" in="SourceAlpha" result="shadowBlurInner1"></feGaussianBlur>
            <feOffset dx="0" dy="2" in="shadowBlurInner1" result="shadowOffsetInner1"></feOffset>
            <feComposite in="shadowOffsetInner1" in2="SourceAlpha" operator="arithmetic" k2="-1" k3="1" result="shadowInnerInner1"></feComposite>
            <feColorMatrix values="0 0 0 0 0   0 0 0 0 0   0 0 0 0 0  0 0 0 0.0367130888 0" type="matrix" in="shadowInnerInner1"></feColorMatrix>
        </filter>
    </defs>
    <g id="icon-chair-light" stroke="none" stroke-width="1" fill="none" fill-rule="evenodd">
        <g>
            <g id="Path" fill-rule="nonzero">
                <use fill="url(#linearGradient-1)" xlink:href="#path-2"></use>
                <use fill="black" fill-opacity="1" filter="url(#filter-3)" xlink:href="#path-2"></use>
            </g>
            <path d="M95.376,71 L4.625,71 C12.562,88.12 29.889,100 50,100 C70.111,100 87.438,88.12 95.376,71 Z" id="Path" fill="#324D5B"></path>
            <path d="M43,27 C35.268,27 29,33.268 29,41 L29,95.375 C29.458,95.587 29.916,95.8 30.381,95.999 L69.619,95.999 C87.48,88.372 100,70.649 100,50 C100,41.704 97.968,33.887 94.392,27 L43,27 Z" id="Path" fill="#E36055"></path>
            <polygon id="Path" fill="#C15248" points="33 50 41 71 33 71"></polygon>
            <path d="M55.86,48.141 L55.022,43 L54.147,48.138 C53.182,48.426 52.43,49.178 52.139,50.141 L47,50.977 L52.138,51.854 C52.426,52.818 53.178,53.571 54.142,53.861 L54.985,59 L55.854,53.861 C56.817,53.574 57.571,52.821 57.86,51.859 L63,51.014 L57.861,50.146 C57.573,49.183 56.822,48.43 55.86,48.141 Z M89.861,50.146 C89.573,49.183 88.822,48.43 87.86,48.141 L87.022,43 L86.147,48.138 C85.182,48.426 84.43,49.178 84.139,50.141 L79,50.977 L84.138,51.854 C84.426,52.818 85.178,53.571 86.142,53.861 L86.985,59 L87.854,53.861 C88.817,53.574 89.571,52.821 89.86,51.859 L95,51.014 L89.861,50.146 Z" id="Shape" fill="#C04A41" fill-rule="nonzero"></path>
            <path d="M23,43 C16.373,43 11,48.373 11,55 C11,60.223 14.342,64.653 19,66.303 L19,95 C19,97.762 21.239,100 24,100 L30,100 C32.762,100 35,97.762 35,95 L35,55 C35,48.373 29.627,43 23,43 Z" id="Path" fill="#E2574C"></path>
            <path d="M23.034,67.773 C21.613,67.773 20.254,67.525 18.987,67.091 L18.987,70.659 C19.321,70.685 19.657,70.709 19.999,70.709 C24.127,70.709 27.77,68.712 29.963,65.666 C27.997,66.991 25.611,67.773 23.034,67.773 Z" id="Path" fill="#C04A41"></path>
            <path d="M23,50 C25.761,50 28,52.238 28,55 C28,57.762 25.761,60 23,60 C20.239,60 18,57.762 18,55 C18,52.238 20.239,50 23,50 Z" id="Path" fill="#C74D43"></path>
            <path d="M97.031,67 L39,67 C35.134,67 32,70.134 32,74 L32,80 C32,81.656 33.343,83 35,83 L87.547,83 C91.638,78.35 94.884,72.939 97.031,67 Z" id="Path" fill="#CB4E44"></path>
            <path d="M35,83 L35,97.708 C39.735,99.195 44.773,100 50,100 C64.965,100 78.384,93.418 87.547,83 L35,83 Z" id="Path" fill="#E2574C"></path>
            <path d="M35,83 L35,97.708 C35.986,98.018 36.988,98.291 38,98.54 L38,86 L84.679,86 C85.676,85.04 86.633,84.039 87.547,83 L35,83 Z" id="Path" fill="#C04A41"></path>
            <path d="M43,31 L96.227,31 C95.666,29.639 95.066,28.298 94.392,27 L43,27 C35.268,27 29,33.268 29,41 L29,45 C29,37.268 35.268,31 43,31 Z" id="Path" fill="#E67066"></path>
        </g>
    </g>
</svg>