<?xml version="1.0" encoding="UTF-8"?>
<svg width="100px" height="100px" viewBox="0 0 100 100" version="1.1" xmlns="http://www.w3.org/2000/svg" xmlns:xlink="http://www.w3.org/1999/xlink">
    <!-- Generator: Sketch 52.2 (67145) - http://www.bohemiancoding.com/sketch -->
    <title>icon-bag</title>
    <desc>Created with Sketch.</desc>
    <defs>
        <linearGradient x1="12.9061023%" y1="0%" x2="85.9823324%" y2="100%" id="linearGradient-1">
            <stop stop-color="#0FA49F" offset="0%"></stop>
            <stop stop-color="#8C2E74" offset="100%"></stop>
        </linearGradient>
    </defs>
    <g id="icon-bag" stroke="none" stroke-width="1" fill="none" fill-rule="evenodd">
        <g>
            <path d="M50,0 C22.386,0 0,22.387 0,50 C0,77.615 22.386,100 50,100 C77.613,100 100,77.615 100,50 C100,22.387 77.613,0 50,0 Z" id="Path" fill="url(#linearGradient-1)" fill-rule="nonzero" opacity="0.243419829"></path>
            <polygon id="Path" fill="#D07C40" points="19.004 29.985 81.025 29.985 81.025 79.961 19.066 79.961"></polygon>
            <g id="Group" transform="translate(15.000000, 29.000000)" fill="#EFC75E" fill-rule="nonzero">
                <path d="M69.003,13.015 C69.003,13.04 1.059,12.995 0.995,13.015 L0.995,50.934 C0.996,50.938 0.988,53.933 0.977,57.627 C9.902,65.92 21.855,71 35,71 C48.122,71 60.057,65.939 68.977,57.672 C68.946,53.963 68.92,50.949 68.922,50.948 C68.922,35.22 69.003,13.015 69.003,13.015 Z M60.021,5.009 L60.021,11.53 L66.025,10.36 L66.025,0.985 L60.021,5.009 Z M10.01,11.023 L10.01,5.009 L4.004,0.985 L4.004,10.969 L10.01,11.023 Z" id="Shape"></path>
            </g>
            <path d="M25.01,42.015 L25.01,34.009 L15.995,42.015 L25.01,42.015 Z M75.021,34.009 L75.021,42.015 L84.002,42.015 L75.021,34.009 Z" id="Shape" fill="#DBA250" fill-rule="nonzero"></path>
            <path d="M71.064,57.558 C71.064,56.72 70.34,55.972 69.502,55.972 C68.664,55.972 67.853,56.72 67.853,57.558 C67.849,67.716 60.212,75.951 50.053,75.951 C39.893,75.951 32.057,67.718 32.052,57.558 C32.052,56.72 31.342,55.972 30.503,55.972 C29.664,55.972 28.846,56.72 28.846,57.558 C28.846,69.494 38.121,79.166 50.055,79.166 C61.988,79.166 71.064,69.492 71.064,57.558 Z" id="Path" fill="#CBA950"></path>
            <path d="M30.472,52.988 C29.102,52.988 27.992,54.098 27.992,55.468 C27.992,56.837 29.102,57.947 30.472,57.947 C31.842,57.947 32.984,56.837 32.984,55.468 C32.983,54.1 31.841,52.988 30.472,52.988 Z M69.473,52.988 C68.102,52.988 66.993,54.098 66.993,55.468 C66.993,56.837 68.102,57.947 69.473,57.947 C70.842,57.947 71.985,56.837 71.985,55.468 C71.982,54.1 70.841,52.988 69.473,52.988 Z" id="Shape" fill="#D07C40" fill-rule="nonzero"></path>
            <path d="M71.064,56.558 C71.064,55.72 70.34,54.972 69.502,54.972 C68.664,54.972 67.853,55.72 67.853,56.558 C67.849,66.716 60.212,74.951 50.053,74.951 C39.893,74.951 32.057,66.718 32.052,56.558 C32.052,55.72 31.342,54.972 30.503,54.972 C29.664,54.972 28.846,55.72 28.846,56.558 C28.846,68.494 38.121,78.166 50.055,78.166 C61.988,78.166 71.064,68.492 71.064,56.558 Z" id="Path" fill="#FFFFFF"></path>
        </g>
    </g>
</svg>