<?xml version="1.0" encoding="UTF-8"?>
<svg width="100px" height="100px" viewBox="0 0 100 100" version="1.1" xmlns="http://www.w3.org/2000/svg" xmlns:xlink="http://www.w3.org/1999/xlink">
    <!-- Generator: Sketch 52.2 (67145) - http://www.bohemiancoding.com/sketch -->
    <title>icon-shirt</title>
    <desc>Created with Sketch.</desc>
    <defs>
        <linearGradient x1="12.9061023%" y1="0%" x2="85.9823324%" y2="100%" id="linearGradient-1">
            <stop stop-color="#0FA49F" offset="0%"></stop>
            <stop stop-color="#8C2E74" offset="100%"></stop>
        </linearGradient>
    </defs>
    <g id="icon-shirt" stroke="none" stroke-width="1" fill="none" fill-rule="evenodd">
        <g>
            <path d="M50,0 C77.614,0 100,22.386 100,50 C100,77.614 77.614,100 50,100 C22.386,100 0,77.614 0,50 C0,22.386 22.386,0 50,0 Z" id="Path" fill="url(#linearGradient-1)" fill-rule="nonzero" opacity="0.243419829"></path>
            <path d="M50,100 C37.826,100 26.672,95.646 18,88.413 L18,54.325 C18,53.78 18.393,53.337 18.924,53.216 C24.014,52.057 28,41.408 28,28.443 C28,28.043 27.996,27.646 27.987,27.25 C27.975,26.66 28.405,26.154 28.991,26.082 L37.342,25.043 C37.692,25 38.031,25.125 38.282,25.371 C40.781,27.816 45.09,30.033 50,30.033 C54.91,30.033 59.219,27.817 61.717,25.371 C61.969,25.125 62.31,25 62.659,25.043 L71.033,26.085 C71.605,26.156 72.025,26.649 72.012,27.225 C72.005,27.629 72,28.035 72,28.443 C72,41.407 75.985,52.053 81.074,53.215 C81.606,53.337 82,53.781 82,54.327 L82,88.413 C73.328,95.646 62.174,100 50,100 Z" id="Path" fill="#E2574C"></path>
            <path d="M63,28 C63,26.995 62.92,26.017 62.793,25.06 L62.659,25.043 C62.309,25 61.969,25.125 61.717,25.371 C59.219,27.817 54.91,30.033 50,30.033 C45.09,30.033 40.781,27.816 38.282,25.371 C38.031,25.125 37.691,25 37.342,25.043 L37.208,25.06 C37.08,26.017 37,26.995 37,28 C37,37.389 42.82,45 50,45 C57.18,45 63,37.389 63,28 Z" id="Path" fill="#C74B41"></path>
            <path d="M62.938,25.078 L62.659,25.043 C62.309,25 61.969,25.125 61.717,25.371 C59.219,27.817 54.91,30.033 50,30.033 C45.09,30.033 40.781,27.816 38.282,25.371 C38.031,25.125 37.691,25 37.342,25.043 L36.989,25.087 C37.77,29.544 43.274,33 49.963,33 C56.655,33 62.163,29.54 62.938,25.078 Z" id="Path" fill="#D9D9D9"></path>
            <path d="M62,51 L68,51 C68.553,51 69,51.448 69,52 L69,54 C69,54.553 68.553,55 68,55 L62,55 C61.447,55 61,54.553 61,54 L61,52 C61,51.448 61.447,51 62,51 Z" id="Path" fill="#EC9089"></path>
            <path d="M47.688,76.905 L41.227,76.905 C41.032,76.905 41.032,76.74 41.129,76.645 C42.299,75.488 43.835,74.497 45.201,73.411 C47.078,71.924 48.639,70.365 48.639,67.886 C48.639,64.533 45.933,62.998 42.665,62.998 C39.909,62.998 37.398,64.557 37.203,67.508 C37.203,68.334 37.617,68.665 38.422,68.737 C39.202,68.831 39.983,68.571 40.178,67.745 C40.495,66.423 41.446,65.762 42.665,65.762 C44.372,65.762 45.371,66.659 45.371,68.241 C45.371,69.657 43.933,70.956 42.543,71.995 C40.836,73.27 39.251,74.451 37.813,76.057 C37.472,76.458 37.008,77.251 37.008,78.196 C37.008,79.589 37.374,79.99 38.642,79.99 L47.688,79.99 C48.493,79.99 48.712,79.282 48.712,78.574 C48.712,77.863 48.492,76.905 47.688,76.905 Z M58.188,69.279 C58.017,69.255 57.968,69.09 58.066,68.996 L61.236,65.902 C61.602,65.548 61.87,65.171 61.894,64.627 C61.943,63.824 61.748,62.961 60.943,62.961 L52.53,62.961 C51.725,62.961 51.507,63.919 51.507,64.627 C51.507,65.336 51.701,66.044 52.53,66.044 L57.456,66.044 C57.09,66.327 56.822,66.587 56.505,66.918 L54.408,69.043 C53.97,69.491 53.823,70.058 54.091,70.672 C54.311,71.238 54.774,71.569 55.36,71.569 C57.457,71.569 59.773,71.923 59.773,74.568 C59.773,76.102 58.675,77.306 56.969,77.306 C55.555,77.306 54.701,76.81 54.091,75.606 C53.701,74.875 52.921,74.78 52.141,75.086 C51.287,75.417 50.97,76.173 51.361,76.976 C52.361,79.101 54.507,79.997 56.896,79.997 C60.407,79.997 62.992,77.755 63.016,74.308 C63.016,71.546 61.089,69.562 58.188,69.279 Z" id="Shape" fill="#FCEFED" fill-rule="nonzero"></path>
            <g id="Group" transform="translate(18.000000, 49.000000)" fill="#CB4E44" fill-rule="nonzero">
                <path d="M63.074,4.216 C61.597,3.879 60.22,2.724 59,0.966 L59,43.082 C60.743,41.961 62.414,40.737 64,39.414 L64,5.327 C64,4.781 63.606,4.337 63.074,4.216 Z M5,0.965 C3.779,2.724 2.4,3.88 0.924,4.215 C0.393,4.337 0,4.78 0,5.325 L0,39.413 C1.586,40.736 3.257,41.96 5,43.081 L5,0.965 Z" id="Shape"></path>
            </g>
            <g id="Group" transform="translate(18.000000, 25.000000)" fill="#FFFCFC" fill-rule="nonzero">
                <path d="M43.717,0.371 L43.674,0.409 C43.778,1.254 43.846,2.115 43.846,3 C43.846,11.822 38.533,19 32,19 C25.467,19 20.154,11.822 20.154,3 C20.154,2.116 20.221,1.254 20.326,0.41 L20.282,0.371 C20.031,0.125 19.691,3.40005801e-16 19.342,0.043 L18.192,0.186 C18.076,1.105 18,2.041 18,3 C18,12.925 24.28,21 32,21 C39.72,21 46,12.925 46,3 C46,2.041 45.924,1.105 45.809,0.186 L44.66,0.043 C44.31,3.40005801e-16 43.969,0.125 43.717,0.371 Z M12,2 L11.989,1 L11.65,1 L10.991,1.082 C10.428,1.151 10.019,1.624 9.998,2.185 L9.992,2.731 L10,3.443 C10,16.408 6.014,27.056 0.924,28.215 C0.393,28.337 3.55271368e-15,28.78 3.55271368e-15,29.325 L3.55271368e-15,30 C6.729,30 12,17.701 12,2 Z M63.074,28.216 C57.985,27.054 54,16.407 54,3.443 L54.008,2.723 L54.002,2.157 C53.981,1.612 53.582,1.153 53.033,1.085 L52.351,1 L52.011,1 L52,2 C52,17.701 57.271,30 64,30 L64,29.327 C64,28.781 63.606,28.337 63.074,28.216 Z" id="Shape"></path>
            </g>
            <g id="Group" transform="translate(18.000000, 49.000000)" fill="#D9D9D9" fill-rule="nonzero">
                <path d="M5,0.965 C3.779,2.724 2.4,3.88 0.924,4.215 C0.393,4.337 0,4.78 0,5.325 L0,6 C1.795,6 3.485,5.117 5,3.535 L5,0.965 Z M63.074,4.216 C61.597,3.879 60.22,2.724 59,0.966 L59,3.536 C60.516,5.117 62.205,6 64,6 L64,5.327 C64,4.781 63.606,4.337 63.074,4.216 Z" id="Shape"></path>
            </g>
        </g>
    </g>
</svg>