<?xml version="1.0" encoding="UTF-8"?>
<svg width="101px" height="100px" viewBox="0 0 101 100" version="1.1" xmlns="http://www.w3.org/2000/svg" xmlns:xlink="http://www.w3.org/1999/xlink">
    <!-- Generator: Sketch 52.2 (67145) - http://www.bohemiancoding.com/sketch -->
    <title>icon-bulb-light</title>
    <desc>Created with Sketch.</desc>
    <defs>
        <linearGradient x1="15.2144849%" y1="3.15886922%" x2="85.9823324%" y2="100%" id="linearGradient-1">
            <stop stop-color="#F9F9F9" offset="0%"></stop>
            <stop stop-color="#F1F1F1" offset="100%"></stop>
        </linearGradient>
        <circle id="path-2" cx="50.999" cy="50" r="50"></circle>
        <filter x="-2.5%" y="-2.5%" width="105.0%" height="105.0%" filterUnits="objectBoundingBox" id="filter-3">
            <feGaussianBlur stdDeviation="1.5" in="SourceAlpha" result="shadowBlurInner1"></feGaussianBlur>
            <feOffset dx="0" dy="2" in="shadowBlurInner1" result="shadowOffsetInner1"></feOffset>
            <feComposite in="shadowOffsetInner1" in2="SourceAlpha" operator="arithmetic" k2="-1" k3="1" result="shadowInnerInner1"></feComposite>
            <feColorMatrix values="0 0 0 0 0   0 0 0 0 0   0 0 0 0 0  0 0 0 0.0367130888 0" type="matrix" in="shadowInnerInner1"></feColorMatrix>
        </filter>
    </defs>
    <g id="icon-bulb-light" stroke="none" stroke-width="1" fill="none" fill-rule="evenodd">
        <g>
            <g id="Oval" fill-rule="nonzero">
                <use fill="url(#linearGradient-1)" xlink:href="#path-2"></use>
                <use fill="black" fill-opacity="1" filter="url(#filter-3)" xlink:href="#path-2"></use>
            </g>
            <path d="M60,67.999 L41.999,67.999 L41.999,80.999 L43.999,80.999 L43.999,81.999 C43.999,84.208 45.79,85.999 47.999,85.999 L54,85.999 C56.209,85.999 58,84.208 58,81.999 L58,80.999 L60,80.999 L60,67.999 Z" id="Path" fill="#CCD0D2"></path>
            <path d="M42.499,71.999 L59.5,71.999 C60.328,71.999 61,71.327 61,70.499 C61,69.671 60.328,68.999 59.5,68.999 L42.499,68.999 C41.671,68.999 40.999,69.671 40.999,70.499 C40.999,71.327 41.671,71.999 42.499,71.999 Z M59.5,73.999 L42.499,73.999 C41.671,73.999 40.999,74.671 40.999,75.499 C40.999,76.327 41.671,76.999 42.499,76.999 L59.5,76.999 C60.328,76.999 61,76.327 61,75.499 C61,74.671 60.328,73.999 59.5,73.999 Z M59.5,78.999 L42.499,78.999 C41.671,78.999 40.999,79.671 40.999,80.499 C40.999,81.327 41.671,81.999 42.499,81.999 L59.5,81.999 C60.328,81.999 61,81.327 61,80.499 C61,79.671 60.328,78.999 59.5,78.999 Z" id="Shape" fill="#E4E7E7" fill-rule="nonzero"></path>
            <path d="M68.203,36.118 C64.228,27.823 56.107,25.009 51.02,25.009 C45.932,25.009 37.791,27.823 33.819,36.117 C29.847,44.411 33.046,52.102 36.923,57.229 C40.8,62.356 41.743,64.62 41.985,65.875 C42.047,67.163 41.993,66.655 41.993,68.011 C41.993,68.704 43.02,68.977 43.02,68.977 L59.019,68.982 C59.019,68.982 59.994,68.757 59.994,68.011 L59.992,65.844 C60.275,64.596 61.203,62.356 65.08,57.229 C68.957,52.102 72.176,44.412 68.203,36.118 Z" id="Path" fill="#EFC75E"></path>
            <path d="M51.5,11.999 C50.671,11.999 49.999,12.671 49.999,13.499 L49.999,18.499 C49.999,19.327 50.671,19.999 51.5,19.999 C52.328,19.999 53,19.327 53,18.499 L53,13.499 C53,12.671 52.328,11.999 51.5,11.999 Z M26.999,44.499 C26.999,43.671 26.327,42.999 25.499,42.999 L20.499,42.999 C19.671,42.999 18.999,43.671 18.999,44.499 C18.999,45.327 19.671,45.999 20.499,45.999 L25.499,45.999 C26.327,45.999 26.999,45.327 26.999,44.499 Z M81.502,42.999 L76.498,42.999 C75.67,42.999 75,43.67 75,44.498 L75,44.501 C75,45.328 75.67,45.999 76.498,45.999 L81.502,45.999 C82.328,45.999 83,45.328 83,44.501 L83,44.498 C83,43.67 82.328,42.999 81.502,42.999 Z M68.318,17.183 C67.666,16.787 66.832,17.022 66.455,17.709 L64.182,21.854 C63.807,22.541 64.03,23.419 64.682,23.816 C65.334,24.213 66.168,23.977 66.545,23.29 L68.816,19.145 C69.193,18.458 68.971,17.579 68.318,17.183 Z M75.105,32.794 L79.257,30.485 C79.945,30.102 80.196,29.282 79.819,28.651 C79.444,28.021 78.581,27.821 77.891,28.203 L73.741,30.513 C73.052,30.896 72.8,31.716 73.177,32.347 C73.555,32.977 74.418,33.177 75.105,32.794 Z M35.544,17.709 C35.167,17.021 34.333,16.786 33.681,17.183 C33.029,17.58 32.806,18.458 33.183,19.145 L35.454,23.29 C35.831,23.978 36.665,24.213 37.317,23.816 C37.969,23.419 38.194,22.541 37.817,21.854 L35.544,17.709 Z M22.742,30.485 L26.894,32.794 C27.582,33.177 28.445,32.977 28.822,32.347 C29.199,31.716 28.947,30.896 28.258,30.513 L24.106,28.203 C23.419,27.821 22.556,28.021 22.18,28.651 C21.801,29.282 22.053,30.103 22.742,30.485 Z M78.258,58.513 L74.106,56.203 C73.418,55.821 72.555,56.021 72.178,56.651 C71.801,57.282 72.053,58.102 72.742,58.485 L76.892,60.795 C77.581,61.177 78.445,60.977 78.82,60.347 C79.197,59.716 78.945,58.896 78.258,58.513 Z M27.894,56.203 L23.742,58.513 C23.054,58.896 22.802,59.716 23.179,60.347 C23.555,60.977 24.418,61.177 25.105,60.795 L29.257,58.485 C29.946,58.102 30.198,57.282 29.821,56.651 C29.444,56.021 28.581,55.821 27.894,56.203 Z" id="Shape" fill="#4B636F" fill-rule="nonzero"></path>
            <polygon id="Path" fill="#FFFFFF" points="60 44.992 53.9 44.992 57.584 37.999 48.226 37.999 43.999 50.022 49.829 50.022 47.018 58.999 60 44.992"></polygon>
            <path d="M46.021,68.978 C46.021,68.978 44.994,68.706 44.994,68.012 C44.994,66.657 45.049,67.164 44.986,65.876 C44.744,64.62 43.8,62.356 39.924,57.23 C36.048,52.104 32.848,44.412 36.82,36.118 C40.424,28.596 47.448,25.59 52.521,25.094 C52.001,25.043 51.495,25.01 51.021,25.01 C45.933,25.01 37.792,27.824 33.82,36.118 C29.848,44.412 33.047,52.103 36.924,57.23 C40.801,62.357 41.744,64.621 41.986,65.876 C42.048,67.164 41.994,66.656 41.994,68.012 C41.994,68.705 43.021,68.978 43.021,68.978 L59.02,68.983 L59.024,68.982 L46.021,68.978 Z" id="Path" fill="#D7B354"></path>
        </g>
    </g>
</svg>