<?xml version="1.0" encoding="UTF-8"?>
<svg width="974px" height="974px" viewBox="0 0 974 974" version="1.1" xmlns="http://www.w3.org/2000/svg" xmlns:xlink="http://www.w3.org/1999/xlink">
    <!-- Generator: Sketch 52.2 (67145) - http://www.bohemiancoding.com/sketch -->
    <title>pattern</title>
    <desc>Created with Sketch.</desc>
    <defs>
        <path d="M687.677819,0 L632.075271,111.22827 L631.919701,111.306071 L516.32484,169.115545 L458.453007,284.886713 L458.297437,284.967896 L342.702576,342.77737 L284.827361,458.548538 L284.671792,458.629721 L169.076931,516.435813 L111.201715,632.210363 L111.046146,632.288164 L0,687.824498 L0,686.657484 L110.42725,631.435737 L168.302465,515.661186 L168.458035,515.580003 L284.052896,457.773911 L341.924729,341.999361 L342.080299,341.92156 L457.67516,284.112086 L515.546993,168.337536 L515.702562,168.259735 L631.297424,110.453643 L686.514431,0 L687.677819,0 Z M188.509583,0 L183.544889,9.92807529 L183.392701,10.0058762 L67.7978403,67.8119678 L9.922625,183.586518 L0,188.548864 L0,187.385233 L9.14815972,182.811891 L67.0199931,67.0373411 L67.1755625,66.9595402 L182.770424,9.15006599 L187.342812,0 L188.509583,0 Z M210.211521,0 L198.016229,24.3990484 L197.86066,24.4768493 L82.2657986,82.2829409 L24.3905833,198.057491 L24.2350139,198.135292 L0,210.258707 L0,209.091693 L23.6127361,197.282864 L81.4913333,81.5083142 L81.6469028,81.4305133 L197.238382,23.6244218 L209.04475,0 L210.211521,0 Z M463.833681,0 L386.106451,38.8700215 L328.231236,154.644572 L328.075667,154.722373 L212.484187,212.531847 L154.608972,328.303015 L154.453403,328.380815 L38.8585417,386.193672 L0,463.92695 L0,461.596305 L38.0840764,385.415663 L38.2396458,385.337862 L153.831125,327.528388 L211.709722,211.753838 L211.86191,211.676037 L327.456771,153.866562 L385.331986,38.0953949 L385.487556,38.0142113 L461.503521,0 L463.833681,0 Z M420.426424,0 L371.638493,24.3990484 L313.763278,140.173599 L313.607708,140.2514 L198.016229,198.057491 L140.137632,313.832041 L139.985444,313.909842 L24.3905833,371.719317 L0,420.514031 L0,418.183385 L23.6127361,370.941307 L23.7683056,370.863506 L139.363167,313.057415 L197.238382,197.282864 L197.393951,197.205064 L312.988812,139.395589 L370.864028,23.6244218 L371.019597,23.5466208 L418.096264,0 L420.426424,0 Z M507.237556,0 L400.577792,53.3443773 L342.702576,169.115545 L342.547007,169.193346 L226.952146,227.00282 L169.076931,342.77737 L168.921361,342.855171 L53.3298819,400.664645 L0,507.343252 L0,505.012607 L52.5520347,399.886636 L52.7076042,399.808835 L168.302465,341.999361 L226.174299,226.228193 L226.329868,226.14701 L341.924729,168.337536 L399.799944,52.566368 L399.955514,52.4885671 L504.907396,0 L507.237556,0 Z M231.91684,0 L212.484187,38.8700215 L212.328618,38.9478225 L96.7337569,96.7572967 L38.8585417,212.531847 L38.7029722,212.609648 L0,231.965166 L0,230.798152 L38.0840764,211.753838 L95.9592917,95.9792874 L96.1148611,95.9014864 L211.709722,38.0953949 L230.750069,0 L231.91684,0 Z M377.019167,0 L357.170535,9.92807529 L299.295319,125.699243 L299.143132,125.777044 L183.544889,183.586518 L125.669674,299.361068 L125.517486,299.438869 L9.922625,357.248343 L0,377.097729 L0,374.767083 L9.14815972,356.473717 L9.30034722,356.392533 L124.895208,298.583059 L182.770424,182.811891 L182.925993,182.73409 L298.520854,124.924616 L356.392687,9.15006599 L356.548257,9.07226506 L374.692389,0 L377.019167,0 Z M116.585771,0 L38.8585417,38.8700215 L0,116.606682 L0,114.276037 L38.0840764,38.0953949 L38.2396458,38.0142113 L114.252229,0 L116.585771,0 Z M159.993028,0 L53.3298819,53.3443773 L0,160.022984 L0,157.692339 L52.5520347,52.566368 L52.7076042,52.4885671 L157.659486,0 L159.993028,0 Z M73.1785139,0 L24.3905833,24.3990484 L0,73.1903799 L0,70.8597347 L23.6127361,23.6244218 L70.8483542,0 L73.1785139,0 Z M340.42991,0 L284.827361,111.22827 L284.671792,111.306071 L169.076931,169.115545 L111.201715,284.886713 L111.046146,284.967896 L0,340.500847 L0,339.337216 L110.42725,284.112086 L168.302465,168.337536 L168.458035,168.259735 L284.052896,110.453643 L339.266521,0 L340.42991,0 Z M275.320715,0 L241.420104,67.8119678 L241.264535,67.8931514 L125.669674,125.699243 L67.7978403,241.473793 L67.6422708,241.551594 L0,275.378086 L0,274.214454 L67.0199931,240.699166 L124.895208,124.924616 L125.050778,124.846815 L240.645639,67.0373411 L274.153944,0 L275.320715,0 Z M318.727972,0 L270.359403,96.7572967 L270.203833,96.8350976 L154.608972,154.644572 L96.7337569,270.415739 L96.5815694,270.496923 L0,318.794388 L0,317.630756 L95.9592917,269.641113 L153.831125,153.866562 L153.986694,153.788762 L269.581556,95.9792874 L317.561201,0 L318.727972,0 Z M297.026035,0 L255.891444,82.2829409 L255.735875,82.3641245 L140.137632,140.173599 L82.2657986,255.944766 L82.1102292,256.02595 L0,297.087928 L0,295.924297 L81.4913333,255.17014 L139.363167,139.395589 L139.518736,139.317788 L255.113597,81.5083142 L295.859264,0 L297.026035,0 Z M253.618778,0 L226.952146,53.3443773 L226.796576,53.4221782 L111.201715,111.22827 L53.3298819,227.00282 L53.1743125,227.080621 L0,253.671626 L0,252.507995 L52.5520347,226.228193 L110.42725,110.453643 L110.579437,110.375842 L226.174299,52.566368 L252.452007,0 L253.618778,0 Z M557.459431,0 L545.264139,24.3990484 L545.108569,24.4768493 L429.513708,82.2829409 L371.638493,198.057491 L371.482924,198.135292 L255.891444,255.944766 L198.016229,371.719317 L197.86066,371.797117 L82.2657986,429.606592 L24.3905833,545.381142 L24.2350139,545.458943 L0,557.578975 L0,556.411961 L23.6127361,544.603133 L81.4913333,428.831965 L81.6469028,428.750781 L197.238382,370.941307 L255.113597,255.17014 L255.269167,255.092339 L370.864028,197.282864 L428.735861,81.5083142 L428.891431,81.4305133 L544.486292,23.6244218 L556.296042,0 L557.459431,0 Z M948.114597,0 L921.447965,53.3443773 L921.292396,53.4221782 L805.697535,111.231652 L747.825701,227.00282 L747.670132,227.080621 L632.075271,284.886713 L574.200056,400.664645 L574.044486,400.739064 L458.453007,458.548538 L400.577792,574.323088 L284.827361,632.210363 L226.952146,747.981531 L226.796576,748.062714 L111.201715,805.872189 L53.3298819,921.643356 L53.1743125,921.721157 L0,948.312162 L0,947.148531 L52.5520347,920.86873 L110.42725,805.094179 L110.579437,805.016378 L226.174299,747.206904 L284.052896,631.435737 L284.208465,631.354553 L399.799944,573.545079 L457.67516,457.773911 L457.830729,457.69611 L573.42559,399.886636 L631.297424,284.112086 L631.452993,284.034285 L747.047854,226.224811 L804.923069,110.453643 L920.670118,52.566368 L946.947826,0 L948.114597,0 Z M665.975882,0 L617.607312,96.7572967 L617.451743,96.8350976 L501.856882,154.644572 L443.981667,270.415739 L443.826097,270.496923 L328.231236,328.303015 L270.359403,444.077565 L270.203833,444.155366 L154.608972,501.96484 L96.7337569,617.73939 L96.5815694,617.817191 L0,666.114656 L0,664.951025 L95.9592917,616.961381 L153.831125,501.186831 L153.986694,501.10903 L269.581556,443.302938 L327.456771,327.528388 L327.61234,327.447204 L443.207201,269.641113 L501.082417,153.866562 L501.234604,153.788762 L616.829465,95.9792874 L664.809111,0 L665.975882,0 Z M854.488847,0 L747.825701,53.3443773 L689.950486,169.115545 L689.794917,169.193346 L574.200056,227.00282 L516.32484,342.77737 L516.169271,342.855171 L400.577792,400.664645 L342.702576,516.435813 L342.547007,516.513614 L226.952146,574.323088 L169.076931,690.094256 L168.921361,690.172057 L53.3298819,747.984914 L0,854.66352 L0,852.332875 L52.5520347,747.206904 L52.7076042,747.129103 L168.302465,689.319629 L226.174299,573.545079 L226.329868,573.467278 L341.924729,515.661186 L399.799944,399.886636 L399.955514,399.808835 L515.546993,341.999361 L573.42559,226.228193 L573.58116,226.14701 L689.176021,168.337536 L747.047854,52.566368 L747.203424,52.4885671 L852.155306,0 L854.488847,0 Z M969.819917,0 L935.915924,67.8119678 L935.760354,67.8931514 L820.168875,125.699243 L762.29366,241.473793 L762.13809,241.551594 L646.543229,299.361068 L588.671396,415.135619 L588.515826,415.213419 L472.920965,473.019511 L415.04575,588.794061 L414.890181,588.871862 L299.295319,646.681336 L241.420104,762.455887 L241.264535,762.533688 L125.669674,820.343162 L67.7978403,936.114329 L67.6422708,936.19213 L0,970.022005 L0,968.854991 L67.0199931,935.339703 L124.895208,819.565152 L125.050778,819.487352 L240.645639,761.677877 L298.520854,645.90671 L298.673042,645.828909 L414.267903,588.019435 L472.143118,472.244884 L472.298687,472.167083 L587.893549,414.357609 L645.768764,298.583059 L761.515812,240.699166 L819.391028,124.924616 L819.546597,124.846815 L935.141458,67.0373411 L968.653146,0 L969.819917,0 Z M811.08159,0 L733.354361,38.8700215 L675.482528,154.644572 L675.326958,154.722373 L559.732097,212.531847 L501.856882,328.303015 L501.704694,328.380815 L386.106451,386.19029 L328.231236,501.96484 L328.075667,502.042641 L212.484187,559.852115 L154.608972,675.623283 L154.453403,675.704466 L38.8585417,733.51394 L0,811.247218 L0,808.916573 L38.0840764,732.735931 L38.2396458,732.65813 L153.831125,674.848656 L211.709722,559.074106 L211.86191,558.996305 L327.456771,501.186831 L385.331986,385.415663 L385.487556,385.337862 L501.082417,327.528388 L558.95425,211.753838 L559.109819,211.676037 L674.704681,153.866562 L732.579896,38.0953949 L732.735465,38.0142113 L808.751431,0 L811.08159,0 Z M883.005403,0 L878.04409,9.92807529 L877.888521,10.0058762 L762.29366,67.8119678 L704.418444,183.586518 L704.266257,183.667702 L588.671396,241.473793 L530.792799,357.248343 L530.637229,357.326144 L415.04575,415.135619 L357.170535,530.906786 L357.014965,530.984587 L241.420104,588.794061 L183.544889,704.568612 L183.392701,704.646412 L67.7978403,762.455887 L9.922625,878.227054 L0,883.189401 L0,882.025769 L9.14477778,877.452428 L67.0199931,761.677877 L67.1755625,761.600076 L182.770424,703.790602 L240.645639,588.019435 L240.801208,587.941634 L356.392687,530.128777 L414.267903,414.357609 L530.014951,356.473717 L587.893549,240.699166 L588.045736,240.617983 L703.643979,182.811891 L761.515812,67.0373411 L761.671382,66.9595402 L877.266243,9.15006599 L881.842014,0 L883.005403,0 Z M904.710722,0 L892.512049,24.3990484 L892.356479,24.4768493 L776.761618,82.2829409 L718.886403,198.057491 L718.730833,198.135292 L603.135972,255.944766 L545.264139,371.719317 L545.108569,371.797117 L429.513708,429.606592 L371.638493,545.381142 L255.891444,603.268417 L198.016229,719.039585 L197.86066,719.117386 L82.2657986,776.92686 L24.3905833,892.70141 L24.2350139,892.775828 L0,904.899243 L0,903.735612 L23.6127361,891.923401 L81.4913333,776.14885 L81.6469028,776.07105 L197.238382,718.264958 L255.113597,602.490408 L255.269167,602.412607 L370.864028,544.603133 L428.735861,428.831965 L428.891431,428.750781 L544.486292,370.941307 L602.361507,255.17014 L602.517076,255.092339 L718.108556,197.279482 L775.987153,81.5083142 L776.142722,81.4305133 L891.737583,23.6244218 L903.543951,0 L904.710722,0 Z M926.41266,0 L906.980007,38.8700215 L906.827819,38.9478225 L791.232958,96.7572967 L733.354361,212.531847 L617.607312,270.415739 L559.732097,386.19029 L559.576528,386.271473 L443.981667,444.077565 L386.106451,559.852115 L385.954264,559.929916 L270.359403,617.73939 L212.484187,733.510558 L212.328618,733.588359 L96.7371389,791.397833 L38.8585417,907.172383 L38.7029722,907.250184 L0,926.605703 L0,925.442071 L38.0840764,906.394374 L95.9592917,790.623206 L96.1148611,790.545405 L211.709722,732.735931 L269.581556,616.961381 L269.737125,616.88358 L385.331986,559.074106 L443.207201,443.302938 L443.362771,443.225137 L558.95425,385.415663 L616.829465,269.641113 L616.985035,269.563312 L732.579896,211.753838 L790.455111,95.9792874 L790.607299,95.9014864 L906.205542,38.0953949 L925.245889,0 L926.41266,0 Z M600.866687,0 L574.200056,53.3443773 L574.044486,53.4221782 L458.453007,111.22827 L400.577792,227.00282 L400.422222,227.080621 L284.827361,284.886713 L226.952146,400.664645 L226.796576,400.739064 L111.201715,458.548538 L53.3298819,574.323088 L53.1743125,574.400889 L0,600.995277 L0,599.828263 L52.5520347,573.545079 L110.42725,457.773911 L110.579437,457.69611 L226.174299,399.886636 L284.052896,284.112086 L284.208465,284.034285 L399.799944,226.228193 L457.67516,110.453643 L457.830729,110.375842 L573.42559,52.566368 L599.699917,0 L600.866687,0 Z M622.568625,0 L588.671396,67.8119678 L588.515826,67.8931514 L472.920965,125.699243 L415.04575,241.473793 L414.890181,241.551594 L299.295319,299.361068 L241.420104,415.135619 L241.264535,415.213419 L125.669674,473.019511 L67.7978403,588.794061 L67.6422708,588.871862 L0,622.701736 L0,621.534723 L67.0199931,588.019435 L124.895208,472.244884 L125.050778,472.167083 L240.645639,414.357609 L298.520854,298.583059 L298.673042,298.505258 L414.267903,240.699166 L472.143118,124.924616 L472.298687,124.846815 L587.893549,67.0373411 L621.405236,0 L622.568625,0 Z M644.270562,0 L603.135972,82.2829409 L602.983785,82.3641245 L487.392306,140.173599 L429.513708,255.944766 L429.358139,256.02595 L313.763278,313.832041 L255.891444,429.606592 L255.735875,429.684393 L140.137632,487.490484 L82.2657986,603.268417 L82.1102292,603.346218 L0,644.408196 L0,643.241182 L81.4913333,602.490408 L139.363167,486.715857 L139.518736,486.638057 L255.113597,428.831965 L312.988812,313.057415 L313.141,312.979614 L428.735861,255.17014 L486.614458,139.395589 L486.770028,139.317788 L602.361507,81.5083142 L643.107174,0 L644.270562,0 Z M29.7746389,0 L9.922625,9.92807529 L0,29.7740779 L0,27.4468153 L9.14815972,9.15006599 L9.30034722,9.07226506 L27.4410972,0 L29.7746389,0 Z M724.270458,0 L704.418444,9.92807529 L646.543229,125.699243 L646.38766,125.777044 L530.792799,183.586518 L472.920965,299.361068 L472.765396,299.438869 L357.170535,357.248343 L299.295319,473.019511 L299.143132,473.100695 L183.544889,530.906786 L125.669674,646.681336 L125.517486,646.759137 L9.922625,704.568612 L0,724.417997 L0,722.087352 L9.14815972,703.790602 L9.30034722,703.712801 L124.895208,645.90671 L182.770424,530.132159 L182.925993,530.054359 L298.520854,472.241502 L356.392687,356.473717 L356.548257,356.392533 L472.143118,298.583059 L530.018333,182.811891 L530.173903,182.73409 L645.765382,124.924616 L703.643979,9.15006599 L703.796167,9.07226506 L721.936917,0 L724.270458,0 Z M767.674333,0 L718.886403,24.3990484 L661.014569,140.173599 L660.859,140.2514 L545.264139,198.057491 L487.388924,313.832041 L487.233354,313.909842 L371.638493,371.719317 L313.763278,487.490484 L313.607708,487.568285 L198.016229,545.381142 L140.137632,661.15231 L139.985444,661.23011 L24.3905833,719.039585 L0,767.830916 L0,765.500271 L23.6127361,718.264958 L23.7683056,718.183774 L139.363167,660.3743 L197.238382,544.603133 L197.393951,544.525332 L312.988812,486.712475 L370.864028,370.941307 L486.614458,313.057415 L544.486292,197.282864 L544.641861,197.205064 L660.236722,139.395589 L718.108556,23.6244218 L718.264125,23.5466208 L765.344174,0 L767.674333,0 Z M579.16475,0 L559.732097,38.8700215 L559.576528,38.9478225 L443.981667,96.7572967 L386.106451,212.531847 L385.954264,212.609648 L270.359403,270.415739 L212.484187,386.19029 L212.328618,386.271473 L96.7337569,444.077565 L38.8585417,559.852115 L38.7029722,559.929916 L0,579.285434 L0,578.118421 L38.0840764,559.074106 L95.9592917,443.302938 L96.1148611,443.225137 L211.709722,385.415663 L269.581556,269.641113 L269.737125,269.563312 L385.331986,211.753838 L443.207201,95.9792874 L558.95425,38.0953949 L577.997979,0 L579.16475,0 Z M535.757493,0 L530.792799,9.92807529 L530.637229,10.0058762 L415.04575,67.8119678 L357.170535,183.586518 L357.014965,183.667702 L241.420104,241.473793 L183.544889,357.248343 L183.392701,357.326144 L67.7978403,415.135619 L9.922625,530.906786 L0,535.872515 L0,534.705501 L9.14815972,530.132159 L67.0199931,414.357609 L67.1755625,414.279808 L182.770424,356.473717 L240.645639,240.699166 L240.801208,240.617983 L356.392687,182.811891 L414.267903,67.0373411 L414.423472,66.9595402 L530.018333,9.15006599 L534.590722,0 L535.757493,0 Z M829.002514,974 L877.266243,877.452428 L877.421812,877.374627 L974,829.073779 L974,830.240793 L878.04409,878.227054 L830.165906,974 L829.002514,974 Z M640.804082,974 L747.047854,920.86873 L804.923069,805.094179 L805.078639,805.016378 L920.670118,747.206904 L974,640.53168 L974,642.862325 L921.447965,747.981531 L921.292396,748.062714 L805.697535,805.872189 L747.825701,921.643356 L747.670132,921.721157 L643.134229,974 L640.804082,974 Z M684.207962,974 L761.515812,935.339703 L819.391028,819.565152 L819.546597,819.487352 L935.141458,761.677877 L974,683.9446 L974,686.278627 L935.915924,762.455887 L820.168875,820.343162 L762.29366,936.114329 L762.13809,936.19213 L686.541468,974 L684.207962,974 Z M460.049282,974 L515.546993,862.978072 L515.702562,862.900271 L631.297424,805.094179 L689.176021,689.319629 L689.328208,689.241828 L804.923069,631.435737 L862.798285,515.661186 L862.953854,515.580003 L974,460.047051 L974,461.210683 L863.576132,516.435813 L805.697535,632.210363 L805.545347,632.288164 L689.950486,690.094256 L632.075271,805.872189 L631.919701,805.94999 L516.32484,863.756081 L461.216052,974 L460.049282,974 Z M503.456542,974 L544.486292,891.923401 L544.641861,891.8456 L660.236722,834.039508 L718.108556,718.264958 L718.264125,718.183774 L833.862368,660.3743 L891.737583,544.603133 L891.889771,544.525332 L974,503.463353 L974,504.626985 L892.512049,545.381142 L834.636833,661.15231 L834.481264,661.23011 L718.886403,719.039585 L661.014569,834.814135 L660.859,834.891936 L545.264139,892.70141 L504.623312,974 L503.456542,974 Z M525.158479,974 L558.95425,906.394374 L559.109819,906.316573 L674.704681,848.510481 L732.579896,732.735931 L732.735465,732.65813 L848.330326,674.848656 L906.205542,559.074106 L974,525.169813 L974,526.333444 L906.980007,559.852115 L849.104792,675.623283 L848.949222,675.704466 L733.354361,733.510558 L675.482528,849.285108 L675.326958,849.362909 L559.732097,907.172383 L526.32525,974 L525.158479,974 Z M481.754604,974 L530.018333,877.452428 L530.173903,877.374627 L645.768764,819.565152 L703.643979,703.790602 L703.796167,703.712801 L819.391028,645.90671 L877.266243,530.132159 L877.421812,530.054359 L974,481.756894 L974,482.920525 L878.04409,530.906786 L820.168875,646.681336 L820.013306,646.759137 L704.418444,704.568612 L646.543229,820.343162 L530.792799,878.227054 L482.917989,974 L481.754604,974 Z M727.61523,974 L775.987153,949.810676 L833.862368,834.039508 L834.014556,833.958325 L949.609417,776.14885 L974,727.360902 L974,729.691547 L950.387264,776.92686 L950.231694,777.004661 L834.636833,834.814135 L776.761618,950.585302 L776.606049,950.666486 L729.94539,974 L727.61523,974 Z M915.813655,974 L935.141458,935.339703 L935.297028,935.261902 L974,915.906383 L974,917.073397 L935.915924,936.114329 L916.980399,974 L915.813655,974 Z M546.863805,974 L573.42559,920.86873 L573.58116,920.787546 L689.176021,862.978072 L747.047854,747.206904 L747.203424,747.129103 L862.798285,689.319629 L920.670118,573.545079 L920.825687,573.467278 L974,546.876273 L974,548.043287 L921.447965,574.323088 L863.576132,690.094256 L863.420562,690.172057 L747.825701,747.981531 L689.950486,863.756081 L689.794917,863.833882 L574.200056,921.643356 L548.030556,974 L546.863805,974 Z M937.515597,974 L949.609417,949.810676 L974,937.612843 L974,938.779857 L950.387264,950.585302 L938.682354,974 L937.515597,974 Z M959.220868,974 L964.077375,964.281649 L964.232944,964.203848 L974,959.319303 L974,960.486317 L964.855222,965.059658 L960.384329,974 L959.220868,974 Z M771.022458,974 L790.455111,964.281649 L848.330326,848.510481 L848.485896,848.43268 L964.077375,790.623206 L974,770.777204 L974,773.104466 L964.855222,791.397833 L964.699653,791.475634 L849.104792,849.285108 L791.232958,965.059658 L791.077389,965.137459 L773.352694,974 L771.022458,974 Z M894.111702,974 L920.670118,920.86873 L920.825687,920.787546 L974,894.196541 L974,895.363555 L921.447965,921.643356 L895.275097,974 L894.111702,974 Z M807.300573,974 L862.798285,862.978072 L862.953854,862.900271 L974,807.36732 L974,808.534334 L863.576132,863.756081 L808.463968,974 L807.300573,974 Z M872.409771,974 L906.205542,906.394374 L974,872.490081 L974,873.657095 L906.980007,907.172383 L873.57316,974 L872.409771,974 Z M850.70446,974 L891.737583,891.923401 L891.889771,891.8456 L974,850.780239 L974,851.947253 L892.512049,892.70141 L851.871222,974 L850.70446,974 Z M199.615882,974 L226.174299,920.86873 L226.329868,920.787546 L341.924729,862.978072 L399.799944,747.206904 L399.955514,747.129103 L515.546993,689.319629 L573.42559,573.545079 L573.58116,573.467278 L689.176021,515.657804 L747.047854,399.886636 L747.203424,399.808835 L862.798285,341.999361 L920.670118,226.228193 L920.825687,226.14701 L974,199.556005 L974,200.723019 L921.447965,227.00282 L863.576132,342.77737 L863.420562,342.855171 L747.825701,400.664645 L689.950486,516.435813 L689.794917,516.513614 L574.203437,574.323088 L516.32484,690.094256 L516.169271,690.172057 L400.577792,747.981531 L342.702576,863.756081 L226.952146,921.643356 L200.779278,974 L199.615882,974 Z M33.1194101,974 L81.4913333,949.810676 L139.363167,834.039508 L139.518736,833.958325 L255.113597,776.14885 L312.988812,660.3743 L313.141,660.296499 L428.735861,602.490408 L486.614458,486.715857 L486.770028,486.638057 L602.361507,428.831965 L660.236722,313.057415 L660.392292,312.979614 L775.987153,255.17014 L833.862368,139.395589 L834.014556,139.317788 L949.609417,81.5083142 L974,32.7203654 L974,35.0510106 L950.387264,82.2829409 L950.231694,82.3641245 L834.636833,140.173599 L776.761618,255.944766 L776.606049,256.02595 L661.014569,313.832041 L603.135972,429.606592 L602.983785,429.684393 L487.388924,487.490484 L429.513708,603.268417 L429.358139,603.346218 L313.763278,661.15231 L255.891444,776.92686 L255.735875,777.004661 L140.137632,834.814135 L82.2657986,950.585302 L82.1102292,950.666486 L35.4495708,974 L33.1194101,974 Z M568.565745,974 L587.893549,935.339703 L588.045736,935.261902 L703.643979,877.452428 L761.515812,761.677877 L877.266243,703.790602 L935.141458,588.019435 L935.297028,587.941634 L974,568.586115 L974,569.749746 L935.915924,588.794061 L878.04409,704.568612 L877.888521,704.646412 L762.29366,762.455887 L704.418444,878.227054 L704.266257,878.304855 L588.671396,936.114329 L569.732507,974 L568.565745,974 Z M177.913951,974 L211.709722,906.394374 L211.86191,906.316573 L327.456771,848.510481 L385.331986,732.735931 L501.082417,674.848656 L558.95425,559.074106 L559.109819,558.996305 L674.704681,501.186831 L732.579896,385.415663 L732.735465,385.337862 L848.330326,327.528388 L906.205542,211.753838 L906.361111,211.676037 L974,177.849545 L974,179.016559 L906.980007,212.531847 L849.104792,328.303015 L733.354361,386.19029 L675.482528,501.96484 L675.326958,502.042641 L559.732097,559.852115 L501.856882,675.623283 L501.704694,675.704466 L386.106451,733.510558 L328.231236,849.285108 L328.075667,849.362909 L212.484187,907.172383 L179.07734,974 L177.913951,974 Z M76.5266389,974 L95.9592917,964.281649 L153.831125,848.510481 L153.986694,848.43268 L269.581556,790.623206 L327.456771,674.848656 L327.61234,674.770855 L443.207201,616.961381 L501.082417,501.186831 L501.234604,501.10903 L616.829465,443.302938 L674.704681,327.528388 L674.86025,327.447204 L790.455111,269.641113 L848.330326,153.866562 L848.485896,153.788762 L964.077375,95.9792874 L974,76.1332847 L974,78.46393 L964.855222,96.7572967 L964.699653,96.8350976 L849.104792,154.644572 L791.232958,270.415739 L791.077389,270.496923 L675.482528,328.303015 L617.607312,444.077565 L501.856882,501.96484 L443.981667,617.73939 L443.826097,617.817191 L328.231236,675.623283 L270.359403,791.397833 L270.203833,791.475634 L154.608972,849.285108 L96.7337569,965.059658 L96.5815694,965.137459 L78.8568743,974 L76.5266389,974 Z M156.208632,974 L197.238382,891.923401 L197.393951,891.8456 L312.988812,834.039508 L370.864028,718.264958 L371.019597,718.183774 L486.614458,660.3743 L544.486292,544.603133 L544.641861,544.525332 L660.236722,486.715857 L718.108556,370.941307 L833.858986,313.057415 L891.737583,197.282864 L891.889771,197.205064 L974,156.139703 L974,157.306717 L892.512049,198.057491 L834.636833,313.832041 L834.481264,313.909842 L718.886403,371.719317 L661.014569,487.490484 L660.859,487.568285 L545.264139,545.381142 L487.388924,661.15231 L487.233354,661.23011 L371.638493,719.042967 L313.763278,834.814135 L313.607708,834.891936 L198.016229,892.70141 L157.375403,974 L156.208632,974 Z M243.019778,974 L255.113597,949.810676 L255.269167,949.732875 L370.864028,891.923401 L428.735861,776.14885 L544.486292,718.264958 L602.361507,602.490408 L602.517076,602.412607 L718.108556,544.603133 L775.987153,428.831965 L776.142722,428.750781 L891.734201,370.941307 L949.609417,255.17014 L949.764986,255.092339 L974,242.972307 L974,244.135938 L950.387264,255.944766 L892.512049,371.719317 L892.356479,371.797117 L776.761618,429.609974 L718.886403,545.381142 L718.730833,545.458943 L603.135972,603.268417 L545.264139,719.039585 L545.108569,719.117386 L429.513708,776.92686 L371.638493,892.70141 L371.482924,892.775828 L255.891444,950.588685 L244.186549,974 L243.019778,974 Z M264.725049,974 L269.581556,964.281649 L269.737125,964.203848 L385.331986,906.394374 L443.207201,790.623206 L443.362771,790.545405 L558.95425,732.735931 L616.829465,616.961381 L732.579896,559.074106 L790.455111,443.302938 L790.607299,443.225137 L906.205542,385.415663 L964.077375,269.641113 L964.232944,269.563312 L974,264.678766 L974,265.84578 L964.855222,270.415739 L906.980007,386.19029 L906.827819,386.271473 L791.232958,444.077565 L733.354361,559.852115 L617.607313,617.73939 L559.732097,733.510558 L559.576528,733.588359 L443.981667,791.397833 L386.106451,907.172383 L385.954264,907.250184 L270.359403,965.059658 L265.88851,974 L264.725049,974 Z M221.317835,974 L240.645639,935.339703 L240.801208,935.261902 L356.392687,877.452428 L414.267903,761.677877 L530.018333,703.790602 L587.893549,588.019435 L588.045736,587.941634 L703.643979,530.132159 L761.515812,414.357609 L877.266243,356.473717 L935.141458,240.699166 L935.297028,240.617983 L974,221.262464 L974,222.429478 L935.919306,241.473793 L878.04409,357.248343 L877.888521,357.326144 L762.29366,415.135619 L704.418444,530.906786 L704.266257,530.984587 L588.671396,588.797444 L530.792799,704.568612 L530.637229,704.646412 L415.04575,762.455887 L357.170535,878.227054 L357.014965,878.304855 L241.420104,936.114329 L222.481215,974 L221.317835,974 Z M380.367235,974 L428.735861,949.807293 L486.614458,834.039508 L486.770028,833.958325 L602.361507,776.14885 L660.236722,660.3743 L660.392292,660.296499 L775.987153,602.490408 L833.862368,486.715857 L834.014556,486.638057 L949.609417,428.831965 L974,380.040633 L974,382.371279 L950.387264,429.606592 L950.231694,429.684393 L834.636833,487.490484 L776.761618,603.268417 L776.606049,603.346218 L661.014569,661.15231 L603.135972,776.92686 L602.983785,777.004661 L487.388924,834.814135 L429.513708,950.585302 L429.358139,950.666486 L382.697481,974 L380.367235,974 Z M423.774549,974 L443.207201,964.281649 L501.082417,848.510481 L501.234604,848.43268 L616.829465,790.623206 L674.704681,674.848656 L674.86025,674.770855 L790.455111,616.961381 L848.330326,501.186831 L848.485896,501.10903 L964.077375,443.302938 L974,423.453553 L974,425.784198 L964.855222,444.077565 L849.104792,501.96484 L791.232958,617.73939 L791.077389,617.817191 L675.482528,675.623283 L617.607312,791.397833 L617.451743,791.475634 L501.856882,849.285108 L443.981667,965.059658 L443.826097,965.137459 L426.104708,974 L423.774549,974 Z M611.972958,974 L616.829465,964.281649 L616.985035,964.203848 L732.579896,906.394374 L790.455111,790.623206 L790.607299,790.545405 L906.205542,732.735931 L964.077375,616.961381 L974,611.999035 L974,613.166048 L964.855222,617.73939 L906.980007,733.510558 L906.827819,733.588359 L791.232958,791.397833 L733.354361,907.172383 L733.198792,907.250184 L617.607312,965.059658 L613.139726,974 L611.972958,974 Z M590.267688,974 L602.361507,949.810676 L718.108556,891.923401 L775.987153,776.14885 L891.737583,718.264958 L949.609417,602.490408 L949.764986,602.412607 L974,590.292575 L974,591.459589 L950.387264,603.268417 L892.512049,719.039585 L776.761618,776.92686 L718.886403,892.70141 L718.730833,892.775828 L603.135972,950.585302 L591.434415,974 L590.267688,974 Z M134.506694,974 L182.770424,877.452428 L182.925993,877.374627 L298.520854,819.565152 L356.392687,703.790602 L356.548257,703.712801 L472.143118,645.90671 L530.018333,530.132159 L530.173903,530.054359 L645.768764,472.244884 L703.643979,356.473717 L703.796167,356.392533 L819.391028,298.583059 L877.266243,182.811891 L877.421812,182.73409 L974,134.433243 L974,135.600257 L878.04409,183.586518 L820.168875,299.361068 L820.013306,299.438869 L704.421826,357.248343 L646.543229,473.019511 L646.38766,473.100695 L530.792799,530.906786 L472.920965,646.681336 L357.170535,704.568612 L299.295319,820.343162 L299.143132,820.420963 L183.544889,878.227054 L135.67008,974 L134.506694,974 Z M112.804754,974 L168.302465,862.978072 L168.458035,862.900271 L284.052896,805.094179 L341.924729,689.319629 L457.67516,631.435737 L515.546993,515.661186 L515.702562,515.580003 L631.297424,457.770529 L689.176021,341.999361 L689.328208,341.92156 L804.923069,284.112086 L862.798285,168.337536 L974,112.726783 L974,113.893797 L863.576132,169.115545 L805.697535,284.886713 L805.545347,284.967896 L689.950486,342.77737 L632.075271,458.548538 L631.919701,458.629721 L516.32484,516.435813 L458.453007,632.210363 L458.297437,632.288164 L342.702576,690.094256 L284.827361,805.872189 L284.671792,805.94999 L169.076931,863.756081 L113.968143,974 L112.804754,974 Z M293.556173,974 L399.799944,920.86873 L457.67516,805.094179 L457.830729,805.016378 L573.42559,747.206904 L631.297424,631.435737 L631.452993,631.354553 L747.047854,573.545079 L804.923069,457.773911 L805.078639,457.69611 L920.670118,399.886636 L974,293.208029 L974,295.538675 L921.447965,400.664645 L921.292396,400.739064 L805.697535,458.548538 L747.825701,574.323088 L632.075271,632.210363 L574.200056,747.981531 L574.044486,748.062714 L458.453007,805.872189 L400.577792,921.643356 L400.422222,921.721157 L295.889688,974 L293.556173,974 Z M974,336.624331 L974,338.954977 L935.915924,415.135619 L820.168875,473.019511 L762.29366,588.794061 L762.13809,588.871862 L646.546611,646.681336 L588.671396,762.455887 L588.515826,762.533688 L472.920965,820.343162 L415.04575,936.114329 L339.293558,974 L336.960052,974 L414.267903,935.339703 L472.143118,819.565152 L472.298687,819.487352 L587.893549,761.677877 L645.768764,645.90671 L761.515812,588.019435 L819.391028,472.244884 L819.546597,472.167083 L935.141458,414.357609 L974,336.624331 Z" id="path-1"></path>
        <linearGradient x1="32.3605903%" y1="32.3673682%" x2="69.1425347%" y2="69.1569771%" id="linearGradient-3">
            <stop stop-color="#16A997" offset="0%"></stop>
            <stop stop-color="#C16EA0" offset="100%"></stop>
        </linearGradient>
    </defs>
    <g id="Layouts" stroke="none" stroke-width="1" fill="none" fill-rule="evenodd">
        <g id="Artboard-Layout" transform="translate(-526.000000, -1.000000)">
            <g id="bg-pattern-01" transform="translate(526.000000, 0.000000)">
                <g id="pattern">
                    <g transform="translate(0.000000, 1.000000)">
                        <mask id="mask-2" fill="white">
                            <use xlink:href="#path-1"></use>
                        </mask>
                        <g id="Clip-4"></g>
                        <polygon id="Fill-3" fill="url(#linearGradient-3)" mask="url(#mask-2)" points="0 974 974 974 974 0 0 0"></polygon>
                    </g>
                </g>
            </g>
        </g>
    </g>
</svg>