<?xml version="1.0" encoding="UTF-8"?>
<svg width="983px" height="1134px" viewBox="0 0 983 1134" version="1.1" xmlns="http://www.w3.org/2000/svg" xmlns:xlink="http://www.w3.org/1999/xlink">
    <!-- Generator: Sketch 52.2 (67145) - http://www.bohemiancoding.com/sketch -->
    <title>bg-pattern-04</title>
    <desc>Created with Sketch.</desc>
    <defs>
        <linearGradient x1="0%" y1="50%" x2="100%" y2="50%" id="linearGradient-1">
            <stop stop-color="#3DDEED" offset="0%"></stop>
            <stop stop-color="#CB00DD" offset="100%"></stop>
        </linearGradient>
        <linearGradient x1="0%" y1="50.0035521%" x2="100%" y2="50.0035521%" id="linearGradient-2">
            <stop stop-color="#3DDEED" offset="0%"></stop>
            <stop stop-color="#CB00DD" offset="100%"></stop>
        </linearGradient>
        <linearGradient x1="0%" y1="49.9962009%" x2="100%" y2="49.9962009%" id="linearGradient-3">
            <stop stop-color="#3DDEED" offset="0%"></stop>
            <stop stop-color="#CB00DD" offset="100%"></stop>
        </linearGradient>
        <linearGradient x1="0%" y1="50.0013905%" x2="100%" y2="50.0013905%" id="linearGradient-4">
            <stop stop-color="#3DDEED" offset="0%"></stop>
            <stop stop-color="#CB00DD" offset="100%"></stop>
        </linearGradient>
        <linearGradient x1="-0.00278792272%" y1="50%" x2="100.002788%" y2="50%" id="linearGradient-5">
            <stop stop-color="#3DDEED" offset="0%"></stop>
            <stop stop-color="#CB00DD" offset="100%"></stop>
        </linearGradient>
    </defs>
    <g id="Layouts" stroke="none" stroke-width="1" fill="none" fill-rule="evenodd">
        <g id="Artboard-Process" transform="translate(-474.000000, -240.000000)" fill-rule="nonzero">
            <g id="bg-pattern-04" transform="translate(474.000000, 240.000000)">
                <path d="M700.5,930 L281.5,930 L72,567.5 L281.5,205 L700.5,205 L910,567.5 L700.5,930 Z M284.09722,925.507158 L697.90278,925.507158 L904.805559,567.5 L697.90278,209.492842 L284.09722,209.492842 L77.2081104,567.5 L284.09722,925.507158 Z" id="Shape" fill="url(#linearGradient-1)"></path>
                <path d="M687.655013,952 L256.161852,929.464301 L60,544.936985 L295.33131,183 L726.824472,205.590331 L923,590.117647 L687.655013,952 Z M258.992884,925.066425 L685.302658,947.383596 L917.802935,589.844487 L723.993439,209.988207 L297.683666,187.671036 L65.1833885,545.210145 L258.992884,925.066425 Z" id="Shape" fill="url(#linearGradient-2)"></path>
                <path d="M672.464971,973 L229.978633,926.6 L49,520.6 L310.535029,161 L753.021367,207.4 L934,613.4 L672.464971,973 Z M233.025458,922.342118 L670.360886,968.223529 L928.835428,612.908706 L749.974542,211.685176 L312.639114,165.776471 L54.1645722,521.091294 L233.025458,922.342118 Z" id="Shape" fill="url(#linearGradient-1)"></path>
                <path d="M655.363316,995 L202.363316,923.281967 L38,495.281967 L326.636684,139 L779.636684,210.718033 L944,638.718033 L655.363316,995 Z M205.628993,919.239206 L653.505022,990.151418 L938.876029,637.898554 L776.371007,214.747136 L328.494978,143.848582 L43.1239707,496.101446 L205.628993,919.239206 Z" id="Shape" fill="url(#linearGradient-1)"></path>
                <path d="M637.617365,1016 L175.117365,917.841593 L29,468.79383 L345.382635,118 L807.882635,216.158407 L954,665.124291 L637.617365,1016 Z M178.547543,913.979667 L635.963774,1011.07366 L948.916231,664.046227 L804.452457,219.952101 L346.995228,122.858111 L34.042771,469.885541 L178.547543,913.979667 Z" id="Shape" fill="url(#linearGradient-3)"></path>
                <path d="M617.199779,1037 L146.213452,910.920532 L20,440.434191 L364.800221,96 L835.786548,222.079468 L962,692.565809 L617.199779,1037 Z M149.877758,907.246458 L615.859847,1031.97376 L956.968416,691.227299 L832.122242,225.739883 L366.140153,101.026242 L25.0315838,441.772701 L149.877758,907.246458 Z" id="Shape" fill="url(#linearGradient-1)"></path>
                <path d="M595.497983,1058 L117.497983,902.764294 L13,411.250626 L386.502017,75 L864.502017,230.263043 L969,721.735706 L595.497983,1058 Z M121.367266,899.251432 L594.431538,1052.91523 L964.064272,720.177471 L860.632734,233.775905 L387.568462,80.112103 L17.9357284,412.849867 L121.367266,899.251432 Z" id="Shape" fill="url(#linearGradient-4)"></path>
                <path d="M572.511605,1078 L571.3088,1077.53575 L89.0116046,892.601379 L8,381.587724 L410.488395,56 L411.6912,56.4642475 L893.988395,241.412276 L975,752.412276 L572.511605,1078 Z M93.0574009,889.324337 L571.705179,1072.87962 L970.147778,750.555285 L889.942599,244.675663 L411.294821,61.1203773 L12.852222,383.444715 L93.0574009,889.324337 Z" id="Shape" fill="url(#linearGradient-1)"></path>
                <path d="M547.272842,1098 L59.7455157,881.036248 L4,350.536248 L435.754484,37 L923.254484,253.963752 L979,784.463752 L547.272842,1098 Z M63.9810818,877.990616 L546.73998,1092.83745 L974.258899,782.346832 L919.018918,257.009384 L436.26002,42.1625518 L8.74110146,352.653168 L63.9810818,877.990616 Z" id="Shape" fill="url(#linearGradient-1)"></path>
                <path d="M520.312721,1116 L29.7853718,866.450821 L29.716998,865.153433 L1,317.396194 L462.687279,18 L953.214628,267.549179 L953.283002,268.846567 L982,816.603806 L520.312721,1116 Z M34.1476205,863.623881 L520.039226,1110.81045 L977.391606,814.254851 L948.852379,270.376119 L462.960774,23.1895522 L5.60839444,319.813433 L34.1476205,863.623881 Z" id="Shape" fill="url(#linearGradient-5)"></path>
                <path d="M491.5,1134 L0,850.486337 L0,283.486337 L491.5,0 L983,283.513663 L983,850.513663 L491.5,1134 Z M4.5130638,847.890434 L491.5,1128.78087 L978.486936,847.890434 L978.486936,286.109566 L491.5,5.21913253 L4.5130638,286.109566 L4.5130638,847.890434 Z" id="Shape" fill="url(#linearGradient-1)"></path>
            </g>
        </g>
    </g>
</svg>