<?xml version="1.0" encoding="UTF-8"?>
<svg width="171px" height="43px" viewBox="0 0 171 43" version="1.1" xmlns="http://www.w3.org/2000/svg" xmlns:xlink="http://www.w3.org/1999/xlink">
    <!-- Generator: Sketch 52.2 (67145) - http://www.bohemiancoding.com/sketch -->
    <title>logo-cityzen-dark</title>
    <desc>Created with Sketch.</desc>
    <defs>
        <linearGradient x1="-1.11022302e-14%" y1="50%" x2="100%" y2="50%" id="linearGradient-1">
            <stop stop-color="#B08EFA" offset="0%"></stop>
            <stop stop-color="#9775F6" offset="48.3404082%"></stop>
            <stop stop-color="#7A4BEA" offset="49.5416366%"></stop>
            <stop stop-color="#7855F2" offset="100%"></stop>
        </linearGradient>
        <linearGradient x1="50%" y1="0%" x2="50%" y2="100%" id="linearGradient-2">
            <stop stop-color="#B08EFA" offset="0%"></stop>
            <stop stop-color="#7855F2" offset="100%"></stop>
        </linearGradient>
    </defs>
    <g id="Symbols" stroke="none" stroke-width="1" fill="none" fill-rule="evenodd">
        <g id="logo-cityzen-dark" transform="translate(-10.000000, -8.000000)">
            <g transform="translate(10.000000, 8.000000)">
                <g id="logotype-cityzen" transform="translate(0.000000, 1.000000)" fill-rule="nonzero">
                    <path d="M1.53587567,0.0315970576 L21.9641243,12.9974167 C22.2912142,13.2050208 22.7087858,13.2050208 23.0358757,12.9974167 L43.4641243,0.0315970576 C43.9304166,-0.264358902 44.5483409,-0.126274011 44.8442969,0.340018295 C44.945996,0.500249909 45,0.686112844 45,0.875893965 L45,40.127453 C45,40.6797378 44.5522847,41.127453 44,41.127453 C43.8069095,41.127453 43.6179483,41.0715507 43.4559368,40.9664973 L34.2059368,34.9685013 C33.9216123,34.7841362 33.75,34.4683242 33.75,34.129457 L33.75,22.3407491 C33.75,21.7884643 33.3022847,21.3407491 32.75,21.3407491 C32.5587432,21.3407491 32.3714979,21.3955955 32.2104665,21.4987849 L23.0395335,27.3755499 C22.7107049,27.5862644 22.2892951,27.5862644 21.9604665,27.3755499 L0.460466521,13.598277 C0.173541783,13.4144147 2.63778147e-16,13.0970931 2.22044605e-16,12.7563129 L-6.66133815e-16,0.875893965 C-7.3376919e-16,0.323609215 0.44771525,-0.124106035 1,-0.124106035 C1.18978112,-0.124106035 1.37564406,-0.0701020274 1.53587567,0.0315970576 Z" id="path1" fill="url(#linearGradient-1)"></path>
                    <path d="M1.51663985,29.0742679 L9.71866929,34.0234401 C10.191537,34.3087724 10.3435646,34.923415 10.0582323,35.3962828 C9.9780704,35.5291313 9.86809456,35.6415037 9.73700485,35.7245106 L1.53497541,40.9180864 C1.0683679,41.2135451 0.450591132,41.0748016 0.155132371,40.6081941 C0.0537980625,40.4481605 -2.05159289e-14,40.2626374 -2.0539126e-14,40.0732187 L-2.10942375e-14,29.9304707 C-2.11618728e-14,29.378186 0.44771525,28.9304707 1,28.9304707 C1.18209353,28.9304707 1.36073085,28.9801911 1.51663985,29.0742679 Z" id="path2" fill="url(#linearGradient-2)"></path>
                </g>
                <text id="Cityzen" font-family="DomusTitlingMedium, Domus Titling" font-size="24" font-weight="400" letter-spacing="1.5">
                    <tspan x="67" y="30" fill="#979FA6">City</tspan>
                    <tspan x="124.816" y="30" fill="#B19BFF">ze</tspan>
                    <tspan x="154.888" y="30" fill="#B19BFF">n</tspan>
                </text>
            </g>
        </g>
    </g>
</svg>